<svg width="28" height="28" viewBox="0 0 28 28" fill="none" xmlns="http://www.w3.org/2000/svg">
<rect x="0.5" y="0.5" width="27" height="27" rx="4.5" fill="white" fill-opacity="0.1" stroke="white"/>
<path d="M19 9H8V10.585L11.705 14.295L12 14.585V19H14V18H15V19C15 19.2652 14.8946 19.5196 14.7071 19.7071C14.5196 19.8946 14.2652 20 14 20H12C11.7348 20 11.4804 19.8946 11.2929 19.7071C11.1054 19.5196 11 19.2652 11 19V15L7.295 11.295C7.20142 11.202 7.12717 11.0913 7.07654 10.9695C7.02591 10.8476 6.9999 10.717 7 10.585V9C7 8.73478 7.10536 8.48043 7.29289 8.29289C7.48043 8.10536 7.73478 8 8 8H19V9Z" fill="white"/>
<path d="M20.855 11.645L19.355 10.145C19.3085 10.0981 19.2532 10.0609 19.1923 10.0355C19.1314 10.0101 19.066 9.99707 19 9.99707C18.934 9.99707 18.8686 10.0101 18.8077 10.0355C18.7468 10.0609 18.6915 10.0981 18.645 10.145L14 14.795V17H16.205L20.855 12.355C20.9019 12.3085 20.9391 12.2532 20.9644 12.1923C20.9898 12.1313 21.0029 12.066 21.0029 12C21.0029 11.934 20.9898 11.8686 20.9644 11.8077C20.9391 11.7468 20.9019 11.6915 20.855 11.645ZM15.795 16H15V15.205L17.5 12.705L18.295 13.5L15.795 16ZM19 12.795L18.205 12L19 11.205L19.795 12L19 12.795Z" fill="white"/>
</svg>
