<svg width="79" height="24" viewBox="0 0 79 24" fill="none" xmlns="http://www.w3.org/2000/svg">
<path fill-rule="evenodd" clip-rule="evenodd" d="M49.01 18.6177C44.4192 22.0015 37.7651 23.8069 32.0361 23.8069C24.0029 23.8069 16.7711 20.8357 11.2999 15.8942C10.8701 15.5055 11.2553 14.976 11.7711 15.2786C17.6755 18.714 24.9761 20.7807 32.5175 20.7807C37.6035 20.7807 43.1984 19.7285 48.3429 17.5448C49.12 17.2147 49.77 18.0537 49.01 18.6177Z" fill="#BE0B31"/>
<path fill-rule="evenodd" clip-rule="evenodd" d="M50.9187 16.4341C50.3341 15.6844 47.0396 16.0799 45.5609 16.2552C45.1104 16.3103 45.0417 15.9182 45.4474 15.6363C48.0713 13.7896 52.3767 14.3227 52.8787 14.9416C53.3808 15.5641 52.7481 19.8798 50.2824 21.9396C49.9042 22.256 49.543 22.0875 49.7116 21.6679C50.2653 20.2856 51.5067 17.1872 50.9187 16.4341Z" fill="#BE0B31"/>
<path fill-rule="evenodd" clip-rule="evenodd" d="M45.6641 2.59973V0.804694C45.6641 0.533013 45.8704 0.35076 46.118 0.35076H54.1545C54.4124 0.35076 54.6188 0.53641 54.6188 0.804694V2.3418C54.6153 2.59973 54.3987 2.93675 54.0136 3.46976L49.8492 9.41546C51.3966 9.37769 53.03 9.60806 54.4331 10.399C54.7495 10.5778 54.8354 10.8392 54.8595 11.097V13.0125C54.8595 13.2738 54.5706 13.5799 54.268 13.4217C51.7955 12.1253 48.5115 11.9843 45.7776 13.4355C45.499 13.5868 45.2067 13.2842 45.2067 13.0228V11.2037C45.2067 10.9114 45.2101 10.4128 45.5024 9.96917L50.3271 3.05027H46.1283C45.8704 3.05027 45.6641 2.86802 45.6641 2.59973ZM16.3482 13.8H13.9031C13.6693 13.7828 13.4836 13.6074 13.4664 13.3839V0.835662C13.4664 0.5846 13.6762 0.385125 13.9375 0.385125H16.2174C16.4548 0.395395 16.6439 0.577727 16.6611 0.804615V2.44505H16.7058C17.3007 0.859757 18.4183 0.120475 19.9245 0.120475C21.4547 0.120475 22.4108 0.859757 23.0986 2.44505C23.69 0.859757 25.0346 0.120475 26.4755 0.120475C27.5002 0.120475 28.6213 0.543441 29.3056 1.49255C30.0793 2.54822 29.9212 4.08193 29.9212 5.42651L29.9177 13.3461C29.9177 13.5972 29.708 13.8 29.4466 13.8H27.005C26.7609 13.7829 26.5649 13.5869 26.5649 13.3461V6.69541C26.5649 6.16579 26.613 4.84523 26.4961 4.34326C26.3139 3.50073 25.7671 3.26341 25.0586 3.26341C24.4672 3.26341 23.8482 3.65888 23.5971 4.29168C23.3462 4.92446 23.3703 5.98354 23.3703 6.69541V13.346C23.3703 13.5971 23.1604 13.8 22.8991 13.8H20.4575C20.2099 13.7828 20.0173 13.5868 20.0173 13.346L20.0139 6.69541C20.0139 5.29576 20.2443 3.236 18.5077 3.236C16.7505 3.236 16.8193 5.24418 16.8193 6.69541V13.346C16.8193 13.5971 16.6095 13.8 16.3482 13.8ZM61.5377 0.120396C65.1656 0.120396 67.1292 3.23592 67.1292 7.19745C67.1292 11.0248 64.9593 14.0614 61.5376 14.0614C57.975 14.0614 56.0356 10.9458 56.0356 7.06331C56.0356 3.15684 57.9991 0.120396 61.5377 0.120396ZM61.5583 2.68229C59.7563 2.68229 59.6429 5.13761 59.6429 6.66784C59.6429 8.20162 59.6189 11.4753 61.5377 11.4753C63.4325 11.4753 63.5218 8.83433 63.5218 7.22494C63.5218 6.16579 63.4771 4.90029 63.1573 3.8962C62.8823 3.0227 62.3354 2.68229 61.5583 2.68229ZM71.8335 13.8H69.3988C69.1547 13.7828 68.9586 13.5868 68.9586 13.346L68.9552 0.794345C68.9758 0.563981 69.1788 0.385125 69.4263 0.385125H71.6925C71.9057 0.395395 72.0811 0.539965 72.1292 0.735885V2.65479H72.1739C72.8583 0.938836 73.8177 0.120396 75.5061 0.120396C76.6031 0.120396 77.6726 0.515791 78.3604 1.59904C79 2.60313 79 4.29168 79 5.50559V13.4045C78.9725 13.6246 78.7696 13.8 78.5289 13.8H76.077C75.8534 13.7828 75.6678 13.6177 75.6437 13.4045V6.58876C75.6437 5.21669 75.8019 3.20835 74.1135 3.20835C73.5186 3.20835 72.9717 3.6073 72.7001 4.21252C72.3562 4.97945 72.3115 5.74283 72.3115 6.58884V13.346C72.3081 13.5971 72.0948 13.8 71.8335 13.8ZM39.2575 7.80615C39.2575 8.75865 39.2816 9.55307 38.8001 10.3989C38.4116 11.0868 37.7927 11.5097 37.1083 11.5097C36.1695 11.5097 35.6193 10.7945 35.6193 9.73872C35.6193 7.65478 37.4866 7.27653 39.2575 7.27653V7.80615ZM41.7231 13.7656C41.5616 13.91 41.3277 13.9204 41.1455 13.8241C40.3339 13.15 40.186 12.8371 39.7425 12.194C38.4013 13.5627 37.4488 13.9719 35.7121 13.9719C33.6523 13.9719 32.0532 12.703 32.0532 10.1618C32.0532 8.17753 33.1261 6.82607 34.6598 6.16579C35.9873 5.58119 37.8408 5.47802 39.2576 5.31638V5.00007C39.2576 4.41886 39.3023 3.73109 38.9584 3.22905C38.6627 2.77859 38.0917 2.59286 37.5863 2.59286C36.6543 2.59286 35.8256 3.07081 35.6228 4.06123C35.5814 4.28133 35.4198 4.49794 35.1963 4.50829L32.827 4.25383C32.6276 4.20912 32.404 4.04749 32.4624 3.74144C33.0058 0.86663 35.6055 0 37.9303 0C39.1201 0 40.6744 0.316395 41.6133 1.21739C42.803 2.32813 42.6895 3.81017 42.6895 5.42303V9.2332C42.6895 10.3784 43.1642 10.8804 43.6112 11.4994C43.766 11.7195 43.8003 11.9843 43.6009 12.1493C43.1022 12.5654 42.215 13.3391 41.7267 13.7725L41.7233 13.7656M7.20433 7.80615C7.20433 8.75865 7.22842 9.55307 6.74692 10.3989C6.35839 11.0868 5.74283 11.5097 5.05505 11.5097C4.11629 11.5097 3.56946 10.7945 3.56946 9.73872C3.56946 7.65478 5.43678 7.27653 7.20433 7.27653V7.80615ZM9.66992 13.7656C9.50836 13.91 9.27452 13.9204 9.09227 13.8241C8.2807 13.15 8.13621 12.8371 7.68923 12.194C6.34805 13.5627 5.39902 13.9719 3.65889 13.9719C1.60251 13.9719 0 12.703 0 10.1618C0 8.17753 1.07637 6.82607 2.60661 6.16579C3.93404 5.58119 5.78754 5.47802 7.20433 5.31638V5.00007C7.20433 4.41886 7.24904 3.73109 6.90855 3.22905C6.60938 2.77859 6.0386 2.59286 5.53648 2.59286C4.60459 2.59286 3.77241 3.07081 3.56946 4.06123C3.52822 4.28133 3.36659 4.49794 3.14649 4.50829L0.773726 4.25383C0.574251 4.20912 0.354236 4.04749 0.40922 3.74144C0.955979 0.86663 3.55231 0 5.87697 0C7.06671 0 8.62111 0.316395 9.55995 1.21739C10.7497 2.32813 10.6362 3.81017 10.6362 5.42303V9.2332C10.6362 10.3784 11.1108 10.8804 11.5579 11.4994C11.7161 11.7195 11.7505 11.9843 11.551 12.1493C11.0523 12.5654 10.1652 13.3391 9.67687 13.7725L9.66992 13.7656Z" fill="#BE0B31"/>
</svg>
