<svg width="28" height="28" viewBox="0 0 28 28" fill="none" xmlns="http://www.w3.org/2000/svg">
<rect x="0.5" y="0.5" width="27" height="27" rx="4.5" fill="white" fill-opacity="0.1" stroke="white"/>
<path d="M11.805 20.9601C11.7027 20.9169 11.6176 20.8408 11.5633 20.744C11.509 20.6471 11.4885 20.5349 11.505 20.4251L12.415 14.5001H10C9.92343 14.5021 9.84742 14.4866 9.77782 14.4546C9.70823 14.4226 9.6469 14.3751 9.59859 14.3157C9.55027 14.2562 9.51626 14.1865 9.49916 14.1118C9.48207 14.0372 9.48235 13.9596 9.5 13.8851L11 7.38506C11.0264 7.27319 11.0905 7.17384 11.1816 7.10371C11.2727 7.03359 11.3851 6.99698 11.5 7.00006H16.5C16.5747 6.9998 16.6485 7.01629 16.716 7.0483C16.7835 7.08032 16.8429 7.12705 16.89 7.18506C16.9377 7.24372 16.9715 7.31245 16.9888 7.38606C17.0062 7.45968 17.0066 7.53627 16.99 7.61006L16.125 11.5001H18.5C18.5937 11.4999 18.6856 11.526 18.7651 11.5755C18.8447 11.625 18.9088 11.6959 18.95 11.7801C18.9858 11.8608 18.9996 11.9496 18.99 12.0375C18.9803 12.1253 18.9475 12.209 18.895 12.2801L12.395 20.7801C12.3511 20.8452 12.2924 20.899 12.2238 20.9373C12.1552 20.9755 12.0785 20.997 12 21.0001C11.9331 20.9988 11.867 20.9852 11.805 20.9601ZM14.875 12.5001L15.875 8.00006H11.9L10.63 13.5001H13.585L12.79 18.6401L17.5 12.5001H14.875Z" fill="white"/>
</svg>
