<svg width="28" height="28" viewBox="0 0 28 28" fill="none" xmlns="http://www.w3.org/2000/svg">
<rect x="0.5" y="0.5" width="27" height="27" rx="4.5" fill="white" fill-opacity="0.25" stroke="white"/>
<path d="M16 16.5H12C11.7348 16.5 11.4804 16.3946 11.2929 16.2071C11.1054 16.0196 11 15.7652 11 15.5V14.5C11 14.2348 11.1054 13.9804 11.2929 13.7929C11.4804 13.6054 11.7348 13.5 12 13.5H16C16.2652 13.5 16.5196 13.6054 16.7071 13.7929C16.8946 13.9804 17 14.2348 17 14.5V15.5C17 15.7652 16.8946 16.0196 16.7071 16.2071C16.5196 16.3946 16.2652 16.5 16 16.5ZM12 14.5V15.5H16V14.5H12Z" fill="white"/>
<path d="M20 8H8C7.73478 8 7.48043 8.10536 7.29289 8.29289C7.10536 8.48043 7 8.73478 7 9V11C7 11.2652 7.10536 11.5196 7.29289 11.7071C7.48043 11.8946 7.73478 12 8 12V20C8 20.2652 8.10536 20.5196 8.29289 20.7071C8.48043 20.8946 8.73478 21 9 21H19C19.2652 21 19.5196 20.8946 19.7071 20.7071C19.8946 20.5196 20 20.2652 20 20V12C20.2652 12 20.5196 11.8946 20.7071 11.7071C20.8946 11.5196 21 11.2652 21 11V9C21 8.73478 20.8946 8.48043 20.7071 8.29289C20.5196 8.10536 20.2652 8 20 8ZM19 20H9V12H19V20ZM20 11H8V9H20V11Z" fill="white"/>
</svg>
