<svg width="25" height="26" viewBox="0 0 25 26" fill="none" xmlns="http://www.w3.org/2000/svg">
<path d="M11.4906 9.38568C11.7957 9.08058 11.7957 8.58592 11.4906 8.28082C11.1855 7.97573 10.6908 7.97573 10.3857 8.28082L6.21906 12.4475C6.06651 12.6 5.99023 12.8 5.99023 12.9999C5.99023 13.1058 6.01132 13.2069 6.04951 13.299C6.08764 13.3911 6.14415 13.4774 6.21906 13.5523L10.3857 17.719C10.6908 18.0241 11.1855 18.0241 11.4906 17.719C11.7957 17.4139 11.7957 16.9193 11.4906 16.6142L8.65759 13.7812H18.7507C19.1821 13.7812 19.5319 13.4314 19.5319 12.9999C19.5319 12.5684 19.1821 12.2187 18.7507 12.2187H8.65759L11.4906 9.38568Z" fill="#1D1D1D"/>
</svg>
