<svg width="28" height="28" viewBox="0 0 28 28" fill="none" xmlns="http://www.w3.org/2000/svg">
<rect x="0.5" y="0.5" width="27" height="27" rx="4.5" fill="white" fill-opacity="0.1" stroke="white"/>
<path d="M20.252 10.068L14.252 6.56803C14.1755 6.5234 14.0886 6.49988 14 6.49988C13.9114 6.49988 13.8245 6.5234 13.748 6.56803L7.748 10.068C7.67251 10.1121 7.60989 10.1751 7.56637 10.2509C7.52286 10.3267 7.49997 10.4126 7.5 10.5V17.5C7.49997 17.5874 7.52286 17.6733 7.56637 17.7491C7.60989 17.8249 7.67251 17.888 7.748 17.932L13.748 21.432C13.8245 21.4767 13.9114 21.5002 14 21.5002C14.0886 21.5002 14.1755 21.4767 14.252 21.432L20.252 17.932C20.3275 17.888 20.3901 17.8249 20.4336 17.7491C20.4771 17.6733 20.5 17.5874 20.5 17.5V10.5C20.5 10.4126 20.4771 10.3267 20.4336 10.2509C20.3901 10.1751 20.3275 10.1121 20.252 10.068ZM14 7.57903L19.008 10.5L14 13.421L8.992 10.5L14 7.57903ZM8.5 11.37L13.5 14.2865V20.13L8.5 17.213V11.37ZM14.5 20.13V14.287L19.5 11.3705V17.213L14.5 20.13Z" fill="white"/>
</svg>
