<svg width="68" height="28" viewBox="0 0 68 28" fill="none" xmlns="http://www.w3.org/2000/svg">
<path d="M8.79282 5.9445C3.99676 5.9445 0 7.97951 0 14.1183C0 18.9815 2.68757 22.0443 8.91666 22.0443C16.249 22.0443 16.719 17.2144 16.719 17.2144H13.1661C13.1661 17.2144 12.4047 19.8149 8.70005 19.8149C5.68292 19.8149 3.51273 17.7767 3.51273 14.9201H17.0907V13.1274C17.0907 10.3012 15.2966 5.94427 8.79305 5.94427L8.79282 5.9445ZM8.66898 8.23582C11.5412 8.23582 13.4991 9.99524 13.4991 12.6325H3.59166C3.59166 9.83284 6.14699 8.23582 8.66898 8.23582Z" fill="#BE0B31"/>
<path d="M17.088 6.10352e-05V18.9614C17.088 20.0376 17.0111 21.5489 17.0111 21.5489H20.3998C20.3998 21.5489 20.5213 20.4636 20.5213 19.4715C20.5213 19.4715 22.1955 22.0908 26.7477 22.0908C31.5415 22.0908 34.7975 18.7627 34.7975 13.9945C34.7975 9.55862 31.8067 5.991 26.7554 5.991C22.0254 5.991 20.5556 8.5452 20.5556 8.5452V6.10352e-05H17.088ZM25.8808 8.3363C29.1361 8.3363 31.2061 10.7524 31.2061 13.9945C31.2061 17.4709 28.8154 19.7455 25.9042 19.7455C22.4298 19.7455 20.5556 17.0327 20.5556 14.0253C20.5556 11.2232 22.2372 8.3363 25.8808 8.3363Z" fill="#BE0B31"/>
<path d="M43.219 5.94446C36.0035 5.94446 35.5408 9.89563 35.5408 10.5269H39.1322C39.1322 10.5269 39.3205 8.22012 42.9713 8.22012C45.3438 8.22012 47.182 9.30613 47.182 11.3938V12.1368H42.9713C37.3814 12.1368 34.4262 13.7722 34.4262 17.0905C34.4262 20.3562 37.1566 22.1334 40.8467 22.1334C45.8755 22.1334 47.4954 19.3546 47.4954 19.3546C47.4954 20.4597 47.5807 21.5488 47.5807 21.5488H50.7734C50.7734 21.5488 50.6496 20.1988 50.6496 19.3351V11.8696C50.6496 6.97489 46.7013 5.94446 43.219 5.94446ZM47.182 14.366V15.3567C47.182 16.6489 46.3847 19.8613 41.6903 19.8613C39.1197 19.8613 38.0176 18.5787 38.0176 17.0905C38.0176 14.3834 41.7293 14.366 47.182 14.366Z" fill="#BE0B31"/>
<path d="M48.7157 6.56439H52.756L58.5546 18.1813L64.3401 6.56439H68L57.4621 27.2463H53.6232L56.6639 21.4811L48.7157 6.56439Z" fill="#BE0B31"/>
</svg>
