<svg width="28" height="28" viewBox="0 0 28 28" fill="none" xmlns="http://www.w3.org/2000/svg">
<rect x="0.5" y="0.5" width="27" height="27" rx="4.5" fill="white" fill-opacity="0.1" stroke="white"/>
<path d="M14 7C12.6155 7 11.2622 7.41054 10.111 8.17971C8.95987 8.94888 8.06266 10.0421 7.53285 11.3212C7.00303 12.6003 6.86441 14.0078 7.13451 15.3656C7.4046 16.7235 8.07129 17.9708 9.05026 18.9497C10.0292 19.9287 11.2765 20.5954 12.6344 20.8655C13.9922 21.1356 15.3997 20.997 16.6788 20.4672C17.9579 19.9373 19.0511 19.0401 19.8203 17.889C20.5895 16.7378 21 15.3845 21 14C21 12.1435 20.2625 10.363 18.9497 9.05025C17.637 7.7375 15.8565 7 14 7ZM14 20C12.8133 20 11.6533 19.6481 10.6666 18.9888C9.67989 18.3295 8.91085 17.3925 8.45673 16.2961C8.0026 15.1997 7.88378 13.9933 8.11529 12.8295C8.3468 11.6656 8.91825 10.5965 9.75736 9.75736C10.5965 8.91824 11.6656 8.3468 12.8295 8.11529C13.9933 7.88378 15.1997 8.0026 16.2961 8.45672C17.3925 8.91085 18.3295 9.67988 18.9888 10.6666C19.6481 11.6533 20 12.8133 20 14C20 15.5913 19.3679 17.1174 18.2426 18.2426C17.1174 19.3679 15.5913 20 14 20Z" fill="white"/>
<path d="M11.75 11.5C11.5028 11.5 11.2611 11.5734 11.0555 11.7107C10.85 11.8481 10.6898 12.0433 10.5952 12.2717C10.5005 12.5001 10.4758 12.7514 10.524 12.9939C10.5723 13.2364 10.6913 13.4591 10.8661 13.6339C11.0409 13.8087 11.2637 13.9278 11.5061 13.976C11.7486 14.0243 11.9999 13.9995 12.2284 13.9049C12.4568 13.8103 12.652 13.6501 12.7893 13.4445C12.9267 13.2389 13 12.9973 13 12.75C13.0013 12.5855 12.9699 12.4224 12.9076 12.2701C12.8452 12.1179 12.7532 11.9795 12.6369 11.8632C12.5205 11.7468 12.3822 11.6548 12.2299 11.5925C12.0777 11.5301 11.9145 11.4987 11.75 11.5ZM16.25 11.5C16.0028 11.5 15.7611 11.5734 15.5555 11.7107C15.35 11.8481 15.1898 12.0433 15.0952 12.2717C15.0005 12.5001 14.9758 12.7514 15.024 12.9939C15.0723 13.2364 15.1913 13.4591 15.3661 13.6339C15.5409 13.8087 15.7637 13.9278 16.0061 13.976C16.2486 14.0243 16.4999 13.9995 16.7284 13.9049C16.9568 13.8103 17.152 13.6501 17.2893 13.4445C17.4267 13.2389 17.5 12.9973 17.5 12.75C17.5013 12.5855 17.4699 12.4224 17.4076 12.2701C17.3452 12.1179 17.2532 11.9795 17.1369 11.8632C17.0205 11.7468 16.8822 11.6548 16.7299 11.5925C16.5777 11.5301 16.4145 11.4987 16.25 11.5ZM10.5 16C10.8594 16.6085 11.3713 17.1128 11.985 17.4631C12.5988 17.8134 13.2933 17.9976 14 17.9976C14.7067 17.9976 15.4012 17.8134 16.015 17.4631C16.6287 17.1128 17.1406 16.6085 17.5 16H10.5Z" fill="white"/>
</svg>
