<svg width="581" height="388" viewBox="0 0 581 388" fill="none" xmlns="http://www.w3.org/2000/svg">
<g clip-path="url(#clip0_0_435)">
<path d="M390.172 347.181C426.412 339.34 462.216 326.301 491.417 303.452C520.619 280.601 542.681 246.986 545.922 210.05C550.593 156.831 515.373 106.284 469.951 78.1624C424.529 50.0404 370.36 40.2765 317.416 33.1449C267.215 26.3836 215.748 21.542 166.25 32.3036C67.3463 53.8084 15.4537 136.214 41.2168 234.196C60.6927 308.267 156.111 335.438 222.493 348.386C277.717 359.159 335.133 359.089 390.172 347.181Z" fill="#FBEED1"/>
<path d="M55.6629 329.774V346.09H41.4919V329.701L55.6629 329.774Z" fill="#21255C"/>
<path d="M204.22 329.774V346.09H164.33V329.701L204.22 329.774Z" fill="#21255C"/>
<path d="M175.26 290.24C169.683 290.24 165.074 307.408 164.33 329.701H186.191C185.446 307.408 180.837 290.24 175.26 290.24Z" fill="#21255C"/>
<path d="M209.479 296.986H176.848V375.113H209.479C214.678 375.113 218.892 357.623 218.892 336.05C218.892 314.475 214.678 296.986 209.479 296.986Z" fill="#21255C"/>
<path d="M176.848 375.113C182.046 375.113 186.261 357.624 186.261 336.05C186.261 314.476 182.046 296.986 176.848 296.986C171.649 296.986 167.435 314.476 167.435 336.05C167.435 357.624 171.649 375.113 176.848 375.113Z" fill="#495375"/>
<path d="M179.025 314.317C178.354 313.159 177.619 312.518 176.848 312.518C173.717 312.518 171.177 323.053 171.177 336.05C171.177 349.046 173.717 359.582 176.848 359.582C177.619 359.582 178.354 358.94 179.025 357.782C176.973 354.24 175.531 345.845 175.531 336.05C175.531 326.254 176.973 317.859 179.025 314.317Z" fill="#C7D2D7"/>
<path d="M179.024 314.317C176.973 317.859 175.531 326.255 175.531 336.05C175.531 345.845 176.973 354.24 179.024 357.782C181.076 354.24 182.518 345.845 182.518 336.05C182.518 326.254 181.076 317.859 179.024 314.317Z" fill="#99A3B0"/>
<path d="M386.407 296.986H353.775V375.113H386.407C391.605 375.113 395.82 357.623 395.82 336.05C395.82 314.475 391.605 296.986 386.407 296.986Z" fill="#21255C"/>
<path d="M363.189 336.05C363.189 357.623 358.974 375.113 353.776 375.113C348.577 375.113 344.363 357.623 344.363 336.05C344.363 314.476 348.578 296.986 353.776 296.986C358.974 296.986 363.189 314.475 363.189 336.05Z" fill="#495375"/>
<path d="M355.952 314.317C355.282 313.159 354.547 312.518 353.775 312.518C350.644 312.518 348.105 323.053 348.105 336.05C348.105 349.046 350.644 359.582 353.775 359.582C354.547 359.582 355.282 358.94 355.952 357.782C353.901 354.24 352.458 345.845 352.458 336.05C352.458 326.254 353.901 317.859 355.952 314.317Z" fill="#C7D2D7"/>
<path d="M355.952 314.317C353.901 317.859 352.458 326.255 352.458 336.05C352.458 345.845 353.901 354.24 355.952 357.782C358.003 354.24 359.446 345.845 359.446 336.05C359.446 326.254 358.004 317.859 355.952 314.317Z" fill="#99A3B0"/>
<path d="M52.4225 290.24C46.8457 290.24 42.2372 307.408 41.4919 329.701H63.353C62.6078 307.408 58.0001 290.24 52.4225 290.24Z" fill="#21255C"/>
<path d="M428.935 88.25H204.218V329.701H428.935V88.25Z" fill="#BE0B31"/>
<path d="M419.523 320.289L419.523 97.6631L213.632 97.6631L213.632 320.289H419.523Z" fill="#620216"/>
<path d="M85.0533 296.986H52.4221V375.113H85.0533C90.2521 375.113 94.4663 357.623 94.4663 336.05C94.4663 314.475 90.2521 296.986 85.0533 296.986Z" fill="#21255C"/>
<path d="M52.4212 375.113C57.6198 375.113 61.8342 357.624 61.8342 336.05C61.8342 314.476 57.6198 296.986 52.4212 296.986C47.2225 296.986 43.0082 314.476 43.0082 336.05C43.0082 357.624 47.2225 375.113 52.4212 375.113Z" fill="#495375"/>
<path d="M54.5977 314.317C53.9277 313.159 53.1925 312.518 52.4209 312.518C49.2889 312.518 46.7504 323.053 46.7504 336.05C46.7504 349.046 49.2889 359.582 52.4209 359.582C53.1925 359.582 53.9277 358.94 54.5977 357.782C52.5464 354.24 51.104 345.845 51.104 336.05C51.104 326.254 52.5464 317.859 54.5977 314.317Z" fill="#C7D2D7"/>
<path d="M54.5987 314.317C52.5474 317.859 51.1049 326.255 51.1049 336.05C51.1049 345.845 52.5474 354.24 54.5987 357.782C56.65 354.24 58.0924 345.845 58.0924 336.05C58.0924 326.254 56.65 317.859 54.5987 314.317Z" fill="#99A3B0"/>
<path d="M114.941 88.25V329.701H164.33C165.074 307.408 169.682 290.24 175.26 290.24C180.837 290.24 185.445 307.408 186.191 329.701H204.219V88.25H114.941Z" fill="#002768"/>
<path d="M190.595 88.25H114.941V104.306" stroke="#2C2493" stroke-width="1.16882" stroke-miterlimit="10"/>
<path d="M114.941 144.968H74.7524C67.7068 144.968 61.7395 150.162 60.7681 157.14L50.5394 230.624L37.7164 243.86C33.4642 248.25 31.086 254.122 31.086 260.234V329.7H41.4913C42.2365 307.406 46.845 290.238 52.4219 290.238C57.9994 290.238 62.6072 307.406 63.3524 329.7H114.941V144.968Z" fill="#BE0B31"/>
<path d="M436.402 329.701H204.218V346.017H436.402V329.701Z" fill="#C7D2D7"/>
<path d="M204.219 329.701H186.26V346.09H204.219V329.701Z" fill="#99A3B0"/>
<path d="M114.941 329.701V329.774L63.3528 329.701V346.089H114.941H164.33V329.774L114.941 329.701Z" fill="#99A3B0"/>
<path d="M41.4915 329.774V346.09H27.3213V329.701L41.4915 329.774Z" fill="#99A3B0"/>
<path d="M97.9172 155.322H74.7531C72.8838 155.322 71.281 156.717 71.0239 158.569L60.9942 230.625H97.918L97.9172 155.322Z" fill="#7DD3E9"/>
<path d="M96.5057 221.84C92.8896 218.223 87.9844 216.191 82.8708 216.191H69.2088L76.0623 161.364C76.18 160.422 76.981 159.714 77.93 159.714H97.918V155.322H74.7531C72.8838 155.322 71.281 156.717 71.0239 158.569L60.9942 230.625H97.918V221.84H96.5057Z" fill="#5FA5CC"/>
<path d="M94.4655 230.625V319.498C94.4655 320.452 95.2387 321.224 96.1915 321.224C97.1443 321.224 97.9175 320.452 97.9175 319.498V230.625H94.4655Z" fill="#A34262"/>
<path d="M36.6328 291.652C35.8528 291.652 35.2206 291.02 35.2206 290.24V261.293C35.2206 255.518 37.4346 250.051 41.4528 245.902C41.9966 245.342 42.8906 245.329 43.4491 245.87C44.0092 246.412 44.0232 247.306 43.4809 247.866C39.9748 251.486 38.0435 256.254 38.0435 261.292V290.239C38.0451 291.02 37.4129 291.652 36.6328 291.652Z" fill="#E36E90"/>
<path d="M46.0652 244.582C45.7111 244.582 45.3563 244.449 45.0821 244.184C44.5228 243.641 44.5081 242.747 45.0511 242.187L47.781 239.37C48.3241 238.81 49.2181 238.796 49.7774 239.339C50.3374 239.881 50.3514 240.775 49.8091 241.335L47.0792 244.153C46.8019 244.438 46.4331 244.582 46.0652 244.582Z" fill="#E36E90"/>
<path d="M381.332 244.582H305.626V320.288H381.332V244.582Z" fill="#F4D071"/>
<path d="M350.225 244.582H336.733V268.276H350.225V244.582Z" fill="#FBEED1"/>
<path d="M305.626 244.582H289.337V320.288H305.626V244.582Z" fill="#ECA85E"/>
<path d="M334.234 312.888H319.541C318.59 312.888 317.819 312.116 317.819 311.165V304.448C317.819 303.496 318.59 302.725 319.541 302.725H334.234C335.185 302.725 335.957 303.496 335.957 304.448V311.165C335.957 312.116 335.185 312.888 334.234 312.888Z" stroke="#ECA85E" stroke-width="0.774667" stroke-miterlimit="10"/>
<path d="M351.911 180.723H288.052V244.582H351.911V180.723Z" fill="#F4D071"/>
<path d="M325.673 180.723H314.292V200.71H325.673V180.723Z" fill="#FBEED1"/>
<path d="M288.053 180.723H267.451V244.582H288.053V180.723Z" fill="#ECA85E"/>
<path d="M317.57 239.466H302.877C301.926 239.466 301.155 238.695 301.155 237.743V231.026C301.155 230.075 301.926 229.303 302.877 229.303H317.57C318.521 229.303 319.293 230.075 319.293 231.026V237.743C319.293 238.695 318.522 239.466 317.57 239.466Z" stroke="#ECA85E" stroke-width="0.774667" stroke-miterlimit="10"/>
<path d="M267.45 168.876H213.632V244.582H267.45V168.876Z" fill="#F4D071"/>
<path d="M236.344 168.876H222.852V192.57H236.344V168.876Z" fill="#FBEED1"/>
<path d="M267.451 244.582H213.632V231.253L267.451 244.582Z" fill="#ECA85E"/>
<path d="M289.338 244.582H213.632V320.288H289.338V244.582Z" fill="#F4D071"/>
<path d="M258.232 244.582H244.74V268.276H258.232V244.582Z" fill="#FBEED1"/>
<path d="M289.338 320.288H213.632V303.104L289.338 320.288Z" fill="#ECA85E"/>
<path d="M220.323 340.762H204.203V329.701H231.383C231.383 335.809 226.431 340.762 220.323 340.762Z" fill="#E8916A"/>
<path d="M420.298 340.762H436.418V329.701H409.239C409.239 335.809 414.19 340.762 420.298 340.762Z" fill="#E8916A"/>
<path d="M204.22 340.762C198.796 340.762 194.4 336.366 194.4 330.941V329.701H204.22V340.762Z" fill="#A34262"/>
<path d="M187.967 151.086H112.193V157.44H187.967V151.086Z" fill="white"/>
<path d="M187.967 157.44H112.193V163.794H187.967V157.44Z" fill="#C7D2D7"/>
<path d="M187.966 151.086V157.44V163.794H193.222V157.44V151.086H187.966Z" fill="#99A3B0"/>
<path d="M187.967 219.448H112.193V225.801H187.967V219.448Z" fill="white"/>
<path d="M187.967 225.801H112.193V232.155H187.967V225.801Z" fill="#C7D2D7"/>
<path d="M187.966 219.448V225.801V232.155H193.222V225.801V219.448H187.966Z" fill="#99A3B0"/>
<path d="M419.937 97.2539H213.632V133.008H419.937V97.2539Z" fill="#F4D071"/>
<path d="M419.938 101.811H213.632V106.013H419.938V101.811Z" fill="#FBEED1"/>
<path d="M419.938 110.354H213.632V114.558H419.938V110.354Z" fill="#FBEED1"/>
<path d="M419.938 118.897H213.632V123.103H419.938V118.897Z" fill="#FBEED1"/>
<path d="M419.938 127.443H213.632V131.645H419.938V127.443Z" fill="#FBEED1"/>
<path d="M51.0996 213.241H58.8076C59.1461 213.241 59.4203 212.967 59.4203 212.628C59.4203 212.29 59.1461 212.015 58.8076 212.015H51.7124V173.125H61.6335C61.9721 173.125 62.2463 172.85 62.2463 172.512C62.2463 172.173 61.9721 171.899 61.6335 171.899H51.0996C50.7611 171.899 50.4869 172.173 50.4869 172.512V212.628C50.4869 212.967 50.7611 213.241 51.0996 213.241Z" fill="#21255C"/>
<path d="M47.3568 207.756H54.8409C56.58 207.756 57.9899 206.346 57.9899 204.607V180.534C57.9899 178.795 56.58 177.385 54.8409 177.385H47.3568C45.6169 177.385 44.207 178.794 44.207 180.534V204.606C44.207 206.346 45.6169 207.756 47.3568 207.756Z" fill="#21255C"/>
<path d="M48.2755 205.971H53.9213C55.3753 205.971 56.5536 204.792 56.5536 203.338V181.802C56.5536 180.348 55.3753 179.169 53.9213 179.169H48.2755C46.8215 179.169 45.6432 180.348 45.6432 181.802V203.338C45.6432 204.792 46.8222 205.971 48.2755 205.971Z" fill="#7DD3E9"/>
<path d="M436.86 158.761L429.278 158.16L429.247 158.614L429.226 158.985L429.195 159.69C429.177 160.153 429.164 160.606 429.155 161.056C429.14 161.956 429.145 162.843 429.161 163.727C429.194 165.494 429.278 167.247 429.411 168.997C429.541 170.747 429.737 172.493 429.974 174.236C430.211 175.979 430.505 177.718 430.856 179.453C431.204 181.188 431.609 182.92 432.076 184.643C432.55 186.365 433.077 188.081 433.68 189.784C434.873 193.191 436.37 196.543 438.19 199.772C438.648 200.578 439.122 201.378 439.623 202.165L440.001 202.758L440.341 203.258L440.427 203.382L440.509 203.493L440.673 203.712C440.898 204.015 441.102 204.255 441.317 204.516L441.627 204.868C441.73 204.984 441.835 205.102 441.934 205.205C442.741 206.067 443.505 206.769 444.254 207.418C445.003 208.064 445.736 208.649 446.464 209.205C447.916 210.315 449.357 211.303 450.793 212.25C452.23 213.193 453.66 214.093 455.1 214.953C456.539 215.813 457.979 216.646 459.422 217.459C460.867 218.268 462.317 219.055 463.77 219.828C465.225 220.598 466.688 221.344 468.154 222.083L470.361 223.181L471.476 223.717L472.621 224.26L478.587 212.97L476.617 211.763L474.617 210.53C473.286 209.704 471.964 208.861 470.648 208.017C469.33 207.177 468.024 206.325 466.731 205.465C465.436 204.61 464.157 203.743 462.901 202.866C461.647 201.987 460.409 201.108 459.219 200.212C458.029 199.32 456.884 198.409 455.833 197.517C455.31 197.07 454.814 196.624 454.371 196.197C453.931 195.771 453.542 195.356 453.275 195.028C453.237 194.984 453.212 194.949 453.185 194.913L453.106 194.808C453.073 194.753 453.02 194.687 453.013 194.662L452.999 194.638C452.997 194.634 452.993 194.629 452.993 194.627L452.996 194.626C453 194.624 453.003 194.625 453.003 194.625L452.755 194.192C452.42 193.612 452.102 193.016 451.795 192.414C450.569 189.999 449.557 187.423 448.719 184.749C447.886 182.073 447.24 179.295 446.75 176.463C446.269 173.631 445.935 170.745 445.76 167.847C445.697 166.87 445.656 165.892 445.63 164.917C442.79 162.753 439.842 160.729 436.86 158.761Z" fill="white"/>
<path d="M474.43 216.068C474.774 216.438 474.754 217.017 474.384 217.36C474.015 217.704 473.436 217.684 473.092 217.315C472.748 216.945 472.768 216.367 473.138 216.023C473.508 215.679 474.086 215.699 474.43 216.068Z" fill="#C9DFF4"/>
<path d="M468.274 221.936C468.162 222.06 467.976 222.102 467.817 222.026C467.622 221.934 467.539 221.701 467.632 221.506C467.662 221.442 470.697 215.067 473.643 210.309C473.756 210.126 473.997 210.069 474.181 210.183C474.364 210.296 474.421 210.537 474.307 210.721C471.384 215.44 468.368 221.777 468.337 221.84C468.32 221.876 468.299 221.908 468.274 221.936Z" fill="#C9DFF4"/>
<path d="M477.238 215.44C477.117 215.574 476.915 215.61 476.753 215.515L472.587 213.094C472.401 212.985 472.338 212.747 472.446 212.56C472.555 212.374 472.794 212.31 472.98 212.419L477.145 214.841C477.332 214.949 477.395 215.188 477.286 215.374C477.272 215.398 477.256 215.42 477.238 215.44Z" fill="#C9DFF4"/>
<path d="M453.598 195.781C453.565 195.818 453.524 195.849 453.477 195.871C450.587 197.252 448.202 199.3 448.178 199.321C448.015 199.462 447.769 199.444 447.628 199.28C447.487 199.117 447.504 198.87 447.668 198.73C447.768 198.643 450.157 196.593 453.14 195.167C453.335 195.074 453.568 195.156 453.661 195.351C453.731 195.498 453.701 195.667 453.598 195.781Z" fill="#C9DFF4"/>
<path d="M453.379 195.716C453.288 195.816 453.149 195.866 453.008 195.836C452.026 195.627 449.521 195.804 449.496 195.806C449.28 195.821 449.094 195.659 449.078 195.444C449.063 195.228 449.224 195.042 449.44 195.026C449.547 195.018 452.081 194.839 453.171 195.072C453.381 195.117 453.516 195.324 453.471 195.535C453.456 195.605 453.424 195.666 453.379 195.716Z" fill="#C9DFF4"/>
<path d="M449.599 228.545C446.401 231.53 441.883 233.983 436.33 235.565C432.078 236.78 427.366 237.468 422.552 237.447C416.222 237.427 411.279 236.321 405.406 233.46C403.632 228.614 400.117 211.184 399.593 206.014C399.489 204.985 399.405 203.955 399.336 202.924C399.009 197.966 399.08 192.97 399.32 187.742C399.333 187.459 399.346 187.174 399.361 186.888C399.572 182.589 399.888 178.13 400.185 173.396C400.776 164.025 403.904 158.251 409.338 157.386C411.865 156.985 413.864 156.273 415.337 155.577C415.517 155.492 415.687 155.409 415.852 155.324C417.605 154.43 418.597 153.626 418.597 153.626L430.219 154.024C431.263 155.545 433.076 156.104 434.491 156.78C434.647 156.853 434.805 156.926 434.965 156.996C439.267 158.852 444.285 158.483 445.319 163.672C445.97 166.929 443.474 173.631 443.735 187.218C443.755 188.216 443.79 189.248 443.84 190.321C443.887 191.323 443.952 192.36 444.031 193.435C444.103 194.431 444.193 195.463 444.299 196.521C444.391 197.448 444.495 198.4 444.613 199.375C444.734 200.376 444.868 201.4 445.021 202.451C445.828 208.097 447.74 221.285 449.599 228.545Z" fill="white"/>
<path d="M427.969 164.329C427.564 164.329 427.154 164.3 426.74 164.244C420.886 163.438 416.211 157.29 416.015 157.028C415.906 156.884 415.936 156.679 416.08 156.57C416.225 156.462 416.429 156.491 416.538 156.635C416.584 156.697 421.248 162.829 426.831 163.596C429.051 163.901 431.142 163.316 433.048 161.857C433.191 161.747 433.397 161.774 433.507 161.918C433.617 162.062 433.589 162.267 433.446 162.377C431.75 163.675 429.912 164.329 427.969 164.329Z" fill="#C9DFF4"/>
<path d="M410.73 157.123C416.563 165.405 417.611 176.89 417.611 176.89C424.405 176.563 437.907 176.468 437.907 176.468C438.517 167.568 435.81 157.123 435.81 157.123C437.029 157.112 439.202 158.359 439.202 158.359C441.729 169.408 440.687 176.562 443.705 192.091C446.722 207.62 449.853 229.659 449.853 229.659L405.439 234.541C403.005 228.876 401.429 220.024 400.013 210.577C400.013 210.577 407.753 199.783 411.922 186.448C416.091 173.112 407.542 157.883 407.542 157.883C408.501 157.323 409.503 156.894 410.73 157.123Z" fill="#002768"/>
<path d="M438.971 212.217C432.281 212.217 426.799 208.87 423.189 205.814C418.662 201.983 416.025 197.766 416 197.724C415.905 197.571 415.952 197.37 416.105 197.274C416.259 197.18 416.46 197.226 416.555 197.38C416.581 197.421 419.173 201.562 423.626 205.327C427.713 208.782 434.253 212.623 442.209 211.293C442.389 211.263 442.556 211.383 442.586 211.561C442.615 211.74 442.495 211.908 442.317 211.938C441.172 212.128 440.055 212.217 438.971 212.217Z" fill="#007DED"/>
<path d="M407.458 229.304C407.309 229.304 407.164 229.221 407.092 229.077C403.529 221.963 401.546 208.887 401.526 208.756C401.493 208.533 401.647 208.325 401.87 208.291C402.093 208.259 402.302 208.412 402.335 208.635C402.355 208.766 404.318 221.713 407.824 228.711C407.925 228.913 407.843 229.159 407.642 229.259C407.583 229.29 407.52 229.304 407.458 229.304Z" fill="#007DED"/>
<path d="M429.495 194.851C426.666 194.851 424.341 193.977 422.577 192.252C419.014 188.766 419 183.092 419 182.853C419.001 182.676 419.142 182.532 419.319 182.528L438.153 182.03C438.156 182.03 438.159 182.03 438.162 182.03C438.318 182.03 438.453 182.14 438.482 182.295C438.529 182.536 439.58 188.236 436.629 191.907C435.123 193.779 432.847 194.768 429.866 194.846C429.741 194.849 429.617 194.851 429.495 194.851ZM419.663 183.172C419.722 184.405 420.135 188.95 423.036 191.786C424.745 193.457 427.034 194.264 429.848 194.192C432.627 194.118 434.737 193.212 436.117 191.498C438.529 188.502 438.051 183.859 437.884 182.69L419.663 183.172Z" fill="#007DED"/>
<path d="M417.322 132.333C417.322 132.333 412.964 140.082 413.733 142.821C414.5 145.56 416.631 144.087 416.631 144.087C416.631 144.087 413.976 148.916 416.826 150.307C418.622 151.184 420.434 147.472 420.434 147.472C420.434 147.472 422.882 134.707 417.322 132.333Z" fill="#6A3649"/>
<path d="M436.541 138.014C436.541 138.014 439.904 144.495 438.501 146.969C437.096 149.442 435.383 147.5 435.383 147.5C435.383 147.5 436.799 152.826 433.698 153.491C431.744 153.91 430.877 149.87 430.877 149.87C430.877 149.87 430.573 138.982 436.541 138.014Z" fill="#6A3649"/>
<path d="M431.354 152.69L430.966 155.87C430.557 156.125 430.149 156.341 429.744 156.522C423.815 159.165 418.358 154.331 418.358 154.331L419.704 143.302L429.965 151.57L431.354 152.69Z" fill="#F2C9AD"/>
<path d="M431.353 152.69L430.965 155.871C430.556 156.126 430.148 156.342 429.743 156.522C425.267 154.086 422.446 148.734 422.446 148.734L429.964 151.57L431.353 152.69Z" fill="#6A3649"/>
<path d="M435.178 126.871C435.178 126.871 442.776 128.533 439.019 136.235C439.019 136.235 434.744 128.951 435.178 126.871Z" fill="#6A3649"/>
<path d="M437.041 139.077C437.041 139.077 439.108 137.163 439.868 139.423C440.629 141.682 439.316 145.907 436.654 144.864L437.041 139.077Z" fill="#EF9F6A"/>
<path d="M438.06 146.799C438.06 146.799 437.266 153.376 430.427 152.526C423.63 151.684 419.649 145.779 419.438 145.503C419.434 145.498 419.432 145.496 419.432 145.496L419.527 144.104L420.016 136.883L420.277 133.023C420.277 133.023 420.252 126.013 426.967 125.555C431.874 125.219 436.272 126.564 438.236 129.343C438.959 130.368 439.351 131.587 439.315 132.99L438.687 139.904L438.533 141.598L438.06 146.799Z" fill="#F2C9AD"/>
<path d="M430.282 137.447C430.212 138.063 429.875 138.53 429.53 138.49C429.185 138.451 428.964 137.919 429.034 137.304C429.105 136.688 429.441 136.221 429.786 136.261C430.131 136.302 430.353 136.832 430.282 137.447Z" fill="#6A3649"/>
<path d="M436.475 138.159C436.405 138.774 436.068 139.242 435.723 139.201C435.378 139.162 435.157 138.63 435.227 138.015C435.298 137.399 435.635 136.932 435.979 136.972C436.324 137.012 436.546 137.543 436.475 138.159Z" fill="#6A3649"/>
<path d="M429.663 139.66C429.604 140.139 428.57 140.407 427.354 140.258C426.138 140.109 425.199 139.601 425.257 139.123C425.316 138.644 426.349 138.376 427.566 138.524C428.783 138.672 429.721 139.181 429.663 139.66Z" fill="#EF9F6A"/>
<path d="M438.532 141.597C438.36 141.593 438.18 141.58 437.998 141.557C436.783 141.408 435.844 140.9 435.902 140.421C435.96 139.942 436.994 139.674 438.21 139.822C438.374 139.842 438.534 139.869 438.686 139.902L438.532 141.597Z" fill="#EF9F6A"/>
<path d="M427.586 134.39C428.203 134.752 429.565 135.212 431.153 133.633C431.346 133.44 431.38 133.137 431.235 132.906C431.053 132.615 430.659 132.539 430.386 132.746C429.907 133.112 429.086 133.526 428.04 133.233C427.713 133.141 427.38 133.361 427.317 133.694L427.302 133.771C427.255 134.018 427.37 134.264 427.586 134.39Z" fill="#6A3649"/>
<path d="M438.523 135.39C437.856 135.65 436.439 135.889 435.122 134.079C434.961 133.859 434.975 133.554 435.155 133.348C435.38 133.089 435.781 133.076 436.018 133.325C436.434 133.762 437.179 134.3 438.258 134.175C438.595 134.137 438.89 134.406 438.9 134.745L438.902 134.824C438.908 135.074 438.756 135.3 438.523 135.39Z" fill="#6A3649"/>
<path d="M433.336 144.248C434.127 144.344 434.993 144.223 435.898 143.73C436.031 143.658 436.079 143.492 436.007 143.361C435.935 143.228 435.77 143.179 435.638 143.251C432.401 145.013 429.66 141.337 429.633 141.299C429.544 141.178 429.373 141.151 429.252 141.24C429.13 141.329 429.104 141.5 429.193 141.621C429.216 141.652 430.933 143.954 433.336 144.248Z" fill="#6A3649"/>
<path d="M421.902 143.096C421.862 143.165 420.751 145.067 419.435 145.503C419.431 145.498 419.428 145.495 419.428 145.495L419.523 144.104C419.523 144.104 420.625 144.052 421.902 143.096Z" fill="#6A3649"/>
<path d="M421.257 138.381C421.257 138.381 419.059 134.528 416.794 137.069C414.927 139.162 417.201 145.489 420.592 143.831L421.257 138.381Z" fill="#F2C9AD"/>
<path d="M420.367 142.722C420.377 142.723 420.387 142.724 420.397 142.724C420.548 142.727 420.672 142.606 420.673 142.456C420.711 139.411 418.31 138.062 418.208 138.007C418.076 137.934 417.911 137.983 417.838 138.115C417.766 138.247 417.814 138.413 417.946 138.485C418.036 138.534 420.162 139.74 420.128 142.449C420.126 142.589 420.231 142.706 420.367 142.722Z" fill="#6A3649"/>
<path d="M418.033 140.774C418.092 140.781 418.155 140.768 418.211 140.734C418.47 140.572 419.24 140.19 419.692 140.367C419.832 140.422 419.99 140.352 420.045 140.212C420.1 140.072 420.031 139.914 419.89 139.859C419.102 139.551 418.04 140.197 417.921 140.273C417.794 140.352 417.755 140.521 417.836 140.648C417.881 140.72 417.954 140.764 418.033 140.774Z" fill="#6A3649"/>
<path d="M432.671 140.712C434.275 140.908 434.952 139.853 434.98 139.808C435.024 139.739 435.034 139.653 435.007 139.575C434.184 137.175 433.354 134.711 433.346 134.686C433.298 134.544 433.143 134.467 433 134.515C432.858 134.563 432.781 134.718 432.829 134.861C432.837 134.885 433.636 137.257 434.443 139.615C434.261 139.824 433.733 140.292 432.737 140.17C432.587 140.152 432.452 140.258 432.433 140.408C432.415 140.557 432.522 140.693 432.671 140.712Z" fill="#6A3649"/>
<path d="M438.235 129.341C438.159 129.566 438.035 129.753 437.863 129.894C436.364 131.127 433.284 130.248 430.481 128.993C427.679 127.74 425.377 129.602 425.377 129.602C425.846 132.489 423.078 132.38 423.403 134.563C423.497 135.186 423.517 135.857 423.498 136.498C423.494 136.711 423.483 136.921 423.469 137.124C423.381 138.449 423.164 139.507 423.164 139.507L421.484 139.073C421.352 138.52 421.077 137.932 420.564 137.401C420.407 137.24 420.23 137.085 420.027 136.938C419.644 136.659 419.173 136.411 418.595 136.21C416.555 136.334 416.946 132.172 418.373 129.013C418.373 129.013 420.251 126.012 426.967 125.554C431.872 125.219 436.272 126.563 438.235 129.341Z" fill="#6A3649"/>
<path d="M417.395 131.742L421.033 129.599L421.504 129.322L422.533 128.715C429.466 126.541 437.668 127.986 437.668 127.986C437.668 127.986 436.766 121.759 429.035 120.556C426.234 120.12 423.876 120.506 422.026 121.386C421.707 121.537 421.404 121.702 421.115 121.883C419.403 122.946 418.237 124.469 417.689 126.095C416.515 129.581 417.395 131.742 417.395 131.742Z" fill="#002768"/>
<path d="M421.032 129.599L421.503 129.322C420.386 127.809 420.178 125.957 420.887 123.803C421.201 122.843 421.65 121.999 422.026 121.386C421.706 121.537 421.403 121.703 421.115 121.883C420.848 122.393 420.582 122.985 420.369 123.633C419.617 125.916 419.85 127.953 421.032 129.599Z" fill="#007DED"/>
<path d="M432.408 122.462C432.408 122.462 429.685 121.13 425.646 122.474L426.016 124.683C426.016 124.683 429.814 123.865 432.41 124.219L432.408 122.462Z" fill="#007DED"/>
<path d="M440.043 131.912C440.043 131.912 449.626 127.921 445.61 123.623C441.594 119.324 430.258 121.202 422.529 128.714C422.529 128.714 439.525 125.553 440.043 131.912Z" fill="#007DED"/>
<path d="M445.666 165.246C445.654 165.354 444.811 173.732 444.46 180.838C444.413 180.804 444.367 180.771 444.319 180.737C444.115 180.588 443.91 180.439 443.706 180.288C444.071 173.27 444.877 165.274 444.888 165.167C444.909 164.951 445.1 164.796 445.315 164.817C445.53 164.841 445.687 165.032 445.666 165.246Z" fill="#C9DFF4"/>
<path d="M388.725 352.958L388.056 362.374L397.725 362.557L398.257 353.722L388.725 352.958Z" fill="#F2C9AD"/>
<path d="M427.583 245.053L427.005 246.613L408.161 297.352C408.161 318.315 398.684 356.132 398.684 356.132L387.328 355.592L390.443 296.46L390.486 295.649C390.504 295.576 390.522 295.502 390.542 295.427C393.455 283.78 399.513 254.686 403.638 240.653C403.754 240.257 403.865 239.876 403.975 239.508C404.331 238.297 404.643 237.237 404.902 236.357C405.119 235.619 405.299 235.007 405.438 234.54C405.438 234.539 405.439 234.537 405.439 234.536C405.645 233.838 405.757 233.46 405.757 233.46L408.942 235.152L409.858 235.638L414.04 237.859L427.583 245.053Z" fill="#002768"/>
<path d="M396.462 295.742C394.951 296.345 393.41 296.546 392.029 296.546C391.468 296.546 390.933 296.512 390.437 296.461L390.48 295.65C390.499 295.576 390.516 295.504 390.536 295.428C391.008 295.478 391.519 295.51 392.053 295.51C393.323 295.51 394.726 295.33 396.084 294.789C396.347 294.684 396.646 294.813 396.749 295.075C396.855 295.339 396.726 295.638 396.462 295.742Z" fill="#007DED"/>
<path d="M399.908 373.281C399.908 373.357 399.907 373.429 399.904 373.501C399.897 373.835 399.883 374.134 399.869 374.391C399.835 374.956 399.793 375.304 399.793 375.304H381.025C381.025 375.304 380.932 374.578 381.003 373.501C381.126 371.583 381.763 368.554 384.355 366.553C387.903 363.809 386.533 364.381 387.261 363.131C387.343 362.992 387.981 360.867 388.049 360.721C388.66 359.423 389.222 358.809 392.584 358.809C397.044 358.809 397.436 360.973 397.913 362.113C398.109 362.586 398.378 363.58 398.655 364.762C398.767 365.237 398.879 365.743 398.99 366.259C399.265 367.552 399.522 368.903 399.697 369.98C399.883 371.133 399.923 372.322 399.908 373.281Z" fill="#3E4870"/>
<path d="M399.912 373.281C399.912 373.357 399.91 373.429 399.908 373.501C399.901 373.835 399.886 374.134 399.872 374.391C398.957 373.749 398.304 372.901 397.922 371.863C396.761 368.7 398.547 364.904 398.622 364.744L398.659 364.762C398.771 365.236 398.884 365.742 398.994 366.258C398.571 367.55 398.085 369.721 398.761 371.558C399.008 372.227 399.393 372.803 399.912 373.281Z" fill="#007DED"/>
<path d="M399.904 373.501C399.879 374.569 399.793 375.304 399.793 375.304H381.025C381.025 375.304 380.932 374.578 381.003 373.501H399.904Z" fill="#007DED"/>
<path d="M393.21 364.66C393.166 364.66 393.121 364.654 393.076 364.643C390.689 364.024 388.744 364.547 388.725 364.553C388.44 364.632 388.145 364.464 388.066 364.179C387.987 363.894 388.155 363.6 388.44 363.521C388.53 363.496 390.683 362.917 393.344 363.606C393.631 363.68 393.802 363.972 393.728 364.258C393.666 364.499 393.449 364.66 393.21 364.66Z" fill="#007DED"/>
<path d="M393.516 362.497C393.472 362.497 393.426 362.491 393.382 362.479C390.994 361.861 389.05 362.384 389.031 362.39C388.746 362.469 388.451 362.301 388.372 362.016C388.293 361.731 388.461 361.437 388.746 361.358C388.835 361.333 390.989 360.754 393.65 361.443C393.937 361.517 394.108 361.809 394.034 362.095C393.972 362.337 393.755 362.497 393.516 362.497Z" fill="#007DED"/>
<path d="M392.413 366.354C392.369 366.354 392.323 366.349 392.278 366.337C389.906 365.723 387.946 366.243 387.926 366.248C387.641 366.327 387.348 366.158 387.269 365.874C387.191 365.59 387.358 365.295 387.643 365.216C387.733 365.192 389.886 364.612 392.547 365.302C392.833 365.376 393.005 365.668 392.932 365.954C392.869 366.195 392.652 366.354 392.413 366.354Z" fill="#007DED"/>
<path d="M391.468 368.283C391.424 368.283 391.379 368.277 391.334 368.266C388.962 367.651 387.001 368.171 386.982 368.176C386.697 368.254 386.402 368.086 386.324 367.802C386.246 367.516 386.412 367.223 386.697 367.144C386.787 367.119 388.94 366.54 391.602 367.229C391.888 367.303 392.06 367.596 391.986 367.881C391.924 368.122 391.706 368.283 391.468 368.283Z" fill="#007DED"/>
<path d="M397.493 355.927C397.46 355.927 397.426 355.924 397.391 355.917C397.113 355.861 396.933 355.59 396.989 355.312C397.038 355.065 401.969 330.567 403.321 323.034C404.667 315.532 405.234 295.844 405.239 295.646C405.241 295.579 405.256 295.513 405.284 295.451C408.485 288.291 423.129 248.23 423.277 247.827C423.374 247.56 423.669 247.423 423.936 247.521C424.202 247.618 424.339 247.913 424.242 248.179C424.094 248.582 409.561 288.339 406.263 295.776C406.217 297.328 405.642 315.92 404.333 323.214C402.979 330.759 398.045 355.268 397.996 355.514C397.947 355.759 397.732 355.927 397.493 355.927Z" fill="#007DED"/>
<path d="M428.624 352.958L428.794 362.391L437.623 362.557L437.673 353.683L428.624 352.958Z" fill="#F2C9AD"/>
<path d="M458.312 375.606L426.805 375.269C426.575 374.841 426.454 374.236 426.409 373.516C426.241 370.848 427.136 366.604 427.581 363.927C427.635 363.615 427.681 363.322 427.718 363.058C427.781 362.61 427.821 362.237 427.823 361.964C427.846 359.775 429.78 360.171 429.78 360.171C432.934 363.332 436.595 358.681 438.686 360.242C438.686 360.242 439.587 360.903 442.065 363.18C444.54 365.457 448.779 366.988 452.385 368.542C457.039 370.546 458.344 372.513 458.588 373.86C458.783 374.927 458.312 375.606 458.312 375.606Z" fill="#3E4870"/>
<path d="M458.317 375.606L426.81 375.269C426.58 374.841 426.459 374.236 426.414 373.515L458.594 373.859C458.788 374.927 458.317 375.606 458.317 375.606Z" fill="#007DED"/>
<path d="M430.024 375.304L429.088 375.294C430.033 374.236 430.925 372.609 430.835 370.267C430.717 367.152 428.872 365.034 427.586 363.926C427.64 363.614 427.686 363.321 427.723 363.057C429.11 364.141 431.443 366.506 431.587 370.236C431.671 372.475 430.919 374.134 430.024 375.304Z" fill="#007DED"/>
<path d="M441.52 365.032C441.287 365.03 441.077 364.869 441.02 364.632C440.954 364.353 441.126 364.074 441.406 364.007L443.379 363.539C443.658 363.473 443.938 363.645 444.004 363.924C444.07 364.203 443.897 364.483 443.619 364.549L441.645 365.017C441.604 365.028 441.561 365.033 441.52 365.032Z" fill="#007DED"/>
<path d="M439.355 363.31C439.122 363.308 438.912 363.147 438.857 362.91C438.79 362.631 438.963 362.352 439.242 362.285L441.215 361.817C441.494 361.751 441.774 361.923 441.841 362.203C441.906 362.482 441.734 362.762 441.455 362.828L439.482 363.296C439.439 363.306 439.397 363.311 439.355 363.31Z" fill="#007DED"/>
<path d="M443.472 366.197C443.239 366.195 443.029 366.035 442.973 365.797C442.906 365.519 443.079 365.239 443.359 365.172L445.332 364.705C445.611 364.639 445.89 364.811 445.957 365.09C446.023 365.369 445.851 365.649 445.571 365.715L443.598 366.182C443.556 366.193 443.514 366.198 443.472 366.197Z" fill="#007DED"/>
<path d="M445.426 367.318C445.193 367.316 444.983 367.156 444.927 366.919C444.861 366.64 445.034 366.36 445.313 366.293L447.286 365.826C447.565 365.76 447.844 365.932 447.911 366.212C447.977 366.491 447.805 366.771 447.525 366.836L445.552 367.304C445.509 367.314 445.467 367.319 445.426 367.318Z" fill="#007DED"/>
<path d="M447.565 368.359C447.332 368.356 447.122 368.196 447.065 367.959C446.999 367.68 447.172 367.4 447.451 367.334L449.424 366.867C449.703 366.801 449.982 366.973 450.049 367.252C450.115 367.53 449.943 367.81 449.663 367.877L447.69 368.345C447.648 368.354 447.607 368.359 447.565 368.359Z" fill="#007DED"/>
<path d="M449.879 369.25C449.646 369.248 449.436 369.088 449.379 368.85C449.313 368.572 449.486 368.292 449.765 368.225L451.738 367.757C452.017 367.691 452.296 367.864 452.363 368.143C452.43 368.422 452.257 368.702 451.977 368.768L450.004 369.236C449.962 369.246 449.921 369.251 449.879 369.25Z" fill="#007DED"/>
<path d="M451.187 238.252C451.184 238.572 451.181 238.887 451.179 239.206C451.174 239.954 451.166 240.7 451.159 241.444C451.154 241.829 451.15 242.214 451.144 242.598C451.144 242.652 451.144 242.703 451.142 242.755C451.141 243.11 451.136 243.463 451.132 243.816C450.855 266.888 450.044 287.973 448.384 303.104V303.111L448.199 304.148L438.908 356.473L426.95 355.463C426.95 355.463 427.383 314.031 430.017 304.577L429.968 246.581L429.963 238.233L446.079 239.929L447.084 239.599L447.677 239.405L448.66 239.082L451.187 238.252Z" fill="#002768"/>
<path d="M448.382 303.103V303.11L448.198 304.147C448.011 304.156 447.827 304.16 447.643 304.16C443.75 304.16 440.481 302.252 440.309 302.15C440.065 302.005 439.984 301.692 440.13 301.448C440.275 301.203 440.59 301.124 440.834 301.267C440.891 301.302 444.452 303.369 448.382 303.103Z" fill="#007DED"/>
<path d="M429.298 352.216C429.318 352.219 429.339 352.22 429.36 352.219C429.635 352.217 429.858 351.992 429.855 351.716C429.577 316.783 433.954 302.941 433.998 302.805C434.015 302.752 434.024 302.697 434.023 302.642L433.149 247.237C433.145 246.96 432.917 246.739 432.642 246.745C432.366 246.749 432.145 246.976 432.15 247.252L433.022 302.579C432.656 303.786 428.587 317.999 428.855 351.724C428.858 351.979 429.05 352.188 429.298 352.216Z" fill="#007DED"/>
<path d="M450.234 241.014C446.622 243.426 438.394 245.388 430.064 246.318C429.044 246.433 428.02 246.531 427.004 246.613C417.339 247.398 408.284 246.683 407.009 243.557C406.85 243.168 406.705 242.76 406.572 242.334C406.569 242.322 406.567 242.309 406.562 242.298C406.466 241.986 406.378 241.665 406.297 241.337C406.15 240.748 406.027 240.138 405.921 239.515C405.859 239.15 405.803 238.78 405.756 238.411C405.679 237.834 405.618 237.251 405.567 236.669C405.563 236.613 405.557 236.56 405.554 236.504C405.5 235.843 405.463 235.186 405.436 234.542C405.36 232.618 405.394 230.81 405.456 229.389C405.536 227.585 405.66 226.406 405.66 226.406L446.399 217.857C446.399 217.857 447.662 221.511 448.885 225.926C449.283 227.364 449.675 228.883 450.02 230.383C450.504 232.495 450.892 234.572 451.055 236.332C451.089 236.706 451.114 237.07 451.127 237.414C451.197 239.205 450.957 240.531 450.234 241.014Z" fill="#002768"/>
<path d="M451.129 237.412C451.085 237.402 451.047 237.39 451.017 237.379C450.275 237.127 449.567 236.783 448.891 236.347C448.71 236.231 448.536 236.11 448.364 235.984C447.713 235.509 447.126 234.968 446.599 234.388C443.302 230.771 442.316 225.665 442.269 225.407C442.218 225.136 442.397 224.876 442.668 224.825C442.942 224.774 443.202 224.954 443.252 225.224C443.264 225.286 444.27 230.508 447.561 233.946C448.045 234.455 448.582 234.924 449.17 235.333C449.257 235.392 449.343 235.45 449.431 235.508C449.951 235.841 450.494 236.115 451.058 236.329C451.092 236.705 451.116 237.067 451.129 237.412Z" fill="#007DED"/>
<path d="M412.192 230.337C412.143 230.516 411.434 233.089 409.857 235.639C408.897 237.195 407.612 238.742 405.961 239.732C405.77 239.848 405.575 239.955 405.374 240.054C404.813 240.333 404.233 240.532 403.638 240.655C403.754 240.259 403.865 239.878 403.974 239.51C404.297 239.412 404.614 239.287 404.923 239.133C405.223 238.985 405.511 238.814 405.788 238.627C407.086 237.745 408.13 236.461 408.942 235.154C410.482 232.674 411.187 230.112 411.2 230.069C411.275 229.798 411.556 229.634 411.829 229.708C412.103 229.782 412.266 230.064 412.192 230.337Z" fill="#007DED"/>
<path d="M434.121 244.151C434.132 244.371 433.955 244.56 433.727 244.572C433.726 244.572 433.726 244.572 433.724 244.572C433.495 244.584 433.3 244.413 433.289 244.191C433.215 242.684 433.127 241.142 433.03 239.601C433.013 239.33 432.996 239.059 432.977 238.788C432.65 233.753 432.234 228.809 431.92 225.32C431.894 225.038 431.87 224.763 431.846 224.501C431.776 223.735 431.712 223.056 431.658 222.48C431.934 222.438 432.21 222.393 432.483 222.347C432.537 222.922 432.601 223.608 432.671 224.381C432.696 224.644 432.72 224.918 432.746 225.2C433.056 228.66 433.47 233.56 433.797 238.565C433.816 238.841 433.833 239.119 433.852 239.394C433.952 240.991 434.044 242.592 434.121 244.151Z" fill="#007DED"/>
<path d="M435.308 238.837C435.178 238.899 434.595 239.17 433.853 239.394C433.593 239.474 433.315 239.546 433.03 239.602C432.769 239.652 432.504 239.69 432.241 239.704C431.737 239.733 431.251 239.68 430.844 239.485C430.338 239.243 430.01 238.803 429.896 238.213C429.593 236.66 428.957 230.246 428.529 225.709C428.502 225.43 428.477 225.158 428.452 224.894C428.384 224.168 428.323 223.508 428.272 222.947C428.547 222.913 428.824 222.88 429.1 222.844C429.152 223.408 429.213 224.075 429.283 224.811C429.308 225.074 429.333 225.347 429.359 225.627C429.788 230.153 430.422 236.557 430.715 238.063C430.781 238.41 430.941 238.633 431.217 238.765C431.658 238.975 432.32 238.932 432.977 238.789C433.258 238.728 433.537 238.649 433.798 238.566C434.274 238.411 434.69 238.236 434.94 238.118C435.146 238.019 435.397 238.1 435.498 238.299C435.6 238.497 435.514 238.738 435.308 238.837Z" fill="#007DED"/>
<path d="M412.845 247.706C413.33 249.943 411.908 252.148 409.673 252.632C407.436 253.117 405.229 251.698 404.744 249.461C404.259 247.225 405.681 245.016 407.917 244.532C410.154 244.047 412.361 245.469 412.845 247.706Z" fill="#21255C"/>
<path d="M440.558 241.71L433.441 243.252L459.546 363.762L466.663 362.22L440.558 241.71Z" fill="#21255C"/>
<path d="M532.368 338.738L459.471 354.528L461.385 363.363L534.282 347.573L532.368 338.738Z" fill="#21255C"/>
<path d="M487.761 364.583C489.023 370.411 485.322 376.159 479.493 377.422C473.665 378.685 467.915 374.984 466.652 369.156C465.39 363.327 469.092 357.579 474.92 356.316C480.749 355.053 486.498 358.754 487.761 364.583Z" fill="#495375"/>
<path d="M481.992 365.832C482.566 368.477 480.885 371.084 478.244 371.656C475.601 372.229 472.995 370.551 472.422 367.906C471.849 365.262 473.527 362.658 476.171 362.086C478.811 361.513 481.419 363.188 481.992 365.832Z" fill="#F4D071"/>
<path d="M534.274 354.505C535.537 360.334 531.834 366.082 526.006 367.345C520.177 368.608 514.427 364.908 513.165 359.079C511.902 353.25 515.604 347.502 521.433 346.239C527.261 344.977 533.012 348.676 534.274 354.505Z" fill="#495375"/>
<path d="M528.505 355.755C529.078 358.4 527.399 361.007 524.757 361.579C522.112 362.153 519.506 360.474 518.933 357.83C518.36 355.185 520.039 352.582 522.684 352.009C525.326 351.436 527.932 353.111 528.505 355.755Z" fill="#F4D071"/>
<path d="M439.682 237.657L407.897 244.542L409.652 252.642L441.436 245.757L439.682 237.657Z" fill="#21255C"/>
<path d="M537.771 342.186C538.299 344.624 536.751 347.032 534.31 347.56C531.872 348.089 529.463 346.539 528.934 344.1C528.406 341.661 529.958 339.253 532.396 338.724C534.836 338.196 537.243 339.747 537.771 342.186Z" fill="#21255C"/>
<path d="M522.054 275.634L470.982 286.697L484.5 349.107L535.573 338.043L522.054 275.634Z" fill="#F4D071"/>
<path d="M504.206 279.5L493.084 281.909L497.315 301.443L508.437 299.033L504.206 279.5Z" fill="#FBEED1"/>
<path d="M470.98 286.697L450.846 291.059L464.365 353.468L484.499 349.106L470.98 286.697Z" fill="#ECA85E"/>
<path d="M513.779 237.427L474.766 245.877L483.267 285.122L522.28 276.671L513.779 237.427Z" fill="#F4D071"/>
<path d="M501.598 240.064L490.476 242.473L494.707 262.007L505.829 259.598L501.598 240.064Z" fill="#FBEED1"/>
<path d="M474.766 245.877L442.571 252.851L451.072 292.096L483.267 285.122L474.766 245.877Z" fill="#ECA85E"/>
<path d="M446.368 252.334L478.013 245.479L471.117 213.646L439.472 220.501L446.368 252.334Z" fill="#F4D071"/>
<path d="M452.786 234.202L461.808 232.248L458.375 216.404L449.354 218.358L452.786 234.202Z" fill="#FBEED1"/>
<path d="M497.191 208.006L471.076 213.663L477.972 245.496L504.087 239.839L497.191 208.006Z" fill="#ECA85E"/>
<path d="M417.604 234.819C417.604 234.819 422.122 236.599 423.865 238.61C425.607 240.621 424.027 242.37 424.027 242.37C424.027 242.37 426.949 246.408 426.43 247.921C425.91 249.434 424.363 249.028 424.363 249.028C424.363 249.028 424.513 250.177 423.872 250.663C423.23 251.15 421.734 250.551 421.734 250.551C421.734 250.551 421.567 252.104 420.772 252.483C419.977 252.861 418.848 252.189 418.848 252.189C418.848 252.189 417.854 254.166 416.557 253.595C413.576 252.284 408.336 241.615 408.336 241.615C408.336 241.615 413.29 236.517 417.604 234.819Z" fill="#F2C9AD"/>
<path d="M423.942 242.362C423.835 242.397 423.712 242.372 423.627 242.288C422.148 240.839 420.486 239.064 420.469 239.046C420.351 238.92 420.357 238.723 420.484 238.605C420.61 238.487 420.808 238.493 420.925 238.62C420.942 238.637 422.595 240.402 424.064 241.841C424.187 241.962 424.19 242.16 424.069 242.283C424.032 242.32 423.988 242.346 423.942 242.362Z" fill="#EF9F6A"/>
<path d="M409.749 167.185L403.481 162.877L403.227 163.255L403.024 163.566L402.644 164.162C402.397 164.554 402.16 164.94 401.928 165.325C401.465 166.097 401.027 166.869 400.599 167.642C399.745 169.19 398.942 170.75 398.183 172.333C397.422 173.914 396.72 175.524 396.054 177.152C395.389 178.781 394.775 180.434 394.212 182.112C393.647 183.79 393.134 185.492 392.677 187.218C392.227 188.947 391.827 190.696 391.499 192.473C390.83 196.02 390.453 199.672 390.416 203.379C390.41 204.306 390.422 205.235 390.462 206.168L390.493 206.871L390.536 207.473L390.55 207.624L390.565 207.761L390.598 208.032C390.641 208.407 390.698 208.718 390.755 209.051L390.847 209.511C390.878 209.663 390.911 209.818 390.945 209.955C391.213 211.106 391.524 212.095 391.849 213.032C392.176 213.965 392.519 214.837 392.871 215.683C393.575 217.37 394.329 218.946 395.101 220.483C395.875 222.018 396.664 223.511 397.482 224.976C398.299 226.441 399.13 227.881 399.974 229.307C400.822 230.73 401.685 232.135 402.558 233.53C403.433 234.924 404.328 236.301 405.23 237.674L406.593 239.727L407.291 240.749L408.011 241.792L418.82 234.992L417.716 232.962L416.599 230.895C415.858 229.513 415.134 228.123 414.416 226.735C413.694 225.348 412.988 223.958 412.298 222.567C411.603 221.179 410.927 219.789 410.279 218.402C409.631 217.014 408.998 215.635 408.415 214.264C407.83 212.896 407.293 211.536 406.828 210.237C406.598 209.589 406.391 208.955 406.222 208.364C406.053 207.775 405.923 207.221 405.856 206.803C405.845 206.747 405.842 206.703 405.836 206.659L405.819 206.528C405.818 206.465 405.805 206.38 405.812 206.356V206.328C405.812 206.325 405.811 206.318 405.812 206.316L405.815 206.317C405.819 206.318 405.821 206.318 405.821 206.32L405.822 205.82C405.822 205.15 405.845 204.476 405.879 203.801C406.023 201.096 406.433 198.359 407.044 195.624C407.658 192.89 408.486 190.16 409.476 187.464C410.474 184.77 411.627 182.102 412.923 179.504C413.357 178.627 411.915 177.859 412.38 177.003C410.998 173.707 411.35 170.38 409.749 167.185Z" fill="white"/>
<path d="M413.671 235.597C413.785 236.089 413.478 236.58 412.986 236.694C412.494 236.808 412.003 236.501 411.889 236.008C411.775 235.516 412.082 235.025 412.574 234.911C413.067 234.798 413.557 235.105 413.671 235.597Z" fill="#C9DFF4"/>
<path d="M405.409 237.606C405.249 237.658 405.068 237.601 404.968 237.456C404.846 237.279 404.89 237.036 405.067 236.913C405.125 236.873 410.939 232.865 415.868 230.216C416.057 230.114 416.295 230.185 416.397 230.376C416.499 230.565 416.428 230.803 416.238 230.905C411.348 233.533 405.57 237.516 405.512 237.556C405.479 237.578 405.445 237.595 405.409 237.606Z" fill="#C9DFF4"/>
<path d="M416.418 236.454C416.246 236.51 416.053 236.44 415.96 236.277L413.56 232.099C413.453 231.911 413.518 231.672 413.705 231.566C413.892 231.459 414.131 231.523 414.238 231.71L416.637 235.888C416.744 236.075 416.679 236.314 416.493 236.421C416.469 236.436 416.444 236.447 416.418 236.454Z" fill="#C9DFF4"/>
<path d="M405.76 207.617C405.712 207.632 405.662 207.638 405.61 207.635C402.416 207.387 399.328 207.97 399.297 207.976C399.085 208.016 398.88 207.878 398.84 207.666C398.799 207.455 398.938 207.249 399.149 207.209C399.28 207.185 402.373 206.601 405.67 206.856C405.884 206.873 406.046 207.061 406.029 207.276C406.017 207.438 405.906 207.57 405.76 207.617Z" fill="#C9DFF4"/>
<path d="M405.598 207.448C405.47 207.489 405.324 207.463 405.216 207.366C404.47 206.695 402.212 205.597 402.189 205.586C401.994 205.492 401.914 205.259 402.008 205.065C402.101 204.87 402.335 204.789 402.53 204.884C402.627 204.931 404.911 206.041 405.739 206.786C405.9 206.93 405.913 207.177 405.768 207.338C405.721 207.391 405.662 207.428 405.598 207.448Z" fill="#C9DFF4"/>
<path d="M27.7032 376.583H553.296" stroke="#59595B" stroke-width="3.09867" stroke-miterlimit="10" stroke-linecap="round"/>
</g>
<defs>
<clipPath id="clip0_0_435">
<rect width="581" height="387.333" fill="white"/>
</clipPath>
</defs>
</svg>
