<svg xmlns="http://www.w3.org/2000/svg" width="19" height="18" viewBox="0 0 19 18" fill="none">
  <path fill-rule="evenodd" clip-rule="evenodd" d="M15.8977 3.39775C16.1174 3.17808 16.1174 2.82192 15.8977 2.60225C15.6781 2.38258 15.3219 2.38258 15.1023 2.60225L3.10225 14.6023C2.88258 14.8219 2.88258 15.1781 3.10225 15.3977C3.32192 15.6174 3.67808 15.6174 3.89775 15.3977L6.17401 13.1215C7.16237 13.5774 8.29389 13.875 9.5 13.875C11.4633 13.875 13.229 13.0865 14.5013 12.11C15.1383 11.6211 15.6609 11.0782 16.0276 10.5497C16.3874 10.0314 16.625 9.48635 16.625 9C16.625 8.51365 16.3874 7.96861 16.0276 7.45026C15.6609 6.92185 15.1383 6.37889 14.5013 5.89002C14.2983 5.73425 14.0828 5.58327 13.856 5.43951L15.8977 3.39775ZM11.8465 7.44897L11.023 8.27245C11.1285 8.49275 11.1875 8.73948 11.1875 9C11.1875 9.93198 10.432 10.6875 9.5 10.6875C9.23948 10.6875 8.99275 10.6285 8.77245 10.523L7.94897 11.3465C8.39359 11.641 8.92677 11.8125 9.5 11.8125C11.0533 11.8125 12.3125 10.5533 12.3125 9C12.3125 8.42677 12.141 7.89359 11.8465 7.44897Z" fill="#1D1D21" fill-opacity="0.25"/>
  <path d="M9.96823 6.2263C10.0522 6.24037 10.1388 6.21575 10.199 6.15555L11.5645 4.79005C11.6968 4.65769 11.6418 4.43298 11.4609 4.38497C10.8393 4.22003 10.1816 4.125 9.5 4.125C7.53667 4.125 5.77101 4.91354 4.49871 5.89002C3.86174 6.37889 3.33908 6.92185 2.97237 7.45026C2.61265 7.96861 2.375 8.51365 2.375 9C2.375 9.48635 2.61265 10.0314 2.97237 10.5497C3.27661 10.9881 3.6882 11.4366 4.18336 11.8558C4.28066 11.9382 4.42451 11.93 4.51466 11.8399L6.65555 9.69896C6.71575 9.63876 6.74037 9.55219 6.7263 9.46823C6.70078 9.31595 6.6875 9.15953 6.6875 9C6.6875 7.4467 7.9467 6.1875 9.5 6.1875C9.65953 6.1875 9.81595 6.20078 9.96823 6.2263Z" fill="#1D1D21" fill-opacity="0.25"/>
</svg>