<svg xmlns="http://www.w3.org/2000/svg" width="44" height="52" viewBox="0 0 44 52" fill="none">
  <path d="M10.5876 15.9152V30.4925C10.5876 31.1763 10.7221 31.6532 10.9911 31.9232C11.2781 32.1931 11.6547 32.3281 12.121 32.3281C12.5873 32.3281 12.9549 32.1931 13.224 31.9232C13.5109 31.6532 13.6544 31.1763 13.6544 30.4925V15.9152H16.4522V30.3035C16.4522 31.8332 16.0756 33.012 15.3223 33.8398C14.587 34.6497 13.493 35.0546 12.0403 35.0546C10.5876 35.0546 9.48459 34.6497 8.73134 33.8398C7.99602 33.012 7.62836 31.8332 7.62836 30.3035V15.9152H10.5876Z" fill="#002768"/>
  <path d="M18.105 20.4503C18.105 18.9206 18.4637 17.7508 19.1811 16.941C19.9164 16.1131 21.0104 15.6992 22.4631 15.6992C23.9158 15.6992 25.0009 16.1131 25.7183 16.941C26.4536 17.7508 26.8212 18.9206 26.8212 20.4503V21.0442H24.0234V20.2614C24.0234 19.5775 23.8889 19.1006 23.6199 18.8306C23.3688 18.5427 23.0101 18.3987 22.5438 18.3987C22.0775 18.3987 21.7099 18.5427 21.4408 18.8306C21.1898 19.1006 21.0642 19.5775 21.0642 20.2614C21.0642 20.9092 21.2077 21.4851 21.4946 21.989C21.7816 22.475 22.1403 22.9429 22.5707 23.3928C23.0012 23.8247 23.4585 24.2656 23.9427 24.7155C24.4449 25.1475 24.9112 25.6244 25.3416 26.1463C25.7721 26.6682 26.1308 27.2621 26.4177 27.9279C26.7047 28.5938 26.8481 29.3767 26.8481 30.2765C26.8481 31.8062 26.4715 32.985 25.7183 33.8128C24.9829 34.6227 23.8889 35.0276 22.4362 35.0276C20.9835 35.0276 19.8805 34.6227 19.1273 33.8128C18.392 32.985 18.0243 31.8062 18.0243 30.2765V29.1157H20.8221V30.4655C20.8221 31.1493 20.9566 31.6262 21.2256 31.8962C21.5126 32.1661 21.8892 32.3011 22.3555 32.3011C22.8218 32.3011 23.1895 32.1661 23.4585 31.8962C23.7454 31.6262 23.8889 31.1493 23.8889 30.4655C23.8889 29.8176 23.7454 29.2507 23.4585 28.7648C23.1715 28.2609 22.8128 27.793 22.3824 27.361C21.952 26.9111 21.4857 26.4702 20.9835 26.0383C20.4993 25.5884 20.0419 25.1025 19.6115 24.5806C19.1811 24.0587 18.8224 23.4648 18.5354 22.7989C18.2485 22.133 18.105 21.3502 18.105 20.4503Z" fill="#002768"/>
  <path d="M28.5436 15.9152H31.5028V32.1122H36.3721V34.8117H28.5436V15.9152Z" fill="#002768"/>
  <path d="M20.3965 49.2904C20.9097 49.5777 21.1665 49.7213 21.5225 49.7957C21.8 49.8537 22.2 49.8537 22.4775 49.7957C22.8335 49.7213 23.0903 49.5777 23.6035 49.2904C28.35 46.6348 42 37.956 42 25.9794V15.825C42 13.6786 42 12.6054 41.673 11.6828C41.3842 10.8679 40.915 10.1407 40.3057 9.56413C39.6162 8.91151 38.6805 8.53469 36.809 7.78102L23.4045 2.38304C22.8848 2.17374 22.625 2.06909 22.3575 2.02759C22.1205 1.9908 21.8795 1.9908 21.6425 2.02759C21.375 2.06909 21.1152 2.17374 20.5955 2.38304L7.191 7.78102C5.3195 8.53469 4.38375 8.91151 3.69415 9.56413C3.08495 10.1407 2.61568 10.8679 2.3269 11.6828C2 12.6054 2 13.6786 2 15.825V25.9794C2 37.956 15.6499 46.6348 20.3965 49.2904Z" stroke="#BE0B31" stroke-width="3.01508" stroke-linecap="round" stroke-linejoin="round"/>
  <path d="M35.3733 12.93C35.8183 13.3511 36.1611 13.8824 36.3721 14.4777H7.62836C7.83932 13.8824 8.18214 13.3511 8.62718 12.93C9.13094 12.4532 9.81451 12.178 11.1816 11.6274L11.1818 11.6274L20.9742 7.68411L20.9751 7.68376C21.3542 7.5311 21.5438 7.45474 21.7391 7.42445C21.9122 7.39758 22.0883 7.39758 22.2614 7.42445C22.4567 7.45474 22.6463 7.5311 23.0254 7.68376L23.0263 7.68411L32.8187 11.6274L32.8189 11.6275C34.186 12.178 34.8696 12.4532 35.3733 12.93Z" fill="#002768"/>
  <path d="M21.8724 36.6969C21.9125 36.5735 22.0872 36.5735 22.1273 36.6969L22.8798 39.0131C22.8978 39.0683 22.9492 39.1057 23.0073 39.1057H25.4426C25.5724 39.1057 25.6264 39.2718 25.5214 39.3481L23.5512 40.7795C23.5042 40.8136 23.4845 40.8741 23.5025 40.9293L24.255 43.2455C24.2951 43.3689 24.1538 43.4716 24.0488 43.3953L22.0786 41.9639C22.0316 41.9297 21.968 41.9297 21.9211 41.9639L19.9508 43.3953C19.8458 43.4716 19.7045 43.3689 19.7446 43.2455L20.4972 40.9293C20.5151 40.8741 20.4955 40.8136 20.4485 40.7795L18.4783 39.3481C18.3733 39.2718 18.4272 39.1057 18.557 39.1057H20.9924C21.0504 39.1057 21.1019 39.0683 21.1198 39.0131L21.8724 36.6969Z" fill="#BE0B31"/>
  <path d="M21.9363 8.56135C21.9563 8.49962 22.0437 8.49962 22.0637 8.56135L22.2181 9.03654C22.2271 9.06415 22.2528 9.08284 22.2819 9.08284H22.7815C22.8464 9.08284 22.8734 9.16589 22.8209 9.20405L22.4167 9.49773C22.3932 9.51479 22.3834 9.54503 22.3923 9.57264L22.5467 10.0478C22.5668 10.1096 22.4961 10.1609 22.4436 10.1227L22.0394 9.82906C22.0159 9.81199 21.9841 9.81199 21.9606 9.82906L21.5564 10.1227C21.5039 10.1609 21.4332 10.1096 21.4533 10.0478L21.6077 9.57264C21.6167 9.54503 21.6068 9.51479 21.5834 9.49773L21.1791 9.20405C21.1266 9.16589 21.1536 9.08284 21.2185 9.08284H21.7182C21.7472 9.08284 21.7729 9.06415 21.7819 9.03654L21.9363 8.56135Z" fill="white"/>
  <path d="M19.1224 10.1024C19.1425 10.0406 19.2298 10.0406 19.2499 10.1024L19.4043 10.5776C19.4133 10.6052 19.439 10.6239 19.468 10.6239H19.9677C20.0326 10.6239 20.0595 10.7069 20.007 10.7451L19.6028 11.0387C19.5793 11.0558 19.5695 11.086 19.5785 11.1137L19.7329 11.5888C19.7529 11.6506 19.6823 11.7019 19.6298 11.6638L19.2256 11.3701C19.2021 11.353 19.1703 11.353 19.1468 11.3701L18.7426 11.6638C18.6901 11.7019 18.6194 11.6506 18.6395 11.5888L18.7939 11.1137C18.8028 11.086 18.793 11.0558 18.7695 11.0387L18.3653 10.7451C18.3128 10.7069 18.3398 10.6239 18.4047 10.6239H18.9043C18.9334 10.6239 18.9591 10.6052 18.968 10.5776L19.1224 10.1024Z" fill="white"/>
  <path d="M27.5646 11.7103C27.5847 11.6485 27.672 11.6485 27.6921 11.7103L27.8465 12.1855C27.8555 12.2131 27.8812 12.2318 27.9102 12.2318H28.4099C28.4748 12.2318 28.5017 12.3148 28.4492 12.353L28.045 12.6467C28.0215 12.6637 28.0117 12.694 28.0207 12.7216L28.1751 13.1968C28.1951 13.2585 28.1245 13.3098 28.072 13.2717L27.6678 12.978C27.6443 12.9609 27.6125 12.9609 27.589 12.978L27.1848 13.2717C27.1323 13.3098 27.0616 13.2585 27.0817 13.1968L27.2361 12.7216C27.245 12.694 27.2352 12.6637 27.2117 12.6467L26.8075 12.353C26.755 12.3148 26.782 12.2318 26.8469 12.2318H27.3465C27.3756 12.2318 27.4013 12.2131 27.4102 12.1855L27.5646 11.7103Z" fill="white"/>
  <path d="M21.9363 11.7103C21.9563 11.6485 22.0437 11.6485 22.0637 11.7103L22.2181 12.1855C22.2271 12.2131 22.2528 12.2318 22.2819 12.2318H22.7815C22.8464 12.2318 22.8734 12.3148 22.8209 12.353L22.4167 12.6467C22.3932 12.6637 22.3834 12.694 22.3923 12.7216L22.5467 13.1968C22.5668 13.2585 22.4961 13.3098 22.4436 13.2717L22.0394 12.978C22.0159 12.9609 21.9841 12.9609 21.9606 12.978L21.5564 13.2717C21.5039 13.3098 21.4332 13.2585 21.4533 13.1968L21.6077 12.7216C21.6167 12.694 21.6068 12.6637 21.5834 12.6467L21.1791 12.353C21.1266 12.3148 21.1536 12.2318 21.2185 12.2318H21.7182C21.7472 12.2318 21.7729 12.2131 21.7819 12.1855L21.9363 11.7103Z" fill="white"/>
  <path d="M16.3079 11.7103C16.328 11.6485 16.4153 11.6485 16.4354 11.7103L16.5898 12.1855C16.5987 12.2131 16.6245 12.2318 16.6535 12.2318H17.1531C17.218 12.2318 17.245 12.3148 17.1925 12.353L16.7883 12.6467C16.7648 12.6637 16.755 12.694 16.764 12.7216L16.9184 13.1968C16.9384 13.2585 16.8678 13.3098 16.8153 13.2717L16.411 12.978C16.3876 12.9609 16.3558 12.9609 16.3323 12.978L15.9281 13.2717C15.8755 13.3098 15.8049 13.2585 15.8249 13.1968L15.9793 12.7216C15.9883 12.694 15.9785 12.6637 15.955 12.6467L15.5508 12.353C15.4983 12.3148 15.5253 12.2318 15.5902 12.2318H16.0898C16.1188 12.2318 16.1446 12.2131 16.1535 12.1855L16.3079 11.7103Z" fill="white"/>
  <path d="M24.7501 10.1024C24.7702 10.0406 24.8575 10.0406 24.8776 10.1024L25.032 10.5776C25.0409 10.6052 25.0667 10.6239 25.0957 10.6239H25.5953C25.6602 10.6239 25.6872 10.7069 25.6347 10.7451L25.2305 11.0387C25.207 11.0558 25.1972 11.086 25.2062 11.1137L25.3606 11.5888C25.3806 11.6506 25.31 11.7019 25.2575 11.6638L24.8532 11.3701C24.8298 11.353 24.798 11.353 24.7745 11.3701L24.3703 11.6638C24.3177 11.7019 24.2471 11.6506 24.2671 11.5888L24.4215 11.1137C24.4305 11.086 24.4207 11.0558 24.3972 11.0387L23.993 10.7451C23.9405 10.7069 23.9675 10.6239 24.0324 10.6239H24.532C24.561 10.6239 24.5868 10.6052 24.5957 10.5776L24.7501 10.1024Z" fill="white"/>
  <path d="M15.0687 36.6348C15.0888 36.5731 15.1761 36.5731 15.1962 36.6348L15.5536 37.735C15.5626 37.7626 15.5883 37.7813 15.6174 37.7813L16.7742 37.7813C16.8391 37.7813 16.8661 37.8644 16.8136 37.9025L15.8777 38.5825C15.8542 38.5996 15.8444 38.6298 15.8533 38.6574L16.2108 39.7576C16.2309 39.8193 16.1602 39.8707 16.1077 39.8325L15.1718 39.1526C15.1483 39.1355 15.1165 39.1355 15.0931 39.1526L14.1572 39.8325C14.1047 39.8707 14.034 39.8193 14.0541 39.7576L14.4115 38.6574C14.4205 38.6298 14.4107 38.5996 14.3872 38.5825L13.4513 37.9025C13.3988 37.8644 13.4258 37.7813 13.4907 37.7813L14.6475 37.7813C14.6765 37.7813 14.7023 37.7626 14.7112 37.735L15.0687 36.6348Z" fill="#BE0B31"/>
  <path d="M28.8039 36.6348C28.8239 36.5731 28.9113 36.5731 28.9313 36.6348L29.2888 37.735C29.2978 37.7626 29.3235 37.7813 29.3525 37.7813L30.5093 37.7813C30.5743 37.7813 30.6012 37.8644 30.5487 37.9025L29.6128 38.5825C29.5894 38.5996 29.5795 38.6298 29.5885 38.6574L29.946 39.7576C29.966 39.8193 29.8954 39.8707 29.8429 39.8325L28.907 39.1526C28.8835 39.1355 28.8517 39.1355 28.8282 39.1526L27.8923 39.8325C27.8398 39.8707 27.7692 39.8193 27.7892 39.7576L28.1467 38.6574C28.1557 38.6298 28.1459 38.5996 28.1224 38.5825L27.1865 37.9025C27.134 37.8644 27.161 37.7813 27.2259 37.7813L28.3827 37.7813C28.4117 37.7813 28.4374 37.7626 28.4464 37.735L28.8039 36.6348Z" fill="#BE0B31"/>
</svg>