<svg xmlns="http://www.w3.org/2000/svg" width="1440" height="561" viewBox="0 0 1440 561" fill="none">
  <path opacity="0.25" d="M1440 1.00041L720.327 0.999969M1440 44.0004L1439.8 44.0004M1439.8 44.0004L1439.75 44.0004M1439.8 44.0004L1439.8 87.0004M1439.8 44.0004L1439.8 1.13471M1439.75 44.0004L1374.33 44.0003M1439.75 44.0004L1439.75 87.0004M1439.75 44.0004L1439.75 1.13432M1374.33 44.0003L1308.91 44.0003M1374.33 44.0003L1374.33 87.0003M1374.33 44.0003L1374.33 1.13432M1308.91 44.0003L1243.49 44.0003M1308.91 44.0003L1308.91 87.0003M1308.91 44.0003L1308.91 1.13431M1243.49 44.0003L1178.07 44.0002M1243.49 44.0003L1243.49 87.0002M1243.49 44.0003L1243.49 1.13431M1178.07 44.0002L1112.65 44.0002M1178.07 44.0002L1178.07 87.0002M1178.07 44.0002L1178.07 1.1343M1112.65 44.0002L1047.23 44.0001M1112.65 44.0002L1112.65 87.0002M1112.65 44.0002L1112.65 1.1343M1047.23 44.0001L981.807 44.0001M1047.23 44.0001L1047.23 87.0001M1047.23 44.0001L1047.23 1.13429M981.807 44.0001L916.386 44.0001M981.807 44.0001L981.807 87.0001M981.807 44.0001L981.807 1.13429M916.386 44.0001L850.965 44M916.386 44.0001L916.386 87M916.386 44.0001L916.386 1.13428M850.965 44L785.544 44M850.965 44L850.965 87M850.965 44L850.965 1.13428M785.544 44L720.327 43.9999M785.544 44L785.544 86.9999M785.544 44L785.544 1.13427M1440 87.0004L1439.8 87.0004M1439.8 87.0004L1439.75 87.0004M1439.8 87.0004L1439.8 130M1439.75 87.0004L1374.33 87.0003M1439.75 87.0004L1439.75 130M1374.33 87.0003L1308.91 87.0003M1374.33 87.0003L1374.33 130M1308.91 87.0003L1243.49 87.0002M1308.91 87.0003L1308.91 130M1243.49 87.0002L1178.07 87.0002M1243.49 87.0002L1243.49 130M1178.07 87.0002L1112.65 87.0002M1178.07 87.0002L1178.07 130M1112.65 87.0002L1047.23 87.0001M1112.65 87.0002L1112.65 130M1047.23 87.0001L981.807 87.0001M1047.23 87.0001L1047.23 130M981.807 87.0001L916.386 87M981.807 87.0001L981.807 130M916.386 87L850.965 87M916.386 87L916.386 130M850.965 87L785.544 86.9999M850.965 87L850.965 130M785.544 86.9999L720.327 86.9999M785.544 86.9999L785.544 130M1440 130L1439.8 130M1439.8 130L1439.75 130M1439.8 130L1439.8 173M1439.75 130L1374.33 130M1439.75 130L1439.75 173M1374.33 130L1308.91 130M1374.33 130L1374.33 173M1308.91 130L1243.49 130M1308.91 130L1308.91 173M1243.49 130L1178.07 130M1243.49 130L1243.49 173M1178.07 130L1112.65 130M1178.07 130L1178.07 173M1112.65 130L1047.23 130M1112.65 130L1112.65 173M1047.23 130L981.807 130M1047.23 130L1047.23 173M981.807 130L916.386 130M981.807 130L981.807 173M916.386 130L850.965 130M916.386 130L916.386 173M850.965 130L785.544 130M850.965 130L850.965 173M785.544 130L720.327 130M785.544 130L785.544 173M1440 173L1439.8 173M1439.8 173L1439.75 173M1439.8 173L1439.8 216M1439.75 173L1374.33 173M1439.75 173L1439.75 216M1374.33 173L1308.91 173M1374.33 173L1374.33 216M1308.91 173L1243.49 173M1308.91 173L1308.91 216M1243.49 173L1178.07 173M1243.49 173L1243.49 216M1178.07 173L1112.65 173M1178.07 173L1178.07 216M1112.65 173L1047.23 173M1112.65 173L1112.65 216M1047.23 173L981.807 173M1047.23 173L1047.23 216M981.807 173L916.386 173M981.807 173L981.807 216M916.386 173L850.965 173M916.386 173L916.386 216M850.965 173L785.544 173M850.965 173L850.965 216M785.544 173L720.327 173M785.544 173L785.544 216M1440 216L1439.8 216M1439.8 216L1439.75 216M1439.8 216L1439.8 259M1439.75 216L1374.33 216M1439.75 216L1439.75 259M1374.33 216L1308.91 216M1374.33 216L1374.33 259M1308.91 216L1243.49 216M1308.91 216L1308.91 259M1243.49 216L1178.07 216M1243.49 216L1243.49 259M1178.07 216L1112.65 216M1178.07 216L1178.07 259M1112.65 216L1047.23 216M1112.65 216L1112.65 259M1047.23 216L981.807 216M1047.23 216L1047.23 259M981.807 216L916.386 216M981.807 216L981.807 259M916.386 216L850.965 216M916.386 216L916.386 259M850.965 216L785.544 216M850.965 216L850.965 259M785.544 216L720.327 216M785.544 216L785.544 259M1440 259L1439.8 259M1439.8 259L1439.75 259M1439.8 259L1439.8 302M1439.75 259L1374.33 259M1439.75 259L1439.75 302M1374.33 259L1308.91 259M1374.33 259L1374.33 302M1308.91 259L1243.49 259M1308.91 259L1308.91 302M1243.49 259L1178.07 259M1243.49 259L1243.49 302M1178.07 259L1112.65 259M1178.07 259L1178.07 302M1112.65 259L1047.23 259M1112.65 259L1112.65 302M1047.23 259L981.807 259M1047.23 259L1047.23 302M981.807 259L916.386 259M981.807 259L981.807 302M916.386 259L850.965 259M916.386 259L916.386 302M850.965 259L785.544 259M850.965 259L850.965 302M785.544 259L720.327 259M785.544 259L785.544 302M1440 302L1439.8 302M1439.8 302L1439.75 302M1439.8 302L1439.8 345M1439.75 302L1374.33 302M1439.75 302L1439.75 345M1374.33 302L1308.91 302M1374.33 302L1374.33 345M1308.91 302L1243.49 302M1308.91 302L1308.91 345M1243.49 302L1178.07 302M1243.49 302L1243.49 345M1178.07 302L1112.65 302M1178.07 302L1178.07 345M1112.65 302L1047.23 302M1112.65 302L1112.65 345M1047.23 302L981.807 302M1047.23 302L1047.23 345M981.807 302L916.386 302M981.807 302L981.807 345M916.386 302L850.965 302M916.386 302L916.386 345M850.965 302L785.544 302M850.965 302L850.965 345M785.544 302L720.327 302M785.544 302L785.544 345M1440 345L1439.8 345M1439.8 345L1439.75 345M1439.8 345L1439.8 388M1439.75 345L1374.33 345M1439.75 345L1439.75 388M1374.33 345L1308.91 345M1374.33 345L1374.33 388M1308.91 345L1243.49 345M1308.91 345L1308.91 388M1243.49 345L1178.07 345M1243.49 345L1243.49 388M1178.07 345L1112.65 345M1178.07 345L1178.07 388M1112.65 345L1047.23 345M1112.65 345L1112.65 388M1047.23 345L981.807 345M1047.23 345L1047.23 388M981.807 345L916.386 345M981.807 345L981.807 388M916.386 345L850.965 345M916.386 345L916.386 388M850.965 345L785.544 345M850.965 345L850.965 388M785.544 345L720.327 345M785.544 345L785.543 388M1440 388L1439.8 388M1439.8 388L1439.75 388M1439.8 388L1439.8 431M1439.75 388L1374.33 388M1439.75 388L1439.75 431M1374.33 388L1308.91 388M1374.33 388L1374.33 431M1308.91 388L1243.49 388M1308.91 388L1308.91 431M1243.49 388L1178.07 388M1243.49 388L1243.49 431M1178.07 388L1112.65 388M1178.07 388L1178.07 431M1112.65 388L1047.23 388M1112.65 388L1112.65 431M1047.23 388L981.807 388M1047.23 388L1047.23 431M981.807 388L916.386 388M981.807 388L981.807 431M916.386 388L850.965 388M916.386 388L916.386 431M850.965 388L785.543 388M850.965 388L850.965 431M785.543 388L720.327 388M785.543 388L785.543 431M1440 431L1439.8 431M1439.8 431L1439.75 431M1439.8 431L1439.8 474M1439.75 431L1374.33 431M1439.75 431L1439.75 474M1374.33 431L1308.91 431M1374.33 431L1374.33 474M1308.91 431L1243.49 431M1308.91 431L1308.91 474M1243.49 431L1178.07 431M1243.49 431L1243.49 474M1178.07 431L1112.65 431M1178.07 431L1178.07 474M1112.65 431L1047.23 431M1112.65 431L1112.65 474M1047.23 431L981.807 431M1047.23 431L1047.23 474M981.807 431L916.386 431M981.807 431L981.807 474M916.386 431L850.965 431M916.386 431L916.386 474M850.965 431L785.543 431M850.965 431L850.965 474M785.543 431L720.327 431M785.543 431L785.543 474M1440 474L1439.8 474M1439.8 474L1439.75 474M1439.8 474L1439.8 517M1439.75 474L1374.33 474M1439.75 474L1439.75 517M1374.33 474L1308.91 474M1374.33 474L1374.33 517M1308.91 474L1243.49 474M1308.91 474L1308.91 517M1243.49 474L1178.07 474M1243.49 474L1243.49 517M1178.07 474L1112.65 474M1178.07 474L1178.07 517M1112.65 474L1047.23 474M1112.65 474L1112.65 517M1047.23 474L981.807 474M1047.23 474L1047.23 517M981.807 474L916.386 474M981.807 474L981.807 517M916.386 474L850.965 474M916.386 474L916.386 517M850.965 474L785.543 474M850.965 474L850.965 517M785.543 474L720.327 473.999M785.543 474L785.543 517M1440 517L1439.8 517M1439.8 517L1439.75 517M1439.8 517L1439.8 559.866M1439.75 517L1374.33 517M1439.75 517L1439.75 559.865M1374.33 517L1308.91 517M1374.33 517L1374.33 559.865M1308.91 517L1243.49 517M1308.91 517L1308.91 559.865M1243.49 517L1178.07 517M1243.49 517L1243.49 559.865M1178.07 517L1112.65 517M1178.07 517L1178.07 559.865M1112.65 517L1047.23 517M1112.65 517L1112.65 559.865M1047.23 517L981.807 517M1047.23 517L1047.23 559.865M981.807 517L916.386 517M981.807 517L981.807 559.865M916.386 517L850.965 517M916.386 517L916.386 559.865M850.965 517L785.543 517M850.965 517L850.965 559.865M785.543 517L720.327 516.999M785.543 517L785.543 559.865M1440 560L720.327 559.999M720.122 559.865L720.123 1.13427M720.123 1.00038L0.449308 0.999937M720.122 44.0004L719.918 44.0004M719.918 44.0004L719.878 44.0004M719.918 44.0004L719.918 87.0003M719.918 44.0004L719.918 1.13467M719.878 44.0004L654.457 44.0003M719.878 44.0004L719.878 87.0003M719.878 44.0004L719.878 1.13429M654.457 44.0003L589.036 44.0003M654.457 44.0003L654.457 87.0003M654.457 44.0003L654.457 1.13428M589.036 44.0003L523.614 44.0002M589.036 44.0003L589.036 87.0002M589.036 44.0003L589.036 1.13428M523.614 44.0002L458.193 44.0002M523.614 44.0002L523.614 87.0002M523.614 44.0002L523.614 1.13428M458.193 44.0002L392.772 44.0001M458.193 44.0002L458.193 87.0002M458.193 44.0002L458.193 1.13427M392.772 44.0001L327.351 44.0001M392.772 44.0001L392.772 87.0001M392.772 44.0001L392.772 1.13427M327.351 44.0001L261.93 44.0001M327.351 44.0001L327.351 87.0001M327.351 44.0001L327.351 1.13426M261.93 44.0001L196.508 44M261.93 44.0001L261.93 87M261.93 44.0001L261.93 1.13426M196.508 44L131.088 44M196.508 44L196.508 87M196.508 44L196.508 1.13425M131.088 44L65.6661 43.9999M131.088 44L131.088 87M131.088 44L131.088 1.13425M65.6661 43.9999L0.449306 43.9999M65.6661 43.9999L65.666 86.9999M65.6661 43.9999L65.6661 1.13424M720.122 87.0003L719.918 87.0003M719.918 87.0003L719.878 87.0003M719.918 87.0003L719.918 130M719.878 87.0003L654.457 87.0003M719.878 87.0003L719.878 130M654.457 87.0003L589.036 87.0002M654.457 87.0003L654.457 130M589.036 87.0002L523.614 87.0002M589.036 87.0002L589.036 130M523.614 87.0002L458.193 87.0002M523.614 87.0002L523.614 130M458.193 87.0002L392.772 87.0001M458.193 87.0002L458.193 130M392.772 87.0001L327.351 87.0001M392.772 87.0001L392.772 130M327.351 87.0001L261.93 87M327.351 87.0001L327.351 130M261.93 87L196.508 87M261.93 87L261.93 130M196.508 87L131.088 87M196.508 87L196.508 130M131.088 87L65.666 86.9999M131.088 87L131.088 130M65.666 86.9999L0.449304 86.9999M65.666 86.9999L65.666 130M720.122 130L719.918 130M719.918 130L719.878 130M719.918 130L719.918 173M719.878 130L654.457 130M719.878 130L719.877 173M654.457 130L589.036 130M654.457 130L654.457 173M589.036 130L523.614 130M589.036 130L589.036 173M523.614 130L458.193 130M523.614 130L523.614 173M458.193 130L392.772 130M458.193 130L458.193 173M392.772 130L327.351 130M392.772 130L392.772 173M327.351 130L261.93 130M327.351 130L327.351 173M261.93 130L196.508 130M261.93 130L261.93 173M196.508 130L131.088 130M196.508 130L196.508 173M131.088 130L65.666 130M131.088 130L131.088 173M65.666 130L0.449302 130M65.666 130L65.666 173M720.122 173L719.918 173M719.918 173L719.877 173M719.918 173L719.918 216M719.877 173L654.457 173M719.877 173L719.877 216M654.457 173L589.036 173M654.457 173L654.457 216M589.036 173L523.614 173M589.036 173L589.036 216M523.614 173L458.193 173M523.614 173L523.614 216M458.193 173L392.772 173M458.193 173L458.193 216M392.772 173L327.351 173M392.772 173L392.772 216M327.351 173L261.93 173M327.351 173L327.351 216M261.93 173L196.508 173M261.93 173L261.93 216M196.508 173L131.088 173M196.508 173L196.508 216M131.088 173L65.666 173M131.088 173L131.088 216M65.666 173L0.4493 173M65.666 173L65.666 216M720.122 216L719.918 216M719.918 216L719.877 216M719.918 216L719.918 259M719.877 216L654.457 216M719.877 216L719.877 259M654.457 216L589.036 216M654.457 216L654.456 259M589.036 216L523.614 216M589.036 216L589.036 259M523.614 216L458.193 216M523.614 216L523.614 259M458.193 216L392.772 216M458.193 216L458.193 259M392.772 216L327.351 216M392.772 216L392.772 259M327.351 216L261.93 216M327.351 216L327.351 259M261.93 216L196.508 216M261.93 216L261.93 259M196.508 216L131.088 216M196.508 216L196.508 259M131.088 216L65.666 216M131.088 216L131.088 259M65.666 216L0.449298 216M65.666 216L65.666 259M720.122 259L719.918 259M719.918 259L719.877 259M719.918 259L719.918 302M719.877 259L654.456 259M719.877 259L719.877 302M654.456 259L589.036 259M654.456 259L654.456 302M589.036 259L523.614 259M589.036 259L589.036 302M523.614 259L458.193 259M523.614 259L523.614 302M458.193 259L392.772 259M458.193 259L458.193 302M392.772 259L327.351 259M392.772 259L392.772 302M327.351 259L261.93 259M327.351 259L327.351 302M261.93 259L196.508 259M261.93 259L261.93 302M196.508 259L131.088 259M196.508 259L196.508 302M131.088 259L65.666 259M131.088 259L131.088 302M65.666 259L0.449296 259M65.666 259L65.666 302M720.122 302L719.918 302M719.918 302L719.877 302M719.918 302L719.918 345M719.877 302L654.456 302M719.877 302L719.877 345M654.456 302L589.036 302M654.456 302L654.456 345M589.036 302L523.614 302M589.036 302L589.036 345M523.614 302L458.193 302M523.614 302L523.614 345M458.193 302L392.772 302M458.193 302L458.193 345M392.772 302L327.351 302M392.772 302L392.772 345M327.351 302L261.93 302M327.351 302L327.351 345M261.93 302L196.508 302M261.93 302L261.93 345M196.508 302L131.088 302M196.508 302L196.508 345M131.088 302L65.666 302M131.088 302L131.088 345M65.666 302L0.449294 302M65.666 302L65.666 345M720.122 345L719.918 345M719.918 345L719.877 345M719.918 345L719.918 388M719.877 345L654.456 345M719.877 345L719.877 388M654.456 345L589.036 345M654.456 345L654.456 388M589.036 345L523.614 345M589.036 345L589.036 388M523.614 345L458.193 345M523.614 345L523.614 388M458.193 345L392.772 345M458.193 345L458.193 388M392.772 345L327.351 345M392.772 345L392.772 388M327.351 345L261.93 345M327.351 345L327.351 388M261.93 345L196.508 345M261.93 345L261.93 388M196.508 345L131.088 345M196.508 345L196.508 388M131.088 345L65.666 345M131.088 345L131.088 388M65.666 345L0.449293 345M65.666 345L65.6659 388M720.122 388L719.918 388M719.918 388L719.877 388M719.918 388L719.918 431M719.877 388L654.456 388M719.877 388L719.877 431M654.456 388L589.036 388M654.456 388L654.456 431M589.036 388L523.614 388M589.036 388L589.036 431M523.614 388L458.193 388M523.614 388L523.614 431M458.193 388L392.772 388M458.193 388L458.193 431M392.772 388L327.351 388M392.772 388L392.772 431M327.351 388L261.93 388M327.351 388L327.351 431M261.93 388L196.508 388M261.93 388L261.93 431M196.508 388L131.088 388M196.508 388L196.508 431M131.088 388L65.6659 388M131.088 388L131.088 431M65.6659 388L0.449291 388M65.6659 388L65.6659 431M720.122 431L719.918 431M719.918 431L719.877 431M719.918 431L719.918 474M719.877 431L654.456 431M719.877 431L719.877 474M654.456 431L589.036 431M654.456 431L654.456 474M589.036 431L523.614 431M589.036 431L589.036 474M523.614 431L458.193 431M523.614 431L523.614 474M458.193 431L392.772 431M458.193 431L458.193 474M392.772 431L327.351 431M392.772 431L392.772 474M327.351 431L261.93 431M327.351 431L327.351 474M261.93 431L196.508 431M261.93 431L261.93 474M196.508 431L131.088 431M196.508 431L196.508 474M131.088 431L65.6659 431M131.088 431L131.088 474M65.6659 431L0.449289 430.999M65.6659 431L65.6659 473.999M720.122 474L719.918 474M719.918 474L719.877 474M719.918 474L719.918 517M719.877 474L654.456 474M719.877 474L719.877 517M654.456 474L589.036 474M654.456 474L654.456 517M589.036 474L523.614 474M589.036 474L589.036 517M523.614 474L458.193 474M523.614 474L523.614 517M458.193 474L392.772 474M458.193 474L458.193 517M392.772 474L327.351 474M392.772 474L392.772 517M327.351 474L261.93 474M327.351 474L327.351 517M261.93 474L196.508 474M261.93 474L261.93 517M196.508 474L131.088 474M196.508 474L196.508 517M131.088 474L65.6659 473.999M131.088 474L131.088 517M65.6659 473.999L0.449287 473.999M65.6659 473.999L65.6659 517M720.122 517L719.918 517M719.918 517L719.877 517M719.918 517L719.918 559.866M719.877 517L654.456 517M719.877 517L719.877 559.865M654.456 517L589.036 517M654.456 517L654.456 559.865M589.036 517L523.614 517M589.036 517L589.036 559.865M523.614 517L458.193 517M523.614 517L523.614 559.865M458.193 517L392.772 517M458.193 517L458.193 559.865M392.772 517L327.351 517M392.772 517L392.772 559.865M327.351 517L261.93 517M327.351 517L327.351 559.865M261.93 517L196.508 517M261.93 517L261.93 559.865M196.508 517L131.088 517M196.508 517L196.508 559.865M131.088 517L65.6659 517M131.088 517L131.088 559.865M65.6659 517L0.449285 516.999M65.6659 517L65.6659 559.865M720.122 560L0.449283 559.999M0.244978 559.865L0.245106 1.13424M0.245 44.0003L0.0405915 44.0003M0.0405915 44.0003L-4.15304e-05 44.0003M0.0405915 44.0003L0.0405896 87.0003M0.0405915 44.0003L0.0405934 1.13464M-4.15304e-05 44.0003L-4.341e-05 87.0003M-4.15304e-05 44.0003L-3.96567e-05 1.13426M0.244999 87.0003L0.0405896 87.0003M0.0405896 87.0003L-4.341e-05 87.0003M0.0405896 87.0003L0.0405877 130M-4.341e-05 87.0003L-4.52896e-05 130M0.244997 130L0.0405877 130M0.0405877 130L-4.52896e-05 130M0.0405877 130L0.0405858 173M-4.52896e-05 130L-4.71692e-05 173M0.244995 173L0.0405858 173M0.0405858 173L-4.71692e-05 173M0.0405858 173L0.040584 216M-4.71692e-05 173L-4.90488e-05 216M0.244993 216L0.040584 216M0.040584 216L-4.90488e-05 216M0.040584 216L0.0404784 259M-4.90488e-05 216L-5.09284e-05 259M0.244991 259L0.0404784 259M0.0404784 259L-5.09284e-05 259M0.0404784 259L0.0404766 302M-5.09284e-05 259L-5.2808e-05 302M0.244989 302L0.0404766 302M0.0404766 302L-5.2808e-05 302M0.0404766 302L0.0404747 345M-5.2808e-05 302L-5.46876e-05 345M0.244987 345L0.0404747 345M0.0404747 345L-5.46876e-05 345M0.0404747 345L0.0404728 388M-5.46876e-05 345L-5.65671e-05 388M0.244985 388L0.0404728 388M0.0404728 388L-5.65671e-05 388M0.0404728 388L0.0404709 431M-5.65671e-05 388L-5.84467e-05 431M0.244984 431L0.0404709 431M0.0404709 431L-5.84467e-05 431M0.0404709 431L0.040469 474M-5.84467e-05 431L-6.03263e-05 474M0.244982 474L0.040469 474M0.040469 474L-6.03263e-05 474M0.040469 474L0.0404672 517M-6.03263e-05 474L-6.22059e-05 517M0.24498 517L0.0404672 517M0.0404672 517L-6.22059e-05 517M0.0404672 517L0.0404653 559.866M-6.22059e-05 517L-6.40796e-05 559.865" stroke="url(#paint0_radial_0_1122)" stroke-width="1.20021"/>
  <defs>
    <radialGradient id="paint0_radial_0_1122" cx="0" cy="0" r="1" gradientUnits="userSpaceOnUse" gradientTransform="translate(720 280.5) rotate(-180) scale(720 279.5)">
      <stop stop-color="#BE0B31"/>
      <stop offset="1" stop-color="#BE0B31" stop-opacity="0"/>
    </radialGradient>
  </defs>
</svg>