<svg width="895" height="117" viewBox="0 0 895 117" fill="none" xmlns="http://www.w3.org/2000/svg">
<g clip-path="url(#clip0_6_24)">
<path d="M868.051 97.5785L891.649 83.8533L891.599 100.673L868 114.382L868.051 97.5785Z" fill="#71021A"/>
<path d="M868.202 98.0326L892.288 84.0383L892.339 81.2293L868.252 95.2405L868.202 98.0326Z" fill="#002768"/>
<path d="M892.944 100.229V102.685L868 116.696V114.24L892.944 100.229Z" fill="#002768"/>
<path d="M864.942 96.3806L865.396 96.1115L865.363 107.97L864.909 108.222L864.942 96.3806Z" fill="#063789"/>
</g>
<rect x="86.9999" y="56.2292" width="680" height="5" fill="#86011D"/>
<path d="M800.119 92.0914L837.88 70.1411L838.015 23.5325L800.254 45.4828L800.119 92.0914Z" fill="#71021A"/>
<path d="M760.979 22.7925L760.844 69.4011L800.119 92.0915L800.254 45.4829L760.979 22.7925Z" fill="#BE0B31"/>
<path d="M763.417 30.8494L763.384 44.5073L783.198 55.9618L783.232 42.2871L763.417 30.8494Z" fill="#EBFDFF"/>
<path d="M763.67 44.3391L773.156 49.8225L772.568 50.1589L763.098 44.6755L763.67 44.3391Z" fill="#002768"/>
<path d="M783.484 55.7937L782.912 56.1301L773.426 50.6467L773.997 50.3103L783.484 55.7937Z" fill="#002768"/>
<path d="M763.132 31.0176L763.703 30.6812L763.67 44.3391L763.098 44.6755L763.132 31.0176Z" fill="#063789"/>
<path d="M774.031 36.6523L773.997 50.3103L773.426 50.6467L773.459 36.9887L774.031 36.6523Z" fill="#063789"/>
<path d="M783.77 42.102L784.359 41.7656L784.308 57.1056L783.736 57.442L783.77 42.102Z" fill="#063789"/>
<path d="M762.879 29.3691L784.359 41.7656L783.77 42.102L762.307 29.7055L762.879 29.3691Z" fill="#002768"/>
<path d="M762.307 29.7056L783.77 42.102L783.719 57.442L762.257 45.0455L762.307 29.7056ZM782.912 56.13L782.946 42.4721L773.459 36.9887L773.426 50.6466L782.912 56.13ZM772.585 50.1589L772.618 36.5009L763.132 31.0175L763.098 44.6755L772.585 50.1589Z" fill="#002768"/>
<path d="M828.898 82.8908L866.693 60.9741L866.592 86.8267L828.797 108.743L828.898 82.8908Z" fill="#940423"/>
<path d="M800.22 66.8782L828.898 82.8909L828.797 108.744L800.119 92.7307L800.22 66.8782Z" fill="#BE0B31"/>
<path d="M801.229 47.8713L840.185 24.8782L797.949 0.152588L758.977 23.1457L801.229 47.8713Z" fill="#063789"/>
<path d="M801.229 47.8713L798.992 11.708L758.977 23.1457L801.229 47.8713Z" fill="#002768"/>
<path d="M840.185 24.8782L798.992 11.708L797.949 0.152588L840.185 24.8782Z" fill="#002768"/>
<path d="M795.813 87.9201L814.702 76.9534L814.635 100.872L795.746 111.838L795.813 87.9201Z" fill="#940423"/>
<path d="M757.497 65.8015L795.813 87.92L795.746 111.838L757.43 89.7029L757.497 65.8015Z" fill="#BE0B31"/>
<path d="M843.044 78.8877L868.056 98.1804L868.005 114.984L842.994 100.535L843.044 78.8877Z" fill="#BE0B31"/>
<path d="M822.271 70.2758L858.889 48.9983L836.787 36.4841L800.153 57.7784L822.271 70.2758Z" fill="#063789"/>
<path d="M831.875 85.128L868.51 63.8337L858.889 48.9983L822.271 70.2758L831.875 85.128Z" fill="#002768"/>
<path d="M800.153 57.7783L800.119 67.063L831.875 85.1279L822.271 70.2757L800.153 57.7783Z" fill="#002768"/>
<path d="M795.813 88.8453L816.35 76.9198L776.621 53.8762L756.101 65.8017L795.813 88.8453Z" fill="#063789"/>
<path d="M795.813 88.8452L786.545 63.4636L756.101 65.8016L795.813 88.8452Z" fill="#002768"/>
<path d="M816.35 76.9198L786.545 63.4637L776.621 53.8762L816.35 76.9198Z" fill="#002768"/>
<path d="M868.257 95.8423L892.344 81.8312L866.811 62.1348L842.708 76.1459L868.257 95.8423Z" fill="#063789"/>
<path d="M842.708 76.146L842.657 79.1063L868.207 98.6345L868.257 95.8424L842.708 76.146Z" fill="#002768"/>
<path d="M759.667 70.4607L759.616 85.5315L792.584 104.572L792.617 89.5011L759.667 70.4607Z" fill="#EBFDFF"/>
<path d="M759.835 85.397L769.052 90.729L768.598 90.9813L759.397 85.6661L759.835 85.397Z" fill="#063789"/>
<path d="M782.929 98.7354L782.492 98.9876L769.405 91.4354L769.843 91.1831L782.929 98.7354Z" fill="#063789"/>
<path d="M792.802 104.437L792.365 104.69L783.299 99.4586L783.736 99.2063L792.802 104.437Z" fill="#063789"/>
<path d="M759.448 70.5953L759.885 70.3262L759.835 85.397L759.397 85.6661L759.448 70.5953Z" fill="#002768"/>
<path d="M769.893 76.1123L769.843 91.1831L769.405 91.4355L769.456 76.3646L769.893 76.1123Z" fill="#002768"/>
<path d="M783.77 84.1355L783.736 99.2063L783.299 99.4586L783.333 84.3878L783.77 84.1355Z" fill="#002768"/>
<path d="M759.263 69.3L793.458 89.0469L793.021 89.2992L758.826 69.5523L759.263 69.3Z" fill="#063789"/>
<path d="M758.826 69.5525L793.021 89.2993L792.97 105.716L758.775 85.969L758.826 69.5525ZM792.365 104.69L792.415 89.6189L783.349 84.3879L783.299 99.4587L792.365 104.69ZM782.491 98.9877L782.542 83.9169L769.456 76.3647L769.405 91.4355L782.491 98.9877ZM768.598 90.9645L768.648 75.8937L759.448 70.5785L759.397 85.6494L768.598 90.9645Z" fill="#002768"/>
<path d="M793.021 89.2994L793.458 89.0471L793.408 105.464L792.971 105.716L793.021 89.2994Z" fill="#002768"/>
<path d="M756.017 87.8696L795.746 110.795V113.251L756 90.3254L756.017 87.8696Z" fill="#002768"/>
<path d="M816.065 99.0549V101.511L795.746 113.251V110.795L816.065 99.0549Z" fill="#002768"/>
<path d="M844.356 99.0549V101.511L828.73 110.543V108.087L844.356 99.0549Z" fill="#002768"/>
<path d="M842.977 102.335L868.005 116.8L868.022 114.344L842.977 99.8623V102.335Z" fill="#002768"/>
<path d="M794.787 110.24L756.017 87.8696L757.43 87.0454L795.746 109.147L814.635 98.2308H814.652L828.781 106.422L842.943 98.2308H842.96L868.005 112.696L891.57 99.4587L893 100.283L869.435 113.52L868.022 114.344L842.96 99.8624L828.73 108.087L827.317 107.263L827.351 107.246L814.652 99.8624L797.058 110.039L795.746 110.795L794.787 110.24Z" fill="#063789"/>
<path d="M828.73 108.037V110.493L814.668 102.335L814.652 99.8623L828.73 108.037Z" fill="#002768"/>
<path d="M817.881 82.7227L817.847 92.226L824.643 96.1451L824.66 86.6417L817.881 82.7227Z" fill="#EBFDFF"/>
<path d="M818.571 91.8728L824.492 95.3041L824.004 95.5732L818.083 92.1587L818.571 91.8728Z" fill="#063789"/>
<path d="M818.117 83.4459L818.604 83.1768L818.571 91.8728L818.083 92.1587L818.117 83.4459Z" fill="#002768"/>
<path d="M824.777 86.4566L825.265 86.1707L825.231 96.5655L824.744 96.8514L824.777 86.4566Z" fill="#002768"/>
<path d="M817.864 81.8984L825.265 86.1708L824.777 86.4567L817.376 82.1844L817.864 81.8984Z" fill="#063789"/>
<path d="M817.377 82.1843L824.761 86.4566L824.727 96.8515L817.343 92.5792L817.377 82.1843ZM824.004 95.5732V86.8603L818.1 83.4458V92.1587L824.004 95.5732Z" fill="#002768"/>
<path d="M847.232 87.6846L847.199 98.2476L862.505 107.078L862.522 96.532L847.232 87.6846Z" fill="#EBFDFF"/>
<path d="M847.417 98.113L854.751 102.335L854.297 102.604L846.98 98.3653L847.417 98.113Z" fill="#002768"/>
<path d="M862.724 106.944L862.269 107.213L854.953 102.974L855.407 102.722L862.724 106.944Z" fill="#002768"/>
<path d="M846.997 87.8192L847.451 87.5669L847.417 98.1131L846.98 98.3654L846.997 87.8192Z" fill="#063789"/>
<path d="M855.424 92.1755L855.407 102.722L854.953 102.974L854.986 92.4278L855.424 92.1755Z" fill="#063789"/>
<path d="M846.812 86.5408L863.396 96.1114L862.942 96.3806L846.374 86.8099L846.812 86.5408Z" fill="#002768"/>
<path d="M846.374 86.8098L862.959 96.3805L862.925 108.222L846.341 98.6512L846.374 86.8098ZM862.286 107.213L862.32 96.6664L855.003 92.4446L854.97 102.991L862.286 107.213ZM854.314 102.604L854.347 92.0577L847.03 87.8358L846.997 98.3821L854.314 102.604Z" fill="#002768"/>
<path d="M86.9998 80.1502L43.4998 101.906V58.3825L86.9998 36.6502V80.1502Z" fill="#940423"/>
<path d="M43.4999 101.906L-0.00012207 80.1502V36.6502L43.4999 58.4061V101.906Z" fill="#940423"/>
<path d="M86.9999 36.6502L43.4999 58.3943L-0.00012207 36.6265L43.4999 14.8943L86.9999 36.6502Z" fill="#940423"/>
<path d="M43.4999 58.5008L-0.00012207 36.7449V36.6502L0.0945203 36.5911L43.4999 58.2997V58.5008Z" fill="#700018"/>
<path d="M43.4998 58.5008L86.9998 36.7449V36.6502L86.9052 36.5911L43.4998 58.2997V58.5008Z" fill="#700018"/>
<path d="M43.4999 63.7652V58.4061C43.4999 58.4061 41.0274 75.4654 43.4999 101.906V95.0918C42.5417 80.7772 43.0267 69.8341 43.4999 63.7652Z" fill="#700018"/>
<path d="M43.4999 99.5992V59.2579C43.0267 65.3268 42.5416 85.2845 43.4999 99.5992Z" fill="#700018"/>
<path d="M23.5185 71.0053L17.2484 67.8703V45.3809L23.5185 48.5278V71.0053Z" fill="#002768"/>
<path d="M62.0836 71.2268L68.3536 68.0917V45.6024L62.0836 48.7492V71.2268Z" fill="#002768"/>
<path d="M17.2366 45.3809L23.5185 48.5278L67.4326 26.8547L61.1625 23.7197L17.2366 45.3809Z" fill="#002768"/>
<path d="M68.2081 45.9639L61.9995 48.7019L20.213 26.5377L26.4097 23.8105L68.2081 45.9639Z" fill="#002768"/>
<path d="M14.7523 55.07L3.77376 51.8758L2.48425 45.0379L13.4628 48.2321L14.7523 55.07Z" fill="white"/>
<path d="M5.33535 51.1896L5.06325 51.1186L4.2233 46.6823L4.49539 46.7532L5.33535 51.1896Z" fill="#5B677E"/>
<path d="M5.64293 51.2843L5.51279 51.2488L4.66101 46.8124L4.80297 46.8479L5.64293 51.2843Z" fill="#5B677E"/>
<path d="M5.95052 51.3789L5.82039 51.3316L4.98044 46.8952L5.11057 46.9307L5.95052 51.3789Z" fill="#5B677E"/>
<path d="M6.25811 51.4617L6.12798 51.4262L5.28802 46.9899L5.41816 47.0254L6.25811 51.4617Z" fill="#5B677E"/>
<path d="M6.5657 51.5564L6.43556 51.5091L5.59561 47.0727L5.72574 47.12L6.5657 51.5564Z" fill="#5B677E"/>
<path d="M7.00342 51.6865L6.74315 51.6037L5.9032 47.1673L6.16347 47.2383L7.00342 51.6865Z" fill="#5B677E"/>
<path d="M8.19826 52.0295L8.06813 51.994L7.22818 47.5577L7.35831 47.5932L8.19826 52.0295Z" fill="#5B677E"/>
<path d="M8.50585 52.1242L8.37572 52.0769L7.53577 47.6405L7.6659 47.676L8.50585 52.1242Z" fill="#5B677E"/>
<path d="M8.9436 52.2425L8.68333 52.1715L7.84338 47.7352L8.10365 47.8061L8.9436 52.2425Z" fill="#5B677E"/>
<path d="M7.45296 51.8048L7.18086 51.7338L6.34091 47.2975L6.61301 47.3685L7.45296 51.8048Z" fill="#5B677E"/>
<path d="M7.8907 51.935L7.61861 51.864L6.77866 47.4276L7.05075 47.4986L7.8907 51.935Z" fill="#5B677E"/>
<path d="M9.39315 52.3726L9.12105 52.3017L8.2811 47.8653L8.55319 47.9363L9.39315 52.3726Z" fill="#5B677E"/>
<path d="M9.70074 52.4673L9.5706 52.4318L8.73065 47.9836L8.86078 48.031L9.70074 52.4673Z" fill="#5B677E"/>
<path d="M10.0083 52.5501L9.87819 52.5146L9.03824 48.0782L9.16837 48.1137L10.0083 52.5501Z" fill="#5B677E"/>
<path d="M10.3159 52.6448L10.1858 52.6093L9.34583 48.1729L9.47596 48.2084L10.3159 52.6448Z" fill="#5B677E"/>
<path d="M10.6235 52.7394L10.4933 52.6921L9.65338 48.2557L9.78352 48.2912L10.6235 52.7394Z" fill="#5B677E"/>
<path d="M11.0612 52.8577L10.801 52.7867L9.96103 48.3503L10.2213 48.4213L11.0612 52.8577Z" fill="#5B677E"/>
<path d="M12.2561 53.2126L12.1259 53.1653L11.286 48.7289L11.4161 48.7763L12.2561 53.2126Z" fill="#5B677E"/>
<path d="M12.5637 53.2954L12.4335 53.2599L11.5936 48.8235L11.7237 48.859L12.5637 53.2954Z" fill="#5B677E"/>
<path d="M13.0132 53.4256L12.7411 53.3546L11.9012 48.9182L12.1732 48.9892L13.0132 53.4256Z" fill="#5B677E"/>
<path d="M11.5108 52.9878L11.2387 52.9168L10.3987 48.4805L10.6708 48.5515L11.5108 52.9878Z" fill="#5B677E"/>
<path d="M11.9485 53.118L11.6882 53.047L10.8483 48.6107L11.1086 48.6816L11.9485 53.118Z" fill="#5B677E"/>
<path d="M40.424 66.8766L26.6535 59.9795V53.4255L40.424 60.3226V66.8766Z" fill="white"/>
<path d="M6.48287 76.0333L1.58512 73.5844C1.40767 73.4898 1.25388 73.5726 1.25388 73.75V78.6478C1.25388 78.8252 1.39584 79.05 1.58512 79.1446L6.48287 81.5935C6.66032 81.6881 6.81412 81.6053 6.81412 81.4279V76.5301C6.81412 76.3527 6.67215 76.1279 6.48287 76.0333ZM6.55385 81.0257C6.55385 81.2149 6.40005 81.2859 6.21077 81.1913L1.84539 79.0027C1.65611 78.908 1.50231 78.6833 1.50231 78.494V74.1286C1.50231 73.9393 1.65611 73.8683 1.84539 73.963L6.21077 76.1516C6.40005 76.2462 6.55385 76.471 6.55385 76.6603V81.0257Z" fill="#5B677E"/>
<path d="M3.13492 78.8725L2.82733 78.7187V75.3589L3.13492 75.5127V78.8725Z" fill="#5B677E"/>
<path d="M2.98111 74.9922L2.56705 75.631L2.98111 75.844L3.407 76.0569L2.98111 74.9922Z" fill="#5B677E"/>
<path d="M5.22885 79.9254L4.92126 79.7716V76.4118L5.22885 76.5656V79.9254Z" fill="#5B677E"/>
<path d="M5.07506 76.045L4.64917 76.6721L5.07506 76.885L5.50095 77.0979L5.07506 76.045Z" fill="#5B677E"/>
<path d="M2.12933 78.8252V78.5176L5.93869 80.4223V80.7298L2.12933 78.8252Z" fill="#5B677E"/>
<path d="M13.0605 79.3221L8.16276 76.8732C7.98531 76.7786 7.83151 76.8614 7.83151 77.0388V81.9366C7.83151 82.114 7.97348 82.3388 8.16276 82.4335L13.0605 84.8823C13.238 84.977 13.3918 84.8942 13.3918 84.7167V79.819C13.3918 79.6415 13.2498 79.4167 13.0605 79.3221ZM13.1315 84.3145C13.1315 84.5038 12.9777 84.5747 12.7884 84.4801L8.42303 82.2915C8.23374 82.1968 8.07995 81.9721 8.07995 81.7828V77.4174C8.07995 77.2281 8.23374 77.1571 8.42303 77.2518L12.7884 79.4404C12.9777 79.535 13.1315 79.7598 13.1315 79.9491V84.3145Z" fill="#5B677E"/>
<path d="M11.771 81.7591C11.357 81.558 11.0257 81.0493 11.0257 80.6352V78.908L12.5282 79.6533V81.3806C12.5282 81.7946 12.1969 81.9602 11.7829 81.7591H11.771Z" fill="#5B677E"/>
<path d="M11.8538 83.5455L11.6882 83.4508V81.6408L11.8538 81.7355V83.5455Z" fill="#5B677E"/>
<path d="M11.0257 83.2497C11.0257 83.1551 11.1085 83.1196 11.2032 83.1669L12.3507 83.7348C12.4454 83.7821 12.5282 83.9004 12.5282 83.995L11.0257 83.2497Z" fill="#5B677E"/>
<path d="M8.70699 77.7487V79.4759C8.70699 79.8899 9.03824 80.3868 9.4523 80.5998C9.86636 80.8009 10.1976 80.6353 10.1976 80.2212V78.494L8.69516 77.7487H8.70699ZM10.0556 80.1502C10.0556 80.4815 9.78355 80.6116 9.46413 80.446C9.14471 80.2803 8.87261 79.8781 8.87261 79.5587V77.9853L10.0675 78.5768V80.1502H10.0556Z" fill="#5B677E"/>
<path d="M9.54693 82.3861L9.36948 82.3033V80.4933L9.54693 80.5761V82.3861Z" fill="#5B677E"/>
<path d="M8.70697 82.0904C8.70697 81.9957 8.78978 81.9602 8.88442 82.0076L10.032 82.5754C10.1266 82.6227 10.2094 82.741 10.2094 82.8357L8.70697 82.0904Z" fill="#5B677E"/>
<path d="M19.65 82.6109L14.7523 80.162C14.5748 80.0674 14.421 80.1502 14.421 80.3277V85.2254C14.421 85.4029 14.563 85.6276 14.7523 85.7223L19.65 88.1711C19.8275 88.2658 19.9813 88.183 19.9813 88.0055V83.1078C19.9813 82.9303 19.8393 82.7055 19.65 82.6109ZM19.721 87.6033C19.721 87.7926 19.5672 87.8636 19.3779 87.7689L15.0125 85.5803C14.8233 85.4857 14.6695 85.2609 14.6695 85.0716V80.7062C14.6695 80.5169 14.8233 80.446 15.0125 80.5406L19.3779 82.7292C19.5672 82.8239 19.721 83.0486 19.721 83.2379V87.6033Z" fill="#5B677E"/>
<path d="M16.2074 83.5692C16.3493 83.5218 16.5386 83.5337 16.7397 83.6401C16.9408 83.7466 17.1301 83.9122 17.2721 84.1015C17.4141 84.0542 17.6033 84.066 17.8045 84.1725C18.0056 84.279 18.1949 84.4446 18.3368 84.6339C18.4788 84.5866 18.6681 84.5984 18.8692 84.7049C18.9165 84.7285 18.952 84.7522 18.9993 84.7759C18.9283 83.8649 18.1949 82.812 17.2958 82.3625C16.4085 81.9129 15.675 82.2323 15.5922 83.0605C15.6277 83.0605 15.6513 83.0841 15.6868 83.096C15.888 83.2024 16.0772 83.3681 16.2192 83.5573L16.2074 83.5692Z" fill="#5B677E"/>
<path d="M16.9291 86.2664C16.6806 86.1363 16.4677 85.8287 16.4677 85.5803V85.4975C16.4677 85.4975 16.515 85.4265 16.5623 85.4502C16.6096 85.4738 16.657 85.533 16.657 85.5921V85.6749C16.657 85.8287 16.7753 86.0062 16.9291 86.0772C17.0829 86.1481 17.2012 86.089 17.2012 85.947V82.1495C17.2012 82.1495 17.2485 82.0785 17.2958 82.1022C17.3431 82.1258 17.3904 82.185 17.3904 82.2441V86.0417C17.3904 86.2901 17.1893 86.3966 16.9291 86.2664Z" fill="#5B677E"/>
<path d="M45.7831 19.6974L34.2131 25.4942L33.8463 25.3049L45.4282 19.5199L45.7831 19.6974Z" fill="#5B677E"/>
<path d="M46.9188 20.2652L35.3488 26.0621L34.9821 25.8728L46.5639 20.0878L46.9188 20.2652Z" fill="#5B677E"/>
<path d="M48.0545 20.8331L36.4845 26.6299L36.1178 26.4407L47.6996 20.6556L48.0545 20.8331Z" fill="#5B677E"/>
<path d="M49.1903 21.401L37.6202 27.1978L37.2535 27.0204L48.8353 21.2235L49.1903 21.401Z" fill="#5B677E"/>
<path d="M47.7706 45.7714L36.1888 51.5564L35.8339 51.3789L47.4039 45.5939L47.7706 45.7714Z" fill="#5B677E"/>
<path d="M48.9063 46.3392L37.3245 52.1242L36.9696 51.9468L48.5396 46.1617L48.9063 46.3392Z" fill="#5B677E"/>
<path d="M50.042 46.9071L38.4602 52.6921L38.1053 52.5146L49.6753 46.7296L50.042 46.9071Z" fill="#5B677E"/>
<path d="M51.1777 47.4749L39.5959 53.26L39.241 53.0825L50.811 47.2975L51.1777 47.4749Z" fill="#5B677E"/>
<g filter="url(#filter0_b_6_24)">
<circle cx="427" cy="59.2292" r="27" fill="#BE0B31" fill-opacity="0.25"/>
<circle cx="427" cy="59.2292" r="25.5" stroke="#BE0B31" stroke-width="3"/>
</g>
<path fill-rule="evenodd" clip-rule="evenodd" d="M422.306 54.9874L422.649 58.075L421.955 58.1304C420.987 58.2077 420.196 58.9354 420.039 59.8938C419.678 62.1027 419.678 64.3557 420.039 66.5646C420.196 67.5231 420.987 68.2508 421.955 68.3281L423.451 68.4475C425.813 68.6361 428.187 68.6361 430.549 68.4475L432.045 68.3281C433.013 68.2508 433.803 67.5231 433.96 66.5646C434.322 64.3557 434.322 62.1027 433.96 59.8938C433.803 58.9354 433.013 58.2077 432.045 58.1304L431.351 58.075L431.694 54.9874C431.734 54.6234 431.734 54.2561 431.694 53.8921L431.671 53.6872C431.429 51.5138 429.721 49.7942 427.549 49.5387C427.184 49.4957 426.816 49.4957 426.451 49.5387C424.279 49.7942 422.57 51.5138 422.329 53.6872L422.306 53.8921C422.266 54.2561 422.266 54.6234 422.306 54.9874ZM427.374 51.0284C427.125 50.9992 426.874 50.9992 426.626 51.0284C425.147 51.2023 423.984 52.3731 423.82 53.8529L423.797 54.0578C423.769 54.3116 423.769 54.5679 423.797 54.8218L424.146 57.9609C426.047 57.839 427.953 57.839 429.854 57.9609L430.203 54.8218C430.231 54.5679 430.231 54.3116 430.203 54.0578L430.18 53.8529C430.016 52.3731 428.852 51.2023 427.374 51.0284ZM427 61.7292C426.171 61.7292 425.5 62.4008 425.5 63.2292C425.5 64.0577 426.171 64.7292 427 64.7292C427.828 64.7292 428.5 64.0577 428.5 63.2292C428.5 62.4008 427.828 61.7292 427 61.7292Z" fill="#BE0B31"/>
<defs>
<filter id="filter0_b_6_24" x="375" y="7.22925" width="104" height="104" filterUnits="userSpaceOnUse" color-interpolation-filters="sRGB">
<feFlood flood-opacity="0" result="BackgroundImageFix"/>
<feGaussianBlur in="BackgroundImageFix" stdDeviation="12.5"/>
<feComposite in2="SourceAlpha" operator="in" result="effect1_backgroundBlur_6_24"/>
<feBlend mode="normal" in="SourceGraphic" in2="effect1_backgroundBlur_6_24" result="shape"/>
</filter>
<clipPath id="clip0_6_24">
<rect width="137" height="116.648" fill="white" transform="matrix(-1 0 0 1 895 0.152588)"/>
</clipPath>
</defs>
</svg>
