<svg xmlns="http://www.w3.org/2000/svg" width="1440" height="719" viewBox="0 0 1440 719" fill="none">
  <path opacity="0.1" d="M1440 1.00053L720.327 0.999969M1440 56.1543L1439.8 56.1543M1439.8 56.1543L1439.75 56.1543M1439.8 56.1543L1439.8 111.308M1439.8 56.1543L1439.8 1.17278M1439.75 56.1543L1374.33 56.1543M1439.75 56.1543L1439.75 111.308M1439.75 56.1543L1439.75 1.17229M1374.33 56.1543L1308.91 56.1542M1374.33 56.1543L1374.33 111.308M1374.33 56.1543L1374.33 1.17228M1308.91 56.1542L1243.49 56.1542M1308.91 56.1542L1308.91 111.308M1308.91 56.1542L1308.91 1.17228M1243.49 56.1542L1178.07 56.1541M1243.49 56.1542L1243.49 111.308M1243.49 56.1542L1243.49 1.17227M1178.07 56.1541L1112.65 56.1541M1178.07 56.1541L1178.07 111.308M1178.07 56.1541L1178.07 1.17226M1112.65 56.1541L1047.23 56.154M1112.65 56.1541L1112.65 111.308M1112.65 56.1541L1112.65 1.17226M1047.23 56.154L981.807 56.154M1047.23 56.154L1047.23 111.308M1047.23 56.154L1047.23 1.17225M981.807 56.154L916.386 56.1539M981.807 56.154L981.807 111.308M981.807 56.154L981.807 1.17225M916.386 56.1539L850.965 56.1539M916.386 56.1539L916.386 111.308M916.386 56.1539L916.386 1.17225M850.965 56.1539L785.544 56.1538M850.965 56.1539L850.965 111.308M850.965 56.1539L850.965 1.17224M785.544 56.1538L720.327 56.1538M785.544 56.1538L785.544 111.308M785.544 56.1538L785.544 1.17223M1440 111.308L1439.8 111.308M1439.8 111.308L1439.75 111.308M1439.8 111.308L1439.8 166.462M1439.75 111.308L1374.33 111.308M1439.75 111.308L1439.75 166.462M1374.33 111.308L1308.91 111.308M1374.33 111.308L1374.33 166.462M1308.91 111.308L1243.49 111.308M1308.91 111.308L1308.91 166.462M1243.49 111.308L1178.07 111.308M1243.49 111.308L1243.49 166.462M1178.07 111.308L1112.65 111.308M1178.07 111.308L1178.07 166.462M1112.65 111.308L1047.23 111.308M1112.65 111.308L1112.65 166.462M1047.23 111.308L981.807 111.308M1047.23 111.308L1047.23 166.462M981.807 111.308L916.386 111.308M981.807 111.308L981.807 166.462M916.386 111.308L850.965 111.308M916.386 111.308L916.386 166.462M850.965 111.308L785.544 111.308M850.965 111.308L850.965 166.461M785.544 111.308L720.327 111.308M785.544 111.308L785.544 166.461M1440 166.462L1439.8 166.462M1439.8 166.462L1439.75 166.462M1439.8 166.462L1439.8 221.616M1439.75 166.462L1374.33 166.462M1439.75 166.462L1439.75 221.616M1374.33 166.462L1308.91 166.462M1374.33 166.462L1374.33 221.616M1308.91 166.462L1243.49 166.462M1308.91 166.462L1308.91 221.616M1243.49 166.462L1178.07 166.462M1243.49 166.462L1243.49 221.616M1178.07 166.462L1112.65 166.462M1178.07 166.462L1178.07 221.616M1112.65 166.462L1047.23 166.462M1112.65 166.462L1112.65 221.616M1047.23 166.462L981.807 166.462M1047.23 166.462L1047.23 221.615M981.807 166.462L916.386 166.462M981.807 166.462L981.807 221.615M916.386 166.462L850.965 166.461M916.386 166.462L916.386 221.615M850.965 166.461L785.544 166.461M850.965 166.461L850.965 221.615M785.544 166.461L720.327 166.461M785.544 166.461L785.544 221.615M1440 221.616L1439.8 221.616M1439.8 221.616L1439.75 221.616M1439.8 221.616L1439.8 276.77M1439.75 221.616L1374.33 221.616M1439.75 221.616L1439.75 276.77M1374.33 221.616L1308.91 221.616M1374.33 221.616L1374.33 276.77M1308.91 221.616L1243.49 221.616M1308.91 221.616L1308.91 276.77M1243.49 221.616L1178.07 221.616M1243.49 221.616L1243.49 276.77M1178.07 221.616L1112.65 221.616M1178.07 221.616L1178.07 276.769M1112.65 221.616L1047.23 221.615M1112.65 221.616L1112.65 276.769M1047.23 221.615L981.807 221.615M1047.23 221.615L1047.23 276.769M981.807 221.615L916.386 221.615M981.807 221.615L981.807 276.769M916.386 221.615L850.965 221.615M916.386 221.615L916.386 276.769M850.965 221.615L785.544 221.615M850.965 221.615L850.965 276.769M785.544 221.615L720.327 221.615M785.544 221.615L785.544 276.769M1440 276.77L1439.8 276.77M1439.8 276.77L1439.75 276.77M1439.8 276.77L1439.8 331.923M1439.75 276.77L1374.33 276.77M1439.75 276.77L1439.75 331.923M1374.33 276.77L1308.91 276.77M1374.33 276.77L1374.33 331.923M1308.91 276.77L1243.49 276.77M1308.91 276.77L1308.91 331.923M1243.49 276.77L1178.07 276.769M1243.49 276.77L1243.49 331.923M1178.07 276.769L1112.65 276.769M1178.07 276.769L1178.07 331.923M1112.65 276.769L1047.23 276.769M1112.65 276.769L1112.65 331.923M1047.23 276.769L981.807 276.769M1047.23 276.769L1047.23 331.923M981.807 276.769L916.386 276.769M981.807 276.769L981.807 331.923M916.386 276.769L850.965 276.769M916.386 276.769L916.386 331.923M850.965 276.769L785.544 276.769M850.965 276.769L850.965 331.923M785.544 276.769L720.327 276.769M785.544 276.769L785.544 331.923M1440 331.923L1439.8 331.923M1439.8 331.923L1439.75 331.923M1439.8 331.923L1439.8 387.077M1439.75 331.923L1374.33 331.923M1439.75 331.923L1439.75 387.077M1374.33 331.923L1308.91 331.923M1374.33 331.923L1374.33 387.077M1308.91 331.923L1243.49 331.923M1308.91 331.923L1308.91 387.077M1243.49 331.923L1178.07 331.923M1243.49 331.923L1243.49 387.077M1178.07 331.923L1112.65 331.923M1178.07 331.923L1178.07 387.077M1112.65 331.923L1047.23 331.923M1112.65 331.923L1112.65 387.077M1047.23 331.923L981.807 331.923M1047.23 331.923L1047.23 387.077M981.807 331.923L916.386 331.923M981.807 331.923L981.807 387.077M916.386 331.923L850.965 331.923M916.386 331.923L916.386 387.077M850.965 331.923L785.544 331.923M850.965 331.923L850.965 387.077M785.544 331.923L720.327 331.923M785.544 331.923L785.544 387.077M1440 387.077L1439.8 387.077M1439.8 387.077L1439.75 387.077M1439.8 387.077L1439.8 442.231M1439.75 387.077L1374.33 387.077M1439.75 387.077L1439.75 442.231M1374.33 387.077L1308.91 387.077M1374.33 387.077L1374.33 442.231M1308.91 387.077L1243.49 387.077M1308.91 387.077L1308.91 442.231M1243.49 387.077L1178.07 387.077M1243.49 387.077L1243.49 442.231M1178.07 387.077L1112.65 387.077M1178.07 387.077L1178.07 442.231M1112.65 387.077L1047.23 387.077M1112.65 387.077L1112.65 442.231M1047.23 387.077L981.807 387.077M1047.23 387.077L1047.23 442.231M981.807 387.077L916.386 387.077M981.807 387.077L981.807 442.231M916.386 387.077L850.965 387.077M916.386 387.077L916.386 442.231M850.965 387.077L785.544 387.077M850.965 387.077L850.965 442.231M785.544 387.077L720.327 387.077M785.544 387.077L785.544 442.231M1440 442.231L1439.8 442.231M1439.8 442.231L1439.75 442.231M1439.8 442.231L1439.8 497.385M1439.75 442.231L1374.33 442.231M1439.75 442.231L1439.75 497.385M1374.33 442.231L1308.91 442.231M1374.33 442.231L1374.33 497.385M1308.91 442.231L1243.49 442.231M1308.91 442.231L1308.91 497.385M1243.49 442.231L1178.07 442.231M1243.49 442.231L1243.49 497.385M1178.07 442.231L1112.65 442.231M1178.07 442.231L1178.07 497.385M1112.65 442.231L1047.23 442.231M1112.65 442.231L1112.65 497.385M1047.23 442.231L981.807 442.231M1047.23 442.231L1047.23 497.385M981.807 442.231L916.386 442.231M981.807 442.231L981.807 497.384M916.386 442.231L850.965 442.231M916.386 442.231L916.386 497.384M850.965 442.231L785.544 442.231M850.965 442.231L850.965 497.384M785.544 442.231L720.327 442.231M785.544 442.231L785.543 497.384M1440 497.385L1439.8 497.385M1439.8 497.385L1439.75 497.385M1439.8 497.385L1439.8 552.539M1439.75 497.385L1374.33 497.385M1439.75 497.385L1439.75 552.539M1374.33 497.385L1308.91 497.385M1374.33 497.385L1374.33 552.539M1308.91 497.385L1243.49 497.385M1308.91 497.385L1308.91 552.538M1243.49 497.385L1178.07 497.385M1243.49 497.385L1243.49 552.538M1178.07 497.385L1112.65 497.385M1178.07 497.385L1178.07 552.538M1112.65 497.385L1047.23 497.385M1112.65 497.385L1112.65 552.538M1047.23 497.385L981.807 497.384M1047.23 497.385L1047.23 552.538M981.807 497.384L916.386 497.384M981.807 497.384L981.807 552.538M916.386 497.384L850.965 497.384M916.386 497.384L916.386 552.538M850.965 497.384L785.543 497.384M850.965 497.384L850.965 552.538M785.543 497.384L720.327 497.384M785.543 497.384L785.543 552.538M1440 552.539L1439.8 552.539M1439.8 552.539L1439.75 552.539M1439.8 552.539L1439.8 607.692M1439.75 552.539L1374.33 552.539M1439.75 552.539L1439.75 607.692M1374.33 552.539L1308.91 552.538M1374.33 552.539L1374.33 607.692M1308.91 552.538L1243.49 552.538M1308.91 552.538L1308.91 607.692M1243.49 552.538L1178.07 552.538M1243.49 552.538L1243.49 607.692M1178.07 552.538L1112.65 552.538M1178.07 552.538L1178.07 607.692M1112.65 552.538L1047.23 552.538M1112.65 552.538L1112.65 607.692M1047.23 552.538L981.807 552.538M1047.23 552.538L1047.23 607.692M981.807 552.538L916.386 552.538M981.807 552.538L981.807 607.692M916.386 552.538L850.965 552.538M916.386 552.538L916.386 607.692M850.965 552.538L785.543 552.538M850.965 552.538L850.965 607.692M785.543 552.538L720.327 552.538M785.543 552.538L785.543 607.692M1440 607.692L1439.8 607.692M1439.8 607.692L1439.75 607.692M1439.8 607.692L1439.8 662.846M1439.75 607.692L1374.33 607.692M1439.75 607.692L1439.75 662.846M1374.33 607.692L1308.91 607.692M1374.33 607.692L1374.33 662.846M1308.91 607.692L1243.49 607.692M1308.91 607.692L1308.91 662.846M1243.49 607.692L1178.07 607.692M1243.49 607.692L1243.49 662.846M1178.07 607.692L1112.65 607.692M1178.07 607.692L1178.07 662.846M1112.65 607.692L1047.23 607.692M1112.65 607.692L1112.65 662.846M1047.23 607.692L981.807 607.692M1047.23 607.692L1047.23 662.846M981.807 607.692L916.386 607.692M981.807 607.692L981.807 662.846M916.386 607.692L850.965 607.692M916.386 607.692L916.386 662.846M850.965 607.692L785.543 607.692M850.965 607.692L850.965 662.846M785.543 607.692L720.327 607.692M785.543 607.692L785.543 662.846M1440 662.846L1439.8 662.846M1439.8 662.846L1439.75 662.846M1439.8 662.846L1439.8 717.828M1439.75 662.846L1374.33 662.846M1439.75 662.846L1439.75 717.827M1374.33 662.846L1308.91 662.846M1374.33 662.846L1374.33 717.827M1308.91 662.846L1243.49 662.846M1308.91 662.846L1308.91 717.827M1243.49 662.846L1178.07 662.846M1243.49 662.846L1243.49 717.827M1178.07 662.846L1112.65 662.846M1178.07 662.846L1178.07 717.827M1112.65 662.846L1047.23 662.846M1112.65 662.846L1112.65 717.827M1047.23 662.846L981.807 662.846M1047.23 662.846L1047.23 717.827M981.807 662.846L916.386 662.846M981.807 662.846L981.807 717.827M916.386 662.846L850.965 662.846M916.386 662.846L916.386 717.827M850.965 662.846L785.543 662.846M850.965 662.846L850.965 717.827M785.543 662.846L720.327 662.845M785.543 662.846L785.543 717.827M1440 718L720.327 717.999M720.122 717.827L720.123 1.17223M720.123 1.0005L0.449308 0.999937M720.122 56.1543L719.918 56.1543M719.918 56.1543L719.878 56.1543M719.918 56.1543L719.918 111.308M719.918 56.1543L719.918 1.17275M719.878 56.1543L654.457 56.1543M719.878 56.1543L719.878 111.308M719.878 56.1543L719.878 1.17226M654.457 56.1543L589.036 56.1542M654.457 56.1543L654.457 111.308M654.457 56.1543L654.457 1.17225M589.036 56.1542L523.614 56.1542M589.036 56.1542L589.036 111.308M589.036 56.1542L589.036 1.17225M523.614 56.1542L458.193 56.1541M523.614 56.1542L523.614 111.308M523.614 56.1542L523.614 1.17224M458.193 56.1541L392.772 56.154M458.193 56.1541L458.193 111.308M458.193 56.1541L458.193 1.17223M392.772 56.154L327.351 56.154M392.772 56.154L392.772 111.308M392.772 56.154L392.772 1.17223M327.351 56.154L261.93 56.1539M327.351 56.154L327.351 111.308M327.351 56.154L327.351 1.17222M261.93 56.1539L196.508 56.1539M261.93 56.1539L261.93 111.308M261.93 56.1539L261.93 1.17222M196.508 56.1539L131.088 56.1538M196.508 56.1539L196.508 111.308M196.508 56.1539L196.508 1.17221M131.088 56.1538L65.6661 56.1538M131.088 56.1538L131.088 111.308M131.088 56.1538L131.088 1.17221M65.6661 56.1538L0.449305 56.1537M65.6661 56.1538L65.666 111.308M65.6661 56.1538L65.6661 1.1722M720.122 111.308L719.918 111.308M719.918 111.308L719.878 111.308M719.918 111.308L719.918 166.462M719.878 111.308L654.457 111.308M719.878 111.308L719.878 166.462M654.457 111.308L589.036 111.308M654.457 111.308L654.457 166.462M589.036 111.308L523.614 111.308M589.036 111.308L589.036 166.462M523.614 111.308L458.193 111.308M523.614 111.308L523.614 166.462M458.193 111.308L392.772 111.308M458.193 111.308L458.193 166.462M392.772 111.308L327.351 111.308M392.772 111.308L392.772 166.462M327.351 111.308L261.93 111.308M327.351 111.308L327.351 166.462M261.93 111.308L196.508 111.308M261.93 111.308L261.93 166.462M196.508 111.308L131.088 111.308M196.508 111.308L196.508 166.462M131.088 111.308L65.666 111.308M131.088 111.308L131.088 166.461M65.666 111.308L0.449303 111.308M65.666 111.308L65.666 166.461M720.122 166.462L719.918 166.462M719.918 166.462L719.878 166.462M719.918 166.462L719.918 221.616M719.878 166.462L654.457 166.462M719.878 166.462L719.877 221.616M654.457 166.462L589.036 166.462M654.457 166.462L654.457 221.616M589.036 166.462L523.614 166.462M589.036 166.462L589.036 221.616M523.614 166.462L458.193 166.462M523.614 166.462L523.614 221.616M458.193 166.462L392.772 166.462M458.193 166.462L458.193 221.616M392.772 166.462L327.351 166.462M392.772 166.462L392.772 221.615M327.351 166.462L261.93 166.462M327.351 166.462L327.351 221.615M261.93 166.462L196.508 166.462M261.93 166.462L261.93 221.615M196.508 166.462L131.088 166.461M196.508 166.462L196.508 221.615M131.088 166.461L65.666 166.461M131.088 166.461L131.088 221.615M65.666 166.461L0.4493 166.461M65.666 166.461L65.666 221.615M720.122 221.616L719.918 221.616M719.918 221.616L719.877 221.616M719.918 221.616L719.918 276.77M719.877 221.616L654.457 221.616M719.877 221.616L719.877 276.77M654.457 221.616L589.036 221.616M654.457 221.616L654.457 276.77M589.036 221.616L523.614 221.616M589.036 221.616L589.036 276.77M523.614 221.616L458.193 221.616M523.614 221.616L523.614 276.769M458.193 221.616L392.772 221.615M458.193 221.616L458.193 276.769M392.772 221.615L327.351 221.615M392.772 221.615L392.772 276.769M327.351 221.615L261.93 221.615M327.351 221.615L327.351 276.769M261.93 221.615L196.508 221.615M261.93 221.615L261.93 276.769M196.508 221.615L131.088 221.615M196.508 221.615L196.508 276.769M131.088 221.615L65.666 221.615M131.088 221.615L131.088 276.769M65.666 221.615L0.449298 221.615M65.666 221.615L65.666 276.769M720.122 276.77L719.918 276.77M719.918 276.77L719.877 276.77M719.918 276.77L719.918 331.923M719.877 276.77L654.457 276.77M719.877 276.77L719.877 331.923M654.457 276.77L589.036 276.77M654.457 276.77L654.456 331.923M589.036 276.77L523.614 276.769M589.036 276.77L589.036 331.923M523.614 276.769L458.193 276.769M523.614 276.769L523.614 331.923M458.193 276.769L392.772 276.769M458.193 276.769L458.193 331.923M392.772 276.769L327.351 276.769M392.772 276.769L392.772 331.923M327.351 276.769L261.93 276.769M327.351 276.769L327.351 331.923M261.93 276.769L196.508 276.769M261.93 276.769L261.93 331.923M196.508 276.769L131.088 276.769M196.508 276.769L196.508 331.923M131.088 276.769L65.666 276.769M131.088 276.769L131.088 331.923M65.666 276.769L0.449296 276.769M65.666 276.769L65.666 331.923M720.122 331.923L719.918 331.923M719.918 331.923L719.877 331.923M719.918 331.923L719.918 387.077M719.877 331.923L654.456 331.923M719.877 331.923L719.877 387.077M654.456 331.923L589.036 331.923M654.456 331.923L654.456 387.077M589.036 331.923L523.614 331.923M589.036 331.923L589.036 387.077M523.614 331.923L458.193 331.923M523.614 331.923L523.614 387.077M458.193 331.923L392.772 331.923M458.193 331.923L458.193 387.077M392.772 331.923L327.351 331.923M392.772 331.923L392.772 387.077M327.351 331.923L261.93 331.923M327.351 331.923L327.351 387.077M261.93 331.923L196.508 331.923M261.93 331.923L261.93 387.077M196.508 331.923L131.088 331.923M196.508 331.923L196.508 387.077M131.088 331.923L65.666 331.923M131.088 331.923L131.088 387.077M65.666 331.923L0.449293 331.923M65.666 331.923L65.666 387.077M720.122 387.077L719.918 387.077M719.918 387.077L719.877 387.077M719.918 387.077L719.918 442.231M719.877 387.077L654.456 387.077M719.877 387.077L719.877 442.231M654.456 387.077L589.036 387.077M654.456 387.077L654.456 442.231M589.036 387.077L523.614 387.077M589.036 387.077L589.036 442.231M523.614 387.077L458.193 387.077M523.614 387.077L523.614 442.231M458.193 387.077L392.772 387.077M458.193 387.077L458.193 442.231M392.772 387.077L327.351 387.077M392.772 387.077L392.772 442.231M327.351 387.077L261.93 387.077M327.351 387.077L327.351 442.231M261.93 387.077L196.508 387.077M261.93 387.077L261.93 442.231M196.508 387.077L131.088 387.077M196.508 387.077L196.508 442.231M131.088 387.077L65.666 387.077M131.088 387.077L131.088 442.231M65.666 387.077L0.449291 387.077M65.666 387.077L65.666 442.231M720.122 442.231L719.918 442.231M719.918 442.231L719.877 442.231M719.918 442.231L719.918 497.385M719.877 442.231L654.456 442.231M719.877 442.231L719.877 497.385M654.456 442.231L589.036 442.231M654.456 442.231L654.456 497.385M589.036 442.231L523.614 442.231M589.036 442.231L589.036 497.385M523.614 442.231L458.193 442.231M523.614 442.231L523.614 497.385M458.193 442.231L392.772 442.231M458.193 442.231L458.193 497.385M392.772 442.231L327.351 442.231M392.772 442.231L392.772 497.385M327.351 442.231L261.93 442.231M327.351 442.231L327.351 497.384M261.93 442.231L196.508 442.231M261.93 442.231L261.93 497.384M196.508 442.231L131.088 442.231M196.508 442.231L196.508 497.384M131.088 442.231L65.666 442.231M131.088 442.231L131.088 497.384M65.666 442.231L0.449288 442.231M65.666 442.231L65.6659 497.384M720.122 497.385L719.918 497.385M719.918 497.385L719.877 497.385M719.918 497.385L719.918 552.539M719.877 497.385L654.456 497.385M719.877 497.385L719.877 552.539M654.456 497.385L589.036 497.385M654.456 497.385L654.456 552.539M589.036 497.385L523.614 497.385M589.036 497.385L589.036 552.538M523.614 497.385L458.193 497.385M523.614 497.385L523.614 552.538M458.193 497.385L392.772 497.385M458.193 497.385L458.193 552.538M392.772 497.385L327.351 497.384M392.772 497.385L392.772 552.538M327.351 497.384L261.93 497.384M327.351 497.384L327.351 552.538M261.93 497.384L196.508 497.384M261.93 497.384L261.93 552.538M196.508 497.384L131.088 497.384M196.508 497.384L196.508 552.538M131.088 497.384L65.6659 497.384M131.088 497.384L131.088 552.538M65.6659 497.384L0.449286 497.384M65.6659 497.384L65.6659 552.538M720.122 552.539L719.918 552.539M719.918 552.539L719.877 552.539M719.918 552.539L719.918 607.692M719.877 552.539L654.456 552.539M719.877 552.539L719.877 607.692M654.456 552.539L589.036 552.538M654.456 552.539L654.456 607.692M589.036 552.538L523.614 552.538M589.036 552.538L589.036 607.692M523.614 552.538L458.193 552.538M523.614 552.538L523.614 607.692M458.193 552.538L392.772 552.538M458.193 552.538L458.193 607.692M392.772 552.538L327.351 552.538M392.772 552.538L392.772 607.692M327.351 552.538L261.93 552.538M327.351 552.538L327.351 607.692M261.93 552.538L196.508 552.538M261.93 552.538L261.93 607.692M196.508 552.538L131.088 552.538M196.508 552.538L196.508 607.692M131.088 552.538L65.6659 552.538M131.088 552.538L131.088 607.692M65.6659 552.538L0.449283 552.538M65.6659 552.538L65.6659 607.692M720.122 607.692L719.918 607.692M719.918 607.692L719.877 607.692M719.918 607.692L719.918 662.846M719.877 607.692L654.456 607.692M719.877 607.692L719.877 662.846M654.456 607.692L589.036 607.692M654.456 607.692L654.456 662.846M589.036 607.692L523.614 607.692M589.036 607.692L589.036 662.846M523.614 607.692L458.193 607.692M523.614 607.692L523.614 662.846M458.193 607.692L392.772 607.692M458.193 607.692L458.193 662.846M392.772 607.692L327.351 607.692M392.772 607.692L392.772 662.846M327.351 607.692L261.93 607.692M327.351 607.692L327.351 662.846M261.93 607.692L196.508 607.692M261.93 607.692L261.93 662.846M196.508 607.692L131.088 607.692M196.508 607.692L196.508 662.846M131.088 607.692L65.6659 607.692M131.088 607.692L131.088 662.846M65.6659 607.692L0.449281 607.692M65.6659 607.692L65.6659 662.846M720.122 662.846L719.918 662.846M719.918 662.846L719.877 662.846M719.918 662.846L719.918 717.828M719.877 662.846L654.456 662.846M719.877 662.846L719.877 717.827M654.456 662.846L589.036 662.846M654.456 662.846L654.456 717.827M589.036 662.846L523.614 662.846M589.036 662.846L589.036 717.827M523.614 662.846L458.193 662.846M523.614 662.846L523.614 717.827M458.193 662.846L392.772 662.846M458.193 662.846L458.193 717.827M392.772 662.846L327.351 662.846M392.772 662.846L392.772 717.827M327.351 662.846L261.93 662.846M327.351 662.846L327.351 717.827M261.93 662.846L196.508 662.846M261.93 662.846L261.93 717.827M196.508 662.846L131.088 662.846M196.508 662.846L196.508 717.827M131.088 662.846L65.6659 662.846M131.088 662.846L131.088 717.827M65.6659 662.846L0.449279 662.845M65.6659 662.846L65.6659 717.827M720.122 718L0.449276 717.999M0.244971 717.827L0.245106 1.1722M0.245 56.1543L0.040591 56.1543M0.040591 56.1543L-4.20617e-05 56.1543M0.040591 56.1543L0.0405885 111.308M0.040591 56.1543L0.0405934 1.17272M-4.20617e-05 56.1543L-4.44725e-05 111.308M-4.20617e-05 56.1543L-3.96584e-05 1.17222M0.244997 111.308L0.0405885 111.308M0.0405885 111.308L-4.44725e-05 111.308M0.0405885 111.308L0.0405861 166.462M-4.44725e-05 111.308L-4.68834e-05 166.462M0.244995 166.462L0.0405861 166.462M0.0405861 166.462L-4.68834e-05 166.462M0.0405861 166.462L0.0405837 221.616M-4.68834e-05 166.462L-4.92942e-05 221.616M0.244993 221.616L0.0405837 221.616M0.0405837 221.616L-4.92942e-05 221.616M0.0405837 221.616L0.0405813 276.77M-4.92942e-05 221.616L-5.17051e-05 276.77M0.24499 276.77L0.0405813 276.77M0.0405813 276.77L-5.17051e-05 276.77M0.0405813 276.77L0.0404752 331.923M-5.17051e-05 276.77L-5.41159e-05 331.923M0.244988 331.923L0.0404752 331.923M0.0404752 331.923L-5.41159e-05 331.923M0.0404752 331.923L0.0404728 387.077M-5.41159e-05 331.923L-5.65268e-05 387.077M0.244985 387.077L0.0404728 387.077M0.0404728 387.077L-5.65268e-05 387.077M0.0404728 387.077L0.0404704 442.231M-5.65268e-05 387.077L-5.89376e-05 442.231M0.244983 442.231L0.0404704 442.231M0.0404704 442.231L-5.89376e-05 442.231M0.0404704 442.231L0.040468 497.385M-5.89376e-05 442.231L-6.13485e-05 497.385M0.244981 497.385L0.040468 497.385M0.040468 497.385L-6.13485e-05 497.385M0.040468 497.385L0.0404656 552.539M-6.13485e-05 497.385L-6.37593e-05 552.539M0.244978 552.539L0.0404656 552.539M0.0404656 552.539L-6.37593e-05 552.539M0.0404656 552.539L0.0404632 607.692M-6.37593e-05 552.539L-6.61702e-05 607.692M0.244976 607.692L0.0404632 607.692M0.0404632 607.692L-6.61702e-05 607.692M0.0404632 607.692L0.0404608 662.846M-6.61702e-05 607.692L-6.8581e-05 662.846M0.244973 662.846L0.0404608 662.846M0.0404608 662.846L-6.8581e-05 662.846M0.0404608 662.846L0.0404584 717.828M-6.8581e-05 662.846L-7.09843e-05 717.827" stroke="url(#paint0_radial_0_112)" stroke-width="1.20021"/>
  <defs>
    <radialGradient id="paint0_radial_0_112" cx="0" cy="0" r="1" gradientUnits="userSpaceOnUse" gradientTransform="translate(720 359.5) rotate(-180) scale(720 358.5)">
      <stop stop-color="white"/>
      <stop offset="1" stop-color="white" stop-opacity="0"/>
    </radialGradient>
  </defs>
</svg>