<svg width="33" height="37" viewBox="0 0 33 37" fill="none" xmlns="http://www.w3.org/2000/svg">
<path d="M28.5249 7.19625C28.5032 7.00117 28.3298 6.91446 28.1997 6.91446C28.0697 6.91446 25.2302 6.69771 25.2302 6.69771C25.2302 6.69771 23.2577 4.72525 23.0193 4.53017C22.8026 4.31341 22.3907 4.37844 22.2173 4.42179C22.1956 4.42179 21.7838 4.55184 21.1119 4.7686C20.4399 2.83948 19.2911 1.08377 17.232 1.08377H17.0369C16.4733 0.346807 15.7364 0 15.1295 0C10.3609 0 8.06326 5.96075 7.34797 8.99531C5.48389 9.58054 4.16168 9.9707 4.00996 10.0357C2.96953 10.3609 2.94786 10.3825 2.81781 11.3579C2.70943 12.0949 0 33.055 0 33.055L21.0902 37L32.5348 34.529C32.5565 34.4856 28.5466 7.39132 28.5249 7.19625ZM19.9414 5.07205C19.4212 5.22378 18.7926 5.41886 18.164 5.63561V5.24546C18.164 4.07498 18.0123 3.12126 17.7305 2.36262C18.8143 2.49268 19.4862 3.68482 19.9414 5.07205ZM16.4083 2.60105C16.6901 3.33802 16.8852 4.37844 16.8852 5.80902V6.02577C15.7147 6.39425 14.4792 6.76274 13.2003 7.17457C13.9156 4.44346 15.2812 3.09959 16.4083 2.60105ZM15.0211 1.25718C15.2378 1.25718 15.4546 1.34388 15.628 1.47393C14.089 2.18922 12.4634 3.98828 11.7914 7.62975C10.7727 7.95489 9.7973 8.23667 8.86525 8.54012C9.64557 5.76567 11.5964 1.25718 15.0211 1.25718Z" fill="#BE0B31"/>
<path d="M28.1997 6.87116C28.0697 6.87116 25.2302 6.65441 25.2302 6.65441C25.2302 6.65441 23.2577 4.68194 23.0193 4.48686C22.9326 4.40016 22.8242 4.35681 22.7375 4.35681L21.1552 37L32.5998 34.529C32.5998 34.529 28.5899 7.39137 28.5682 7.19629C28.4815 7.00121 28.3298 6.91451 28.1997 6.87116Z" fill="#BE0B31"/>
<path d="M17.232 13.2003L15.8447 17.3837C15.8447 17.3837 14.5876 16.7118 13.092 16.7118C10.8594 16.7118 10.751 18.1207 10.751 18.4675C10.751 20.3749 15.7364 21.1119 15.7364 25.5987C15.7364 29.1318 13.5038 31.4077 10.4909 31.4077C6.84944 31.4077 5.0287 29.1535 5.0287 29.1535L6.0041 25.9455C6.0041 25.9455 7.91154 27.5928 9.51552 27.5928C10.5776 27.5928 11.0111 26.7692 11.0111 26.1622C11.0111 23.6696 6.93614 23.5612 6.93614 19.4429C6.93614 15.9965 9.40714 12.6584 14.4142 12.6584C16.2783 12.6368 17.232 13.2003 17.232 13.2003Z" fill="white"/>
</svg>
