<svg xmlns="http://www.w3.org/2000/svg" width="19" height="18" viewBox="0 0 19 18" fill="none">
  <path d="M9.5 7.3125C8.56802 7.3125 7.8125 8.06802 7.8125 9C7.8125 9.93198 8.56802 10.6875 9.5 10.6875C10.432 10.6875 11.1875 9.93198 11.1875 9C11.1875 8.06802 10.432 7.3125 9.5 7.3125Z" fill="#1D1D21" fill-opacity="0.25"/>
  <path fill-rule="evenodd" clip-rule="evenodd" d="M9.5 4.125C7.53667 4.125 5.77101 4.91354 4.49871 5.89002C3.86174 6.37889 3.33908 6.92185 2.97237 7.45026C2.61265 7.96861 2.375 8.51365 2.375 9C2.375 9.48635 2.61265 10.0314 2.97237 10.5497C3.33908 11.0782 3.86174 11.6211 4.49871 12.11C5.77101 13.0865 7.53667 13.875 9.5 13.875C11.4633 13.875 13.229 13.0865 14.5013 12.11C15.1383 11.6211 15.6609 11.0782 16.0276 10.5497C16.3874 10.0314 16.625 9.48635 16.625 9C16.625 8.51365 16.3874 7.96861 16.0276 7.45026C15.6609 6.92185 15.1383 6.37889 14.5013 5.89002C13.229 4.91354 11.4633 4.125 9.5 4.125ZM6.6875 9C6.6875 7.4467 7.9467 6.1875 9.5 6.1875C11.0533 6.1875 12.3125 7.4467 12.3125 9C12.3125 10.5533 11.0533 11.8125 9.5 11.8125C7.9467 11.8125 6.6875 10.5533 6.6875 9Z" fill="#1D1D21" fill-opacity="0.25"/>
</svg>