<svg width="272" height="105" viewBox="0 0 272 105" fill="none" xmlns="http://www.w3.org/2000/svg">
<rect x="0.5" y="0.5" width="271" height="104" rx="9.5" fill="#FAFAFA" stroke="#002768"/>
<path d="M253 15.902V22.098C253 22.1694 252.981 22.2395 252.945 22.3011C252.908 22.3626 252.856 22.4133 252.794 22.448L247.194 25.5586C247.135 25.5916 247.068 25.6088 247 25.6088C246.932 25.6088 246.865 25.5916 246.806 25.5586L241.206 22.448C241.144 22.4133 241.092 22.3626 241.055 22.3011C241.019 22.2395 241 22.1694 241 22.098V15.902C241 15.8307 241.019 15.7607 241.055 15.6993C241.092 15.6378 241.144 15.5872 241.206 15.5526L246.806 12.4413C246.865 12.4084 246.932 12.3911 247 12.3911C247.068 12.3911 247.135 12.4084 247.194 12.4413L252.794 15.5526C252.856 15.5872 252.908 15.6378 252.945 15.6993C252.981 15.7607 253 15.8307 253 15.902Z" stroke="#002768" stroke-linecap="round" stroke-linejoin="round"/>
<path d="M241.352 15.8626L246.805 18.8919C246.865 18.925 246.932 18.9423 247 18.9423C247.068 18.9423 247.135 18.925 247.194 18.8919L252.667 15.8519M247 24.9999V18.9999" stroke="#002768" stroke-linecap="round" stroke-linejoin="round"/>
<rect x="170" y="64" width="85" height="29" rx="14.5" fill="#002768"/>
<path d="M188.659 78.6364C188.659 79.5767 188.483 80.3821 188.131 81.0526C187.781 81.7202 187.304 82.2315 186.699 82.5866C186.097 82.9418 185.413 83.1193 184.649 83.1193C183.885 83.1193 183.2 82.9418 182.595 82.5866C181.993 82.2287 181.516 81.7159 181.163 81.0483C180.814 80.3778 180.639 79.5739 180.639 78.6364C180.639 77.696 180.814 76.892 181.163 76.2244C181.516 75.554 181.993 75.0412 182.595 74.6861C183.2 74.331 183.885 74.1534 184.649 74.1534C185.413 74.1534 186.097 74.331 186.699 74.6861C187.304 75.0412 187.781 75.554 188.131 76.2244C188.483 76.892 188.659 77.696 188.659 78.6364ZM187.07 78.6364C187.07 77.9744 186.966 77.4162 186.759 76.9616C186.554 76.5043 186.27 76.1591 185.906 75.9261C185.543 75.6903 185.124 75.5724 184.649 75.5724C184.175 75.5724 183.756 75.6903 183.392 75.9261C183.028 76.1591 182.743 76.5043 182.536 76.9616C182.331 77.4162 182.229 77.9744 182.229 78.6364C182.229 79.2983 182.331 79.858 182.536 80.3153C182.743 80.7699 183.028 81.1151 183.392 81.3509C183.756 81.5838 184.175 81.7003 184.649 81.7003C185.124 81.7003 185.543 81.5838 185.906 81.3509C186.27 81.1151 186.554 80.7699 186.759 80.3153C186.966 79.858 187.07 79.2983 187.07 78.6364ZM189.726 83V76.4545H191.221V77.5455H191.29C191.409 77.1676 191.613 76.8764 191.903 76.6719C192.196 76.4645 192.53 76.3608 192.905 76.3608C192.99 76.3608 193.085 76.3651 193.19 76.3736C193.298 76.3793 193.388 76.3892 193.459 76.4034V77.8224C193.393 77.7997 193.29 77.7798 193.147 77.7628C193.008 77.7429 192.873 77.733 192.743 77.733C192.461 77.733 192.209 77.794 191.984 77.9162C191.763 78.0355 191.588 78.2017 191.46 78.4148C191.332 78.6278 191.268 78.8736 191.268 79.152V83H189.726ZM196.283 83.1151C195.769 83.1151 195.308 82.983 194.902 82.7188C194.496 82.4545 194.175 82.071 193.939 81.5682C193.703 81.0653 193.585 80.4545 193.585 79.7358C193.585 79.0085 193.705 78.3949 193.943 77.8949C194.185 77.392 194.51 77.0128 194.919 76.7571C195.328 76.4986 195.784 76.3693 196.287 76.3693C196.671 76.3693 196.986 76.4347 197.233 76.5653C197.48 76.6932 197.676 76.848 197.821 77.0298C197.966 77.2088 198.078 77.3778 198.158 77.5369H198.222V74.2727H199.769V83H198.252V81.9688H198.158C198.078 82.1278 197.963 82.2969 197.813 82.4759C197.662 82.652 197.463 82.8026 197.216 82.9276C196.969 83.0526 196.658 83.1151 196.283 83.1151ZM196.713 81.8494C197.04 81.8494 197.318 81.7614 197.548 81.5852C197.779 81.4062 197.953 81.1577 198.073 80.8395C198.192 80.5213 198.252 80.1506 198.252 79.7273C198.252 79.304 198.192 78.9361 198.073 78.6236C197.956 78.3111 197.783 78.0682 197.553 77.8949C197.325 77.7216 197.046 77.6349 196.713 77.6349C196.369 77.6349 196.083 77.7244 195.852 77.9034C195.622 78.0824 195.449 78.3295 195.333 78.6449C195.216 78.9602 195.158 79.321 195.158 79.7273C195.158 80.1364 195.216 80.5014 195.333 80.8224C195.452 81.1406 195.627 81.392 195.857 81.5767C196.09 81.7585 196.375 81.8494 196.713 81.8494ZM203.95 83.1278C203.294 83.1278 202.727 82.9915 202.25 82.7188C201.775 82.4432 201.41 82.054 201.155 81.5511C200.899 81.0455 200.771 80.4503 200.771 79.7656C200.771 79.0923 200.899 78.5014 201.155 77.9929C201.413 77.4815 201.774 77.0838 202.237 76.7997C202.7 76.5128 203.244 76.3693 203.869 76.3693C204.273 76.3693 204.653 76.4347 205.011 76.5653C205.372 76.6932 205.69 76.892 205.966 77.1619C206.244 77.4318 206.463 77.7756 206.622 78.1932C206.781 78.608 206.861 79.1023 206.861 79.6761V80.1491H201.496V79.1094H205.382C205.379 78.8139 205.315 78.5511 205.19 78.321C205.065 78.0881 204.891 77.9048 204.666 77.7713C204.445 77.6378 204.186 77.571 203.891 77.571C203.575 77.571 203.298 77.6477 203.06 77.8011C202.821 77.9517 202.635 78.1506 202.501 78.3977C202.371 78.642 202.304 78.9105 202.301 79.2031V80.1108C202.301 80.4915 202.371 80.8182 202.51 81.0909C202.649 81.3608 202.844 81.5682 203.094 81.7131C203.344 81.8551 203.636 81.9261 203.971 81.9261C204.196 81.9261 204.399 81.8949 204.581 81.8324C204.763 81.767 204.92 81.6719 205.054 81.5469C205.187 81.4219 205.288 81.267 205.356 81.0824L206.797 81.2443C206.706 81.625 206.533 81.9574 206.277 82.2415C206.024 82.5227 205.7 82.7415 205.305 82.8977C204.91 83.0511 204.459 83.1278 203.95 83.1278ZM207.806 83V76.4545H209.301V77.5455H209.37C209.489 77.1676 209.694 76.8764 209.983 76.6719C210.276 76.4645 210.61 76.3608 210.985 76.3608C211.07 76.3608 211.165 76.3651 211.27 76.3736C211.378 76.3793 211.468 76.3892 211.539 76.4034V77.8224C211.473 77.7997 211.37 77.7798 211.228 77.7628C211.088 77.7429 210.953 77.733 210.823 77.733C210.542 77.733 210.289 77.794 210.064 77.9162C209.843 78.0355 209.668 78.2017 209.54 78.4148C209.412 78.6278 209.348 78.8736 209.348 79.152V83H207.806ZM214.888 83V74.2727H216.469V81.6747H220.313V83H214.888ZM223.141 83.1321C222.726 83.1321 222.352 83.0582 222.02 82.9105C221.69 82.7599 221.429 82.5384 221.236 82.2457C221.045 81.9531 220.95 81.5923 220.95 81.1634C220.95 80.794 221.018 80.4886 221.155 80.2472C221.291 80.0057 221.477 79.8125 221.713 79.6676C221.949 79.5227 222.214 79.4134 222.51 79.3395C222.808 79.2628 223.116 79.2074 223.435 79.1733C223.818 79.1335 224.129 79.098 224.368 79.0668C224.606 79.0327 224.78 78.9815 224.888 78.9134C224.998 78.8423 225.054 78.733 225.054 78.5852V78.5597C225.054 78.2386 224.959 77.9901 224.768 77.8139C224.578 77.6378 224.304 77.5497 223.946 77.5497C223.568 77.5497 223.268 77.6321 223.047 77.7969C222.828 77.9616 222.68 78.1562 222.604 78.3807L221.163 78.1761C221.277 77.7784 221.464 77.446 221.726 77.179C221.987 76.9091 222.307 76.7074 222.685 76.5739C223.062 76.4375 223.48 76.3693 223.937 76.3693C224.253 76.3693 224.567 76.4062 224.879 76.4801C225.192 76.554 225.477 76.6761 225.736 76.8466C225.994 77.0142 226.202 77.2429 226.358 77.5327C226.517 77.8224 226.596 78.1847 226.596 78.6193V83H225.114V82.1009H225.062C224.969 82.2827 224.837 82.4531 224.666 82.6122C224.498 82.7685 224.287 82.8949 224.031 82.9915C223.778 83.0852 223.481 83.1321 223.141 83.1321ZM223.541 81.9986C223.851 81.9986 224.119 81.9375 224.346 81.8153C224.574 81.6903 224.748 81.5256 224.871 81.321C224.996 81.1165 225.058 80.8935 225.058 80.652V79.8807C225.01 79.9205 224.927 79.9574 224.811 79.9915C224.697 80.0256 224.569 80.0554 224.427 80.081C224.285 80.1065 224.145 80.1293 224.006 80.1491C223.866 80.169 223.746 80.1861 223.643 80.2003C223.413 80.2315 223.207 80.2827 223.025 80.3537C222.844 80.4247 222.7 80.5241 222.595 80.652C222.49 80.777 222.437 80.9389 222.437 81.1378C222.437 81.4219 222.541 81.6364 222.748 81.7812C222.956 81.9261 223.22 81.9986 223.541 81.9986ZM227.856 83V74.2727H229.398V77.5369H229.462C229.542 77.3778 229.654 77.2088 229.799 77.0298C229.944 76.848 230.14 76.6932 230.387 76.5653C230.634 76.4347 230.95 76.3693 231.333 76.3693C231.839 76.3693 232.295 76.4986 232.701 76.7571C233.11 77.0128 233.434 77.392 233.673 77.8949C233.914 78.3949 234.035 79.0085 234.035 79.7358C234.035 80.4545 233.917 81.0653 233.681 81.5682C233.445 82.071 233.124 82.4545 232.718 82.7188C232.312 82.983 231.852 83.1151 231.337 83.1151C230.962 83.1151 230.651 83.0526 230.404 82.9276C230.157 82.8026 229.958 82.652 229.807 82.4759C229.66 82.2969 229.545 82.1278 229.462 81.9688H229.373V83H227.856ZM229.369 79.7273C229.369 80.1506 229.428 80.5213 229.548 80.8395C229.67 81.1577 229.844 81.4062 230.072 81.5852C230.302 81.7614 230.58 81.8494 230.907 81.8494C231.248 81.8494 231.533 81.7585 231.763 81.5767C231.994 81.392 232.167 81.1406 232.283 80.8224C232.403 80.5014 232.462 80.1364 232.462 79.7273C232.462 79.321 232.404 78.9602 232.288 78.6449C232.171 78.3295 231.998 78.0824 231.768 77.9034C231.538 77.7244 231.251 77.6349 230.907 77.6349C230.577 77.6349 230.298 77.7216 230.067 77.8949C229.837 78.0682 229.663 78.3111 229.543 78.6236C229.427 78.9361 229.369 79.304 229.369 79.7273ZM237.884 83.1278C237.228 83.1278 236.661 82.9915 236.184 82.7188C235.709 82.4432 235.344 82.054 235.088 81.5511C234.833 81.0455 234.705 80.4503 234.705 79.7656C234.705 79.0923 234.833 78.5014 235.088 77.9929C235.347 77.4815 235.708 77.0838 236.171 76.7997C236.634 76.5128 237.178 76.3693 237.803 76.3693C238.206 76.3693 238.587 76.4347 238.945 76.5653C239.306 76.6932 239.624 76.892 239.9 77.1619C240.178 77.4318 240.397 77.7756 240.556 78.1932C240.715 78.608 240.794 79.1023 240.794 79.6761V80.1491H235.429V79.1094H239.316C239.313 78.8139 239.249 78.5511 239.124 78.321C238.999 78.0881 238.824 77.9048 238.6 77.7713C238.378 77.6378 238.12 77.571 237.824 77.571C237.509 77.571 237.232 77.6477 236.993 77.8011C236.755 77.9517 236.569 78.1506 236.435 78.3977C236.304 78.642 236.238 78.9105 236.235 79.2031V80.1108C236.235 80.4915 236.304 80.8182 236.444 81.0909C236.583 81.3608 236.777 81.5682 237.027 81.7131C237.277 81.8551 237.57 81.9261 237.905 81.9261C238.13 81.9261 238.333 81.8949 238.515 81.8324C238.696 81.767 238.854 81.6719 238.988 81.5469C239.121 81.4219 239.222 81.267 239.29 81.0824L240.731 81.2443C240.64 81.625 240.466 81.9574 240.211 82.2415C239.958 82.5227 239.634 82.7415 239.239 82.8977C238.844 83.0511 238.392 83.1278 237.884 83.1278ZM243.282 74.2727V83H241.739V74.2727H243.282Z" fill="white"/>
<rect x="99" y="27" width="27" height="8" rx="4" fill="#E3E3E3"/>
<rect x="18" y="10" width="183" height="12" rx="6" fill="#E3E3E3"/>
<rect x="18" y="27" width="79" height="8" rx="4" fill="#E3E3E3"/>
<rect x="18" y="40" width="39" height="7" rx="3.5" fill="#E3E3E3"/>
<rect x="18" y="52" width="39" height="7" rx="3.5" fill="#E3E3E3"/>
<rect x="18" y="64" width="71" height="7" rx="3.5" fill="#E3E3E3"/>
<rect x="18" y="76" width="46" height="7" rx="3.5" fill="#E3E3E3"/>
<rect x="18" y="88" width="95" height="7" rx="3.5" fill="#E3E3E3"/>
</svg>
