<svg width="272" height="105" viewBox="0 0 272 105" fill="none" xmlns="http://www.w3.org/2000/svg">
<rect x="0.5" y="0.5" width="271" height="104" rx="9.5" fill="#FAFAFA" stroke="#BE0B31"/>
<rect x="170" y="64" width="84" height="29" rx="14.5" fill="#BE0B31"/>
<path d="M180.477 75.598V74.2727H187.44V75.598H184.743V83H183.175V75.598H180.477ZM187.675 83V76.4545H189.171V77.5455H189.239C189.358 77.1676 189.563 76.8764 189.852 76.6719C190.145 76.4645 190.479 76.3608 190.854 76.3608C190.939 76.3608 191.034 76.3651 191.139 76.3736C191.247 76.3793 191.337 76.3892 191.408 76.4034V77.8224C191.342 77.7997 191.239 77.7798 191.097 77.7628C190.957 77.7429 190.823 77.733 190.692 77.733C190.411 77.733 190.158 77.794 189.933 77.9162C189.712 78.0355 189.537 78.2017 189.409 78.4148C189.281 78.6278 189.217 78.8736 189.217 79.152V83H187.675ZM193.839 83.1321C193.424 83.1321 193.051 83.0582 192.718 82.9105C192.389 82.7599 192.127 82.5384 191.934 82.2457C191.744 81.9531 191.649 81.5923 191.649 81.1634C191.649 80.794 191.717 80.4886 191.853 80.2472C191.99 80.0057 192.176 79.8125 192.411 79.6676C192.647 79.5227 192.913 79.4134 193.208 79.3395C193.507 79.2628 193.815 79.2074 194.133 79.1733C194.517 79.1335 194.828 79.098 195.066 79.0668C195.305 79.0327 195.478 78.9815 195.586 78.9134C195.697 78.8423 195.752 78.733 195.752 78.5852V78.5597C195.752 78.2386 195.657 77.9901 195.467 77.8139C195.276 77.6378 195.002 77.5497 194.644 77.5497C194.267 77.5497 193.967 77.6321 193.745 77.7969C193.526 77.9616 193.379 78.1562 193.302 78.3807L191.862 78.1761C191.975 77.7784 192.163 77.446 192.424 77.179C192.686 76.9091 193.005 76.7074 193.383 76.5739C193.761 76.4375 194.178 76.3693 194.636 76.3693C194.951 76.3693 195.265 76.4062 195.578 76.4801C195.89 76.554 196.176 76.6761 196.434 76.8466C196.693 77.0142 196.9 77.2429 197.056 77.5327C197.215 77.8224 197.295 78.1847 197.295 78.6193V83H195.812V82.1009H195.761C195.667 82.2827 195.535 82.4531 195.365 82.6122C195.197 82.7685 194.985 82.8949 194.73 82.9915C194.477 83.0852 194.18 83.1321 193.839 83.1321ZM194.24 81.9986C194.549 81.9986 194.818 81.9375 195.045 81.8153C195.272 81.6903 195.447 81.5256 195.569 81.321C195.694 81.1165 195.757 80.8935 195.757 80.652V79.8807C195.708 79.9205 195.626 79.9574 195.509 79.9915C195.396 80.0256 195.268 80.0554 195.126 80.081C194.984 80.1065 194.843 80.1293 194.704 80.1491C194.565 80.169 194.444 80.1861 194.342 80.2003C194.112 80.2315 193.906 80.2827 193.724 80.3537C193.542 80.4247 193.399 80.5241 193.293 80.652C193.188 80.777 193.136 80.9389 193.136 81.1378C193.136 81.4219 193.24 81.6364 193.447 81.7812C193.654 81.9261 193.918 81.9986 194.24 81.9986ZM201.341 83.1278C200.688 83.1278 200.127 82.9844 199.658 82.6974C199.192 82.4105 198.833 82.0142 198.58 81.5085C198.33 81 198.205 80.4148 198.205 79.7528C198.205 79.0881 198.333 78.5014 198.588 77.9929C198.844 77.4815 199.205 77.0838 199.671 76.7997C200.139 76.5128 200.693 76.3693 201.333 76.3693C201.864 76.3693 202.334 76.4673 202.743 76.6634C203.155 76.8565 203.483 77.1307 203.728 77.4858C203.972 77.8381 204.111 78.25 204.145 78.7216H202.671C202.611 78.4062 202.469 78.1435 202.245 77.9332C202.023 77.7202 201.726 77.6136 201.354 77.6136C201.039 77.6136 200.762 77.6989 200.523 77.8693C200.284 78.0369 200.098 78.2784 199.965 78.5938C199.834 78.9091 199.769 79.2869 199.769 79.7273C199.769 80.1733 199.834 80.5568 199.965 80.8778C200.095 81.196 200.279 81.4418 200.514 81.6151C200.753 81.7855 201.033 81.8707 201.354 81.8707C201.581 81.8707 201.784 81.8281 201.963 81.7429C202.145 81.6548 202.297 81.5284 202.419 81.3636C202.541 81.1989 202.625 80.9986 202.671 80.7628H204.145C204.108 81.2259 203.972 81.6364 203.736 81.9943C203.5 82.3494 203.179 82.6278 202.773 82.8295C202.367 83.0284 201.889 83.1278 201.341 83.1278ZM206.458 80.946L206.454 79.0838H206.701L209.053 76.4545H210.856L207.962 79.6761H207.643L206.458 80.946ZM205.052 83V74.2727H206.594V83H205.052ZM209.16 83L207.029 80.0213L208.069 78.9347L211.005 83H209.16ZM214.209 83V74.2727H215.79V81.6747H219.633V83H214.209ZM222.461 83.1321C222.046 83.1321 221.672 83.0582 221.34 82.9105C221.011 82.7599 220.749 82.5384 220.556 82.2457C220.366 81.9531 220.27 81.5923 220.27 81.1634C220.27 80.794 220.339 80.4886 220.475 80.2472C220.611 80.0057 220.797 79.8125 221.033 79.6676C221.269 79.5227 221.535 79.4134 221.83 79.3395C222.128 79.2628 222.437 79.2074 222.755 79.1733C223.138 79.1335 223.449 79.098 223.688 79.0668C223.927 79.0327 224.1 78.9815 224.208 78.9134C224.319 78.8423 224.374 78.733 224.374 78.5852V78.5597C224.374 78.2386 224.279 77.9901 224.089 77.8139C223.898 77.6378 223.624 77.5497 223.266 77.5497C222.888 77.5497 222.589 77.6321 222.367 77.7969C222.148 77.9616 222.001 78.1562 221.924 78.3807L220.484 78.1761C220.597 77.7784 220.785 77.446 221.046 77.179C221.307 76.9091 221.627 76.7074 222.005 76.5739C222.383 76.4375 222.8 76.3693 223.258 76.3693C223.573 76.3693 223.887 76.4062 224.199 76.4801C224.512 76.554 224.797 76.6761 225.056 76.8466C225.315 77.0142 225.522 77.2429 225.678 77.5327C225.837 77.8224 225.917 78.1847 225.917 78.6193V83H224.434V82.1009H224.383C224.289 82.2827 224.157 82.4531 223.986 82.6122C223.819 82.7685 223.607 82.8949 223.351 82.9915C223.099 83.0852 222.802 83.1321 222.461 83.1321ZM222.861 81.9986C223.171 81.9986 223.44 81.9375 223.667 81.8153C223.894 81.6903 224.069 81.5256 224.191 81.321C224.316 81.1165 224.378 80.8935 224.378 80.652V79.8807C224.33 79.9205 224.248 79.9574 224.131 79.9915C224.018 80.0256 223.89 80.0554 223.748 80.081C223.606 80.1065 223.465 80.1293 223.326 80.1491C223.187 80.169 223.066 80.1861 222.964 80.2003C222.734 80.2315 222.528 80.2827 222.346 80.3537C222.164 80.4247 222.02 80.5241 221.915 80.652C221.81 80.777 221.758 80.9389 221.758 81.1378C221.758 81.4219 221.861 81.6364 222.069 81.7812C222.276 81.9261 222.54 81.9986 222.861 81.9986ZM227.176 83V74.2727H228.719V77.5369H228.783C228.862 77.3778 228.974 77.2088 229.119 77.0298C229.264 76.848 229.46 76.6932 229.707 76.5653C229.955 76.4347 230.27 76.3693 230.653 76.3693C231.159 76.3693 231.615 76.4986 232.021 76.7571C232.43 77.0128 232.754 77.392 232.993 77.8949C233.234 78.3949 233.355 79.0085 233.355 79.7358C233.355 80.4545 233.237 81.0653 233.001 81.5682C232.766 82.071 232.445 82.4545 232.038 82.7188C231.632 82.983 231.172 83.1151 230.658 83.1151C230.283 83.1151 229.972 83.0526 229.724 82.9276C229.477 82.8026 229.278 82.652 229.128 82.4759C228.98 82.2969 228.865 82.1278 228.783 81.9688H228.693V83H227.176ZM228.689 79.7273C228.689 80.1506 228.749 80.5213 228.868 80.8395C228.99 81.1577 229.165 81.4062 229.392 81.5852C229.622 81.7614 229.901 81.8494 230.227 81.8494C230.568 81.8494 230.854 81.7585 231.084 81.5767C231.314 81.392 231.487 81.1406 231.604 80.8224C231.723 80.5014 231.783 80.1364 231.783 79.7273C231.783 79.321 231.724 78.9602 231.608 78.6449C231.491 78.3295 231.318 78.0824 231.088 77.9034C230.858 77.7244 230.571 77.6349 230.227 77.6349C229.898 77.6349 229.618 77.7216 229.388 77.8949C229.158 78.0682 228.983 78.3111 228.864 78.6236C228.747 78.9361 228.689 79.304 228.689 79.7273ZM237.204 83.1278C236.548 83.1278 235.981 82.9915 235.504 82.7188C235.03 82.4432 234.664 82.054 234.409 81.5511C234.153 81.0455 234.025 80.4503 234.025 79.7656C234.025 79.0923 234.153 78.5014 234.409 77.9929C234.667 77.4815 235.028 77.0838 235.491 76.7997C235.954 76.5128 236.498 76.3693 237.123 76.3693C237.527 76.3693 237.907 76.4347 238.265 76.5653C238.626 76.6932 238.944 76.892 239.22 77.1619C239.498 77.4318 239.717 77.7756 239.876 78.1932C240.035 78.608 240.115 79.1023 240.115 79.6761V80.1491H234.75V79.1094H238.636C238.633 78.8139 238.569 78.5511 238.444 78.321C238.319 78.0881 238.145 77.9048 237.92 77.7713C237.699 77.6378 237.44 77.571 237.145 77.571C236.829 77.571 236.552 77.6477 236.314 77.8011C236.075 77.9517 235.889 78.1506 235.755 78.3977C235.625 78.642 235.558 78.9105 235.555 79.2031V80.1108C235.555 80.4915 235.625 80.8182 235.764 81.0909C235.903 81.3608 236.098 81.5682 236.348 81.7131C236.598 81.8551 236.89 81.9261 237.226 81.9261C237.45 81.9261 237.653 81.8949 237.835 81.8324C238.017 81.767 238.174 81.6719 238.308 81.5469C238.441 81.4219 238.542 81.267 238.61 81.0824L240.051 81.2443C239.96 81.625 239.787 81.9574 239.531 82.2415C239.278 82.5227 238.954 82.7415 238.559 82.8977C238.164 83.0511 237.713 83.1278 237.204 83.1278ZM242.602 74.2727V83H241.06V74.2727H242.602Z" fill="white"/>
<rect x="73" y="84" width="18" height="9" rx="4.5" fill="#E3E3E3"/>
<rect x="17" y="64" width="126" height="14" rx="7" fill="#E3E3E3"/>
<rect x="17" y="84" width="54" height="9" rx="4.5" fill="#E3E3E3"/>
<rect x="122" y="19" width="32" height="9" rx="4.5" fill="#E3E3E3"/>
<rect x="17.5" y="23.5" width="60" height="20" rx="10" fill="#BE0B31" fill-opacity="0.25" stroke="#BE0B31"/>
<path d="M92 33H180" stroke="#BE0B31" stroke-dasharray="5 5"/>
<rect x="194.5" y="23.5" width="60" height="20" rx="10" fill="#BE0B31" fill-opacity="0.25" stroke="#BE0B31"/>
</svg>
