<svg width="272" height="105" viewBox="0 0 272 105" fill="none" xmlns="http://www.w3.org/2000/svg">
    <rect width="272" height="53" rx="10" fill="#FAFAFA" />
    <rect x="0.5" y="73.5" width="271" height="31" rx="9.5" fill="#BE0B31" fill-opacity="0.5"
        stroke="#BE0B31" />
    <path
        d="M135.646 69.3536C135.842 69.5488 136.158 69.5488 136.354 69.3536L139.536 66.1716C139.731 65.9763 139.731 65.6597 139.536 65.4645C139.34 65.2692 139.024 65.2692 138.828 65.4645L136 68.2929L133.172 65.4645C132.976 65.2692 132.66 65.2692 132.464 65.4645C132.269 65.6597 132.269 65.9763 132.464 66.1716L135.646 69.3536ZM135.5 47L135.5 69L136.5 69L136.5 47L135.5 47Z"
        fill="#BE0B31" />
    <circle cx="28.5" cy="25.5" r="15.5" fill="#E3E3E3" />
    <path
        d="M25 22.3334C25 23.9874 26.346 25.3334 28 25.3334C29.654 25.3334 31 23.9874 31 22.3334C31 20.6794 29.654 19.3334 28 19.3334C26.346 19.3334 25 20.6794 25 22.3334ZM33.3333 32H34V31.3334C34 28.7607 31.906 26.6667 29.3333 26.6667H26.6667C24.0933 26.6667 22 28.7607 22 31.3334V32H33.3333Z"
        fill="white" />
    <rect x="192" y="12" width="66" height="29" rx="14.5" fill="#E3E3E3" />
    <path
        d="M202.861 31V22.2727H206.134C206.804 22.2727 207.366 22.3892 207.821 22.6222C208.278 22.8551 208.624 23.1818 208.857 23.6023C209.092 24.0199 209.21 24.5071 209.21 25.0639C209.21 25.6236 209.091 26.1094 208.852 26.5213C208.616 26.9304 208.268 27.2472 207.808 27.4716C207.348 27.6932 206.783 27.804 206.112 27.804H203.781V26.4915H205.899C206.291 26.4915 206.612 26.4375 206.862 26.3295C207.112 26.2187 207.297 26.0582 207.416 25.848C207.538 25.6349 207.599 25.3736 207.599 25.0639C207.599 24.7543 207.538 24.4901 207.416 24.2713C207.294 24.0497 207.108 23.8821 206.858 23.7685C206.608 23.652 206.286 23.5938 205.891 23.5938H204.442V31H202.861ZM207.369 27.0455L209.53 31H207.766L205.643 27.0455H207.369ZM213.041 31.1278C212.385 31.1278 211.818 30.9915 211.341 30.7188C210.867 30.4432 210.502 30.054 210.246 29.5511C209.99 29.0455 209.862 28.4503 209.862 27.7656C209.862 27.0923 209.99 26.5014 210.246 25.9929C210.504 25.4815 210.865 25.0838 211.328 24.7997C211.791 24.5128 212.335 24.3693 212.96 24.3693C213.364 24.3693 213.744 24.4347 214.102 24.5653C214.463 24.6932 214.781 24.892 215.057 25.1619C215.335 25.4318 215.554 25.7756 215.713 26.1932C215.872 26.608 215.952 27.1023 215.952 27.6761V28.1491H210.587V27.1094H214.473C214.47 26.8139 214.406 26.5511 214.281 26.321C214.156 26.0881 213.982 25.9048 213.757 25.7713C213.536 25.6378 213.277 25.571 212.982 25.571C212.666 25.571 212.389 25.6477 212.151 25.8011C211.912 25.9517 211.726 26.1506 211.592 26.3977C211.462 26.642 211.395 26.9105 211.392 27.2031V28.1108C211.392 28.4915 211.462 28.8182 211.601 29.0909C211.74 29.3608 211.935 29.5682 212.185 29.7131C212.435 29.8551 212.727 29.9261 213.063 29.9261C213.287 29.9261 213.49 29.8949 213.672 29.8324C213.854 29.767 214.011 29.6719 214.145 29.5469C214.278 29.4219 214.379 29.267 214.448 29.0824L215.888 29.2443C215.797 29.625 215.624 29.9574 215.368 30.2415C215.115 30.5227 214.791 30.7415 214.396 30.8977C214.002 31.0511 213.55 31.1278 213.041 31.1278ZM219.743 33.5909C219.189 33.5909 218.714 33.5156 218.316 33.3651C217.918 33.2173 217.599 33.0185 217.357 32.7685C217.116 32.5185 216.948 32.2415 216.854 31.9375L218.243 31.6009C218.306 31.7287 218.397 31.8551 218.516 31.9801C218.635 32.108 218.796 32.2131 218.998 32.2955C219.202 32.3807 219.459 32.4233 219.769 32.4233C220.206 32.4233 220.569 32.3168 220.856 32.1037C221.143 31.8935 221.286 31.5469 221.286 31.0639V29.8239H221.209C221.13 29.983 221.013 30.1463 220.86 30.3139C220.709 30.4815 220.509 30.6222 220.259 30.7358C220.012 30.8494 219.701 30.9062 219.326 30.9062C218.823 30.9062 218.367 30.7884 217.958 30.5526C217.552 30.3139 217.228 29.9588 216.986 29.4872C216.748 29.0128 216.628 28.419 216.628 27.706C216.628 26.9872 216.748 26.3807 216.986 25.8864C217.228 25.3892 217.553 25.0128 217.962 24.7571C218.371 24.4986 218.827 24.3693 219.33 24.3693C219.714 24.3693 220.029 24.4347 220.276 24.5653C220.526 24.6932 220.725 24.848 220.873 25.0298C221.02 25.2088 221.133 25.3778 221.209 25.5369H221.295V24.4545H222.816V31.1065C222.816 31.6662 222.682 32.1293 222.415 32.4957C222.148 32.8622 221.783 33.1364 221.32 33.3182C220.857 33.5 220.331 33.5909 219.743 33.5909ZM219.756 29.696C220.083 29.696 220.361 29.6165 220.591 29.4574C220.822 29.2983 220.996 29.0696 221.116 28.7713C221.235 28.473 221.295 28.1151 221.295 27.6974C221.295 27.2855 221.235 26.9247 221.116 26.6151C220.999 26.3054 220.826 26.0653 220.596 25.8949C220.368 25.7216 220.089 25.6349 219.756 25.6349C219.412 25.6349 219.126 25.7244 218.895 25.9034C218.665 26.0824 218.492 26.3281 218.376 26.6406C218.259 26.9503 218.201 27.3026 218.201 27.6974C218.201 28.098 218.259 28.4489 218.376 28.75C218.495 29.0483 218.67 29.2812 218.9 29.4489C219.133 29.6136 219.418 29.696 219.756 29.696ZM224.037 31V24.4545H225.579V31H224.037ZM224.812 23.5256C224.568 23.5256 224.358 23.4446 224.182 23.2827C224.006 23.1179 223.918 22.9205 223.918 22.6903C223.918 22.4574 224.006 22.2599 224.182 22.098C224.358 21.9332 224.568 21.8509 224.812 21.8509C225.06 21.8509 225.27 21.9332 225.443 22.098C225.619 22.2599 225.707 22.4574 225.707 22.6903C225.707 22.9205 225.619 23.1179 225.443 23.2827C225.27 23.4446 225.06 23.5256 224.812 23.5256ZM231.979 26.1847L230.573 26.3381C230.533 26.196 230.463 26.0625 230.364 25.9375C230.267 25.8125 230.137 25.7116 229.972 25.6349C229.807 25.5582 229.605 25.5199 229.367 25.5199C229.046 25.5199 228.776 25.5895 228.557 25.7287C228.341 25.8679 228.235 26.0483 228.238 26.2699C228.235 26.4602 228.304 26.6151 228.446 26.7344C228.591 26.8537 228.83 26.9517 229.162 27.0284L230.279 27.267C230.898 27.4006 231.358 27.6122 231.659 27.902C231.963 28.1918 232.117 28.571 232.12 29.0398C232.117 29.4517 231.996 29.8153 231.757 30.1307C231.522 30.4432 231.194 30.6875 230.773 30.8636C230.353 31.0398 229.87 31.1278 229.324 31.1278C228.523 31.1278 227.878 30.9602 227.39 30.625C226.901 30.2869 226.61 29.8168 226.516 29.2145L228.02 29.0696C228.088 29.3651 228.233 29.5881 228.455 29.7386C228.676 29.8892 228.965 29.9645 229.32 29.9645C229.686 29.9645 229.98 29.8892 230.202 29.7386C230.426 29.5881 230.539 29.402 230.539 29.1804C230.539 28.9929 230.466 28.8381 230.321 28.7159C230.179 28.5937 229.958 28.5 229.657 28.4347L228.54 28.2003C227.912 28.0696 227.448 27.8494 227.147 27.5398C226.846 27.2273 226.696 26.8324 226.699 26.3551C226.696 25.9517 226.806 25.6023 227.027 25.3068C227.252 25.0085 227.563 24.7784 227.961 24.6165C228.361 24.4517 228.823 24.3693 229.346 24.3693C230.113 24.3693 230.716 24.5327 231.157 24.8594C231.6 25.1861 231.874 25.6278 231.979 26.1847ZM236.3 24.4545V25.6477H232.537V24.4545H236.3ZM233.466 22.8864H235.009V29.0312C235.009 29.2386 235.04 29.3977 235.103 29.5085C235.168 29.6165 235.253 29.6903 235.358 29.7301C235.463 29.7699 235.58 29.7898 235.708 29.7898C235.804 29.7898 235.892 29.7827 235.972 29.7685C236.054 29.7543 236.117 29.7415 236.16 29.7301L236.419 30.9361C236.337 30.9645 236.219 30.9957 236.066 31.0298C235.915 31.0639 235.731 31.0838 235.512 31.0895C235.125 31.1009 234.777 31.0426 234.468 30.9148C234.158 30.7841 233.912 30.5824 233.731 30.3097C233.552 30.0369 233.463 29.696 233.466 29.2869V22.8864ZM240.058 31.1278C239.401 31.1278 238.835 30.9915 238.357 30.7188C237.883 30.4432 237.518 30.054 237.262 29.5511C237.007 29.0455 236.879 28.4503 236.879 27.7656C236.879 27.0923 237.007 26.5014 237.262 25.9929C237.521 25.4815 237.882 25.0838 238.345 24.7997C238.808 24.5128 239.352 24.3693 239.977 24.3693C240.38 24.3693 240.761 24.4347 241.119 24.5653C241.48 24.6932 241.798 24.892 242.073 25.1619C242.352 25.4318 242.57 25.7756 242.73 26.1932C242.889 26.608 242.968 27.1023 242.968 27.6761V28.1491H237.603V27.1094H241.49C241.487 26.8139 241.423 26.5511 241.298 26.321C241.173 26.0881 240.998 25.9048 240.774 25.7713C240.552 25.6378 240.293 25.571 239.998 25.571C239.683 25.571 239.406 25.6477 239.167 25.8011C238.928 25.9517 238.742 26.1506 238.609 26.3977C238.478 26.642 238.411 26.9105 238.409 27.2031V28.1108C238.409 28.4915 238.478 28.8182 238.617 29.0909C238.757 29.3608 238.951 29.5682 239.201 29.7131C239.451 29.8551 239.744 29.9261 240.079 29.9261C240.303 29.9261 240.507 29.8949 240.688 29.8324C240.87 29.767 241.028 29.6719 241.161 29.5469C241.295 29.4219 241.396 29.267 241.464 29.0824L242.904 29.2443C242.813 29.625 242.64 29.9574 242.384 30.2415C242.132 30.5227 241.808 30.7415 241.413 30.8977C241.018 31.0511 240.566 31.1278 240.058 31.1278ZM243.913 31V24.4545H245.409V25.5455H245.477C245.596 25.1676 245.801 24.8764 246.091 24.6719C246.383 24.4645 246.717 24.3608 247.092 24.3608C247.177 24.3608 247.273 24.3651 247.378 24.3736C247.486 24.3793 247.575 24.3892 247.646 24.4034V25.8224C247.581 25.7997 247.477 25.7798 247.335 25.7628C247.196 25.7429 247.061 25.733 246.93 25.733C246.649 25.733 246.396 25.794 246.172 25.9162C245.95 26.0355 245.775 26.2017 245.648 26.4148C245.52 26.6278 245.456 26.8736 245.456 27.152V31H243.913Z"
        fill="#1D1D21" />
    <rect x="192.5" y="12.5" width="65" height="28" rx="14" stroke="black" stroke-opacity="0.2" />
    <rect x="51" y="10" width="116" height="12" rx="6" fill="#E3E3E3" />
    <rect x="51" y="24" width="68" height="8" rx="4" fill="#E3E3E3" />
    <rect x="121" y="24" width="23" height="8" rx="4" fill="#E3E3E3" />
    <rect x="51" y="34" width="23" height="7" rx="3.5" fill="#E3E3E3" />
    <rect x="57" y="82.5" width="13" height="13" rx="6.5" fill="#BE0B31" />
    <path
        d="M63.2773 91.199C62.3717 91.199 62.0156 90.7945 61.9672 90.2757H61C61.0528 91.2385 61.7738 91.7793 62.6179 91.9595V92.9136H63.9368V91.9683C64.7941 91.8057 65.4756 91.3089 65.4756 90.4076C65.4756 89.159 64.4072 88.7326 63.4092 88.4732C62.4113 88.2138 62.0903 87.9456 62.0903 87.5279C62.0903 87.0487 62.5344 86.7146 63.2773 86.7146C64.0599 86.7146 64.3501 87.0883 64.3765 87.6379H65.3481C65.3173 86.8817 64.8557 86.187 63.9368 85.9628V85H62.6179V85.9496C61.765 86.1343 61.0791 86.6882 61.0791 87.5367C61.0791 88.5523 61.9189 89.0579 63.1455 89.3525C64.2446 89.6162 64.4644 90.0031 64.4644 90.412C64.4644 90.7153 64.249 91.199 63.2773 91.199Z"
        fill="white" />
    <path
        d="M80.9901 93.9091V84.8182H81.5724V93.9091H80.9901ZM82.6697 87.7266C82.6366 87.4164 82.4969 87.175 82.2507 87.0021C82.0069 86.8293 81.6896 86.7429 81.299 86.7429C81.0244 86.7429 80.7888 86.7843 80.5923 86.8672C80.3958 86.95 80.2455 87.0625 80.1413 87.2045C80.0372 87.3466 79.9839 87.5088 79.9815 87.6911C79.9815 87.8426 80.0159 87.974 80.0845 88.0852C80.1555 88.1965 80.2514 88.2912 80.3722 88.3693C80.4929 88.4451 80.6267 88.509 80.7734 88.5611C80.9202 88.6132 81.0682 88.657 81.2173 88.6925L81.8991 88.8629C82.1738 88.9268 82.4377 89.0133 82.6911 89.1222C82.9467 89.2311 83.1752 89.3684 83.3764 89.5341C83.58 89.6998 83.741 89.8999 83.8594 90.1342C83.9777 90.3686 84.0369 90.6432 84.0369 90.9581C84.0369 91.3842 83.928 91.7595 83.7102 92.0838C83.4924 92.4058 83.1776 92.6579 82.7656 92.8402C82.3561 93.0201 81.8601 93.1101 81.2777 93.1101C80.7119 93.1101 80.2206 93.0225 79.804 92.8473C79.3897 92.6721 79.0653 92.4164 78.831 92.0803C78.599 91.7441 78.4735 91.3345 78.4545 90.8516H79.7507C79.7696 91.1049 79.8478 91.3156 79.9851 91.4837C80.1224 91.6518 80.3011 91.7772 80.5213 91.8601C80.7438 91.9429 80.9924 91.9844 81.267 91.9844C81.5535 91.9844 81.8045 91.9418 82.0199 91.8565C82.2377 91.7689 82.4081 91.6482 82.5312 91.4943C82.6544 91.3381 82.7171 91.1558 82.7195 90.9474C82.7171 90.758 82.6615 90.6018 82.5526 90.4787C82.4437 90.3532 82.291 90.2491 82.0945 90.1662C81.9003 90.081 81.6731 90.0052 81.4126 89.9389L80.5852 89.7259C79.9863 89.572 79.5128 89.3388 79.1648 89.0263C78.8191 88.7114 78.6463 88.2936 78.6463 87.7727C78.6463 87.3442 78.7623 86.969 78.9943 86.647C79.2287 86.325 79.5471 86.0753 79.9496 85.8977C80.352 85.7178 80.8078 85.6278 81.3168 85.6278C81.8329 85.6278 82.285 85.7178 82.6733 85.8977C83.0639 86.0753 83.3705 86.3227 83.593 86.6399C83.8156 86.9548 83.9304 87.317 83.9375 87.7266H82.6697ZM84.8404 93V92.0483L87.3653 89.5732C87.6068 89.3293 87.808 89.1127 87.969 88.9233C88.13 88.7339 88.2507 88.5504 88.3312 88.3729C88.4117 88.1953 88.452 88.0059 88.452 87.8047C88.452 87.575 88.3999 87.3786 88.2957 87.2152C88.1915 87.0495 88.0483 86.9216 87.866 86.8317C87.6837 86.7417 87.4766 86.6967 87.2446 86.6967C87.0055 86.6967 86.7959 86.7464 86.616 86.8459C86.4361 86.9429 86.2964 87.0814 86.197 87.2614C86.0999 87.4413 86.0514 87.6555 86.0514 87.9041H84.7978C84.7978 87.4425 84.9032 87.0412 85.1139 86.7003C85.3246 86.3594 85.6146 86.0954 85.9839 85.9084C86.3556 85.7214 86.7817 85.6278 87.2623 85.6278C87.75 85.6278 88.1785 85.719 88.5478 85.9013C88.9172 86.0836 89.2036 86.3333 89.4072 86.6506C89.6132 86.9678 89.7162 87.33 89.7162 87.7372C89.7162 88.0095 89.6641 88.277 89.5599 88.5398C89.4557 88.8026 89.2723 89.0937 89.0095 89.4134C88.7491 89.733 88.3833 90.12 87.9122 90.5746L86.6586 91.8494V91.8991H89.8262V93H84.8404ZM93.2762 85.6278C93.6243 85.6302 93.9628 85.6918 94.2919 85.8125C94.6233 85.9309 94.9216 86.125 95.1868 86.3949C95.4519 86.6624 95.6626 87.0211 95.8189 87.4709C95.9751 87.9207 96.0532 88.477 96.0532 89.1399C96.0556 89.7649 95.9893 90.3236 95.8544 90.8161C95.7218 91.3061 95.5312 91.7204 95.2826 92.0589C95.0341 92.3975 94.7346 92.6555 94.3842 92.8331C94.0338 93.0107 93.6396 93.0994 93.2017 93.0994C92.7424 93.0994 92.3352 93.0095 91.9801 92.8295C91.6273 92.6496 91.3421 92.4034 91.1243 92.0909C90.9065 91.7784 90.7727 91.4209 90.723 91.0185H92.0191C92.0854 91.3073 92.2204 91.5369 92.424 91.7074C92.6299 91.8755 92.8892 91.9595 93.2017 91.9595C93.7059 91.9595 94.0942 91.7405 94.3664 91.3026C94.6387 90.8646 94.7748 90.2562 94.7748 89.4773H94.7251C94.6091 89.6856 94.4588 89.8655 94.2741 90.017C94.0895 90.1662 93.8799 90.281 93.6456 90.3615C93.4136 90.442 93.1673 90.4822 92.9069 90.4822C92.4808 90.4822 92.0973 90.3804 91.7564 90.1768C91.4178 89.9732 91.1491 89.6939 90.9502 89.3388C90.7538 88.9837 90.6543 88.5777 90.652 88.1207C90.652 87.6473 90.7609 87.2223 90.9787 86.8459C91.1988 86.4671 91.5054 86.1688 91.8984 85.951C92.2914 85.7308 92.7507 85.6231 93.2762 85.6278ZM93.2798 86.6932C93.0241 86.6932 92.7933 86.7559 92.5873 86.8814C92.3837 87.0045 92.2227 87.1726 92.1044 87.3857C91.9884 87.5964 91.9304 87.8319 91.9304 88.0923C91.9327 88.3504 91.9907 88.5848 92.1044 88.7955C92.2204 89.0062 92.3778 89.1731 92.5767 89.2962C92.7779 89.4193 93.0075 89.4808 93.2656 89.4808C93.4574 89.4808 93.6361 89.4441 93.8018 89.3707C93.9675 89.2973 94.1119 89.1955 94.235 89.0653C94.3605 88.9328 94.4576 88.7824 94.5262 88.6143C94.5973 88.4463 94.6316 88.2687 94.6292 88.0817C94.6292 87.8331 94.57 87.6035 94.4517 87.3928C94.3357 87.1821 94.1759 87.0128 93.9723 86.8849C93.771 86.7571 93.5402 86.6932 93.2798 86.6932ZM97.4587 93.0781C97.2432 93.0781 97.0586 93.0024 96.9047 92.8509C96.7508 92.6993 96.675 92.5147 96.6774 92.2969C96.675 92.0838 96.7508 91.9015 96.9047 91.75C97.0586 91.5985 97.2432 91.5227 97.4587 91.5227C97.667 91.5227 97.8481 91.5985 98.002 91.75C98.1582 91.9015 98.2375 92.0838 98.2399 92.2969C98.2375 92.4413 98.1997 92.5727 98.1263 92.6911C98.0553 92.8094 97.9606 92.9041 97.8422 92.9751C97.7262 93.0438 97.5983 93.0781 97.4587 93.0781ZM101.658 93.1385C101.073 93.1385 100.571 92.9905 100.152 92.6946C99.7356 92.3963 99.4148 91.9666 99.1899 91.4055C98.9674 90.8421 98.8561 90.1638 98.8561 89.3707C98.8585 88.5777 98.9709 87.9029 99.1935 87.3466C99.4184 86.7879 99.7392 86.3617 100.156 86.0682C100.575 85.7746 101.076 85.6278 101.658 85.6278C102.24 85.6278 102.741 85.7746 103.16 86.0682C103.579 86.3617 103.9 86.7879 104.122 87.3466C104.347 87.9053 104.46 88.58 104.46 89.3707C104.46 90.1662 104.347 90.8456 104.122 91.4091C103.9 91.9702 103.579 92.3987 103.16 92.6946C102.743 92.9905 102.243 93.1385 101.658 93.1385ZM101.658 92.027C102.112 92.027 102.471 91.8033 102.734 91.3558C102.999 90.906 103.132 90.2443 103.132 89.3707C103.132 88.7931 103.071 88.3078 102.951 87.9148C102.83 87.5218 102.659 87.2259 102.439 87.027C102.219 86.8258 101.959 86.7251 101.658 86.7251C101.206 86.7251 100.848 86.95 100.586 87.3999C100.323 87.8473 100.19 88.5043 100.188 89.3707C100.185 89.9508 100.243 90.4384 100.362 90.8338C100.483 91.2292 100.653 91.5275 100.873 91.7287C101.093 91.9276 101.355 92.027 101.658 92.027ZM108.028 93.1385C107.443 93.1385 106.941 92.9905 106.522 92.6946C106.106 92.3963 105.785 91.9666 105.56 91.4055C105.337 90.8421 105.226 90.1638 105.226 89.3707C105.228 88.5777 105.341 87.9029 105.563 87.3466C105.788 86.7879 106.109 86.3617 106.526 86.0682C106.945 85.7746 107.445 85.6278 108.028 85.6278C108.61 85.6278 109.111 85.7746 109.53 86.0682C109.949 86.3617 110.27 86.7879 110.492 87.3466C110.717 87.9053 110.83 88.58 110.83 89.3707C110.83 90.1662 110.717 90.8456 110.492 91.4091C110.27 91.9702 109.949 92.3987 109.53 92.6946C109.113 92.9905 108.613 93.1385 108.028 93.1385ZM108.028 92.027C108.482 92.027 108.841 91.8033 109.104 91.3558C109.369 90.906 109.502 90.2443 109.502 89.3707C109.502 88.7931 109.441 88.3078 109.32 87.9148C109.2 87.5218 109.029 87.2259 108.809 87.027C108.589 86.8258 108.329 86.7251 108.028 86.7251C107.576 86.7251 107.218 86.95 106.955 87.3999C106.693 87.8473 106.56 88.5043 106.558 89.3707C106.555 89.9508 106.613 90.4384 106.732 90.8338C106.852 91.2292 107.023 91.5275 107.243 91.7287C107.463 91.9276 107.725 92.027 108.028 92.027Z"
        fill="white" />
    <path d="M120 82L120 96" stroke="#BE0B31" />
    <path
        d="M128.717 93V85.7273H131.501C132.027 85.7273 132.464 85.8101 132.812 85.9759C133.162 86.1392 133.424 86.3629 133.597 86.647C133.772 86.9311 133.859 87.2531 133.859 87.6129C133.859 87.9089 133.803 88.1622 133.689 88.3729C133.575 88.5812 133.423 88.7505 133.231 88.8807C133.039 89.0109 132.825 89.1044 132.588 89.1612V89.2322C132.846 89.2464 133.094 89.3258 133.33 89.4702C133.569 89.6122 133.765 89.8134 133.916 90.0739C134.068 90.3343 134.143 90.6491 134.143 91.0185C134.143 91.3949 134.052 91.7334 133.87 92.0341C133.688 92.3324 133.413 92.5679 133.046 92.7408C132.679 92.9136 132.218 93 131.661 93H128.717ZM130.035 91.8991H131.452C131.93 91.8991 132.274 91.808 132.485 91.6257C132.698 91.4411 132.805 91.2043 132.805 90.9155C132.805 90.7 132.751 90.5059 132.645 90.3331C132.538 90.1579 132.387 90.0206 132.19 89.9212C131.994 89.8194 131.759 89.7685 131.487 89.7685H130.035V91.8991ZM130.035 88.8203H131.338C131.565 88.8203 131.77 88.7789 131.952 88.696C132.135 88.6108 132.278 88.4912 132.382 88.3374C132.489 88.1811 132.542 87.9964 132.542 87.7834C132.542 87.5017 132.442 87.2696 132.244 87.0874C132.047 86.9051 131.755 86.8139 131.366 86.8139H130.035V88.8203ZM136.502 93.1101C136.157 93.1101 135.845 93.0485 135.568 92.9254C135.294 92.8 135.076 92.6153 134.915 92.3714C134.756 92.1276 134.677 91.8269 134.677 91.4695C134.677 91.1617 134.734 90.9072 134.848 90.706C134.961 90.5047 135.116 90.3438 135.313 90.223C135.509 90.1023 135.731 90.0111 135.977 89.9496C136.225 89.8857 136.482 89.8395 136.747 89.8111C137.067 89.7779 137.326 89.7483 137.525 89.7223C137.724 89.6939 137.868 89.6513 137.958 89.5945C138.051 89.5353 138.097 89.4441 138.097 89.321V89.2997C138.097 89.0322 138.018 88.825 137.859 88.6783C137.7 88.5315 137.472 88.4581 137.174 88.4581C136.859 88.4581 136.609 88.5268 136.424 88.6641C136.242 88.8014 136.119 88.9635 136.055 89.1506L134.855 88.9801C134.949 88.6487 135.106 88.3717 135.323 88.1491C135.541 87.9242 135.808 87.7562 136.122 87.6449C136.437 87.5312 136.785 87.4744 137.166 87.4744C137.429 87.4744 137.691 87.5052 137.951 87.5668C138.212 87.6283 138.45 87.7301 138.665 87.8722C138.88 88.0118 139.053 88.2024 139.183 88.4439C139.316 88.6854 139.382 88.9872 139.382 89.3494V93H138.147V92.2507H138.104C138.026 92.4022 137.916 92.5443 137.774 92.6768C137.634 92.8071 137.458 92.9124 137.245 92.9929C137.034 93.071 136.786 93.1101 136.502 93.1101ZM136.836 92.1655C137.094 92.1655 137.318 92.1146 137.507 92.0128C137.697 91.9086 137.842 91.7713 137.944 91.6009C138.048 91.4304 138.1 91.2446 138.1 91.0433V90.4006C138.06 90.4337 137.991 90.4645 137.894 90.4929C137.8 90.5213 137.693 90.5462 137.575 90.5675C137.456 90.5888 137.339 90.6077 137.223 90.6243C137.107 90.6409 137.007 90.6551 136.921 90.6669C136.73 90.6929 136.558 90.7356 136.406 90.7947C136.255 90.8539 136.135 90.9368 136.048 91.0433C135.96 91.1475 135.916 91.2824 135.916 91.4482C135.916 91.6849 136.003 91.8636 136.176 91.9844C136.348 92.1051 136.569 92.1655 136.836 92.1655ZM141.66 85.7273V93H140.375V85.7273H141.66ZM144.252 93.1101C143.906 93.1101 143.595 93.0485 143.318 92.9254C143.043 92.8 142.826 92.6153 142.665 92.3714C142.506 92.1276 142.427 91.8269 142.427 91.4695C142.427 91.1617 142.484 90.9072 142.597 90.706C142.711 90.5047 142.866 90.3438 143.062 90.223C143.259 90.1023 143.48 90.0111 143.726 89.9496C143.975 89.8857 144.232 89.8395 144.497 89.8111C144.817 89.7779 145.076 89.7483 145.275 89.7223C145.474 89.6939 145.618 89.6513 145.708 89.5945C145.8 89.5353 145.846 89.4441 145.846 89.321V89.2997C145.846 89.0322 145.767 88.825 145.609 88.6783C145.45 88.5315 145.221 88.4581 144.923 88.4581C144.608 88.4581 144.359 88.5268 144.174 88.6641C143.992 88.8014 143.868 88.9635 143.805 89.1506L142.604 88.9801C142.699 88.6487 142.855 88.3717 143.073 88.1491C143.291 87.9242 143.557 87.7562 143.872 87.6449C144.187 87.5312 144.535 87.4744 144.916 87.4744C145.179 87.4744 145.44 87.5052 145.701 87.5668C145.961 87.6283 146.199 87.7301 146.415 87.8722C146.63 88.0118 146.803 88.2024 146.933 88.4439C147.066 88.6854 147.132 88.9872 147.132 89.3494V93H145.896V92.2507H145.854C145.775 92.4022 145.665 92.5443 145.523 92.6768C145.384 92.8071 145.207 92.9124 144.994 92.9929C144.783 93.071 144.536 93.1101 144.252 93.1101ZM144.586 92.1655C144.844 92.1655 145.068 92.1146 145.257 92.0128C145.446 91.9086 145.592 91.7713 145.694 91.6009C145.798 91.4304 145.85 91.2446 145.85 91.0433V90.4006C145.81 90.4337 145.741 90.4645 145.644 90.4929C145.549 90.5213 145.443 90.5462 145.324 90.5675C145.206 90.5888 145.089 90.6077 144.973 90.6243C144.857 90.6409 144.756 90.6551 144.671 90.6669C144.479 90.6929 144.308 90.7356 144.156 90.7947C144.005 90.8539 143.885 90.9368 143.797 91.0433C143.71 91.1475 143.666 91.2824 143.666 91.4482C143.666 91.6849 143.752 91.8636 143.925 91.9844C144.098 92.1051 144.318 92.1655 144.586 92.1655ZM149.41 89.804V93H148.125V87.5455H149.353V88.4723H149.417C149.543 88.1669 149.743 87.9242 150.017 87.7443C150.294 87.5644 150.636 87.4744 151.044 87.4744C151.42 87.4744 151.748 87.5549 152.027 87.7159C152.309 87.8769 152.527 88.1101 152.681 88.4155C152.837 88.7209 152.914 89.0914 152.912 89.527V93H151.626V89.7259C151.626 89.3613 151.531 89.076 151.342 88.87C151.155 88.6641 150.896 88.5611 150.564 88.5611C150.339 88.5611 150.139 88.6108 149.964 88.7102C149.791 88.8073 149.655 88.9482 149.556 89.1328C149.459 89.3175 149.41 89.5412 149.41 89.804ZM156.298 93.1065C155.753 93.1065 155.286 92.987 154.895 92.7479C154.507 92.5088 154.207 92.1785 153.996 91.7571C153.788 91.3333 153.684 90.8456 153.684 90.294C153.684 89.7401 153.79 89.2512 154.004 88.8274C154.217 88.4013 154.517 88.0698 154.906 87.8331C155.296 87.594 155.758 87.4744 156.29 87.4744C156.733 87.4744 157.125 87.5561 157.466 87.7195C157.809 87.8804 158.083 88.1089 158.286 88.4048C158.49 88.6984 158.606 89.0417 158.634 89.4347H157.406C157.356 89.1719 157.237 88.9529 157.05 88.7777C156.866 88.6001 156.618 88.5114 156.308 88.5114C156.045 88.5114 155.815 88.5824 155.616 88.7244C155.417 88.8641 155.262 89.0653 155.151 89.3281C155.042 89.5909 154.987 89.9058 154.987 90.2727C154.987 90.6444 155.042 90.964 155.151 91.2315C155.259 91.4967 155.412 91.7015 155.609 91.8459C155.808 91.9879 156.041 92.0589 156.308 92.0589C156.498 92.0589 156.667 92.0234 156.816 91.9524C156.968 91.879 157.094 91.7737 157.196 91.6364C157.298 91.4991 157.368 91.3321 157.406 91.1357H158.634C158.603 91.5215 158.49 91.8636 158.293 92.1619C158.097 92.4579 157.829 92.6899 157.491 92.858C157.152 93.0237 156.754 93.1065 156.298 93.1065ZM161.805 93.1065C161.258 93.1065 160.785 92.9929 160.388 92.7656C159.992 92.536 159.688 92.2116 159.475 91.7926C159.262 91.3712 159.155 90.8752 159.155 90.3047C159.155 89.7436 159.262 89.2512 159.475 88.8274C159.69 88.4013 159.991 88.0698 160.377 87.8331C160.763 87.594 161.216 87.4744 161.737 87.4744C162.073 87.4744 162.391 87.5289 162.689 87.6378C162.989 87.7443 163.255 87.91 163.484 88.1349C163.716 88.3598 163.899 88.6463 164.031 88.9943C164.164 89.34 164.23 89.7519 164.23 90.2301V90.6243H159.759V89.7578H162.998C162.995 89.5116 162.942 89.2926 162.838 89.1009C162.734 88.9067 162.588 88.754 162.401 88.6428C162.217 88.5315 162.001 88.4759 161.755 88.4759C161.492 88.4759 161.261 88.5398 161.062 88.6676C160.864 88.7931 160.708 88.9588 160.597 89.1648C160.488 89.3684 160.433 89.5921 160.43 89.8359V90.5923C160.43 90.9096 160.488 91.1818 160.604 91.4091C160.72 91.634 160.882 91.8068 161.091 91.9276C161.299 92.0459 161.543 92.1051 161.822 92.1051C162.009 92.1051 162.179 92.0791 162.33 92.027C162.482 91.9725 162.613 91.8932 162.724 91.7891C162.836 91.6849 162.92 91.5559 162.976 91.402L164.177 91.5369C164.101 91.8542 163.957 92.1312 163.744 92.3679C163.533 92.6023 163.263 92.7846 162.934 92.9148C162.605 93.0426 162.228 93.1065 161.805 93.1065ZM169.719 93H167.255V85.7273H169.769C170.491 85.7273 171.111 85.8729 171.63 86.1641C172.151 86.4529 172.551 86.8684 172.83 87.4105C173.109 87.9527 173.249 88.6013 173.249 89.3565C173.249 90.1141 173.108 90.7652 172.827 91.3097C172.547 91.8542 172.144 92.272 171.616 92.5632C171.09 92.8544 170.458 93 169.719 93ZM168.572 91.8601H169.655C170.162 91.8601 170.585 91.7678 170.923 91.5831C171.262 91.3961 171.516 91.1179 171.687 90.7486C171.857 90.3769 171.942 89.9129 171.942 89.3565C171.942 88.8002 171.857 88.3385 171.687 87.9716C171.516 87.6023 171.264 87.3265 170.93 87.1442C170.599 86.9595 170.187 86.8672 169.694 86.8672H168.572V91.8601ZM176.559 93.1065C176.012 93.1065 175.54 92.9929 175.142 92.7656C174.747 92.536 174.442 92.2116 174.229 91.7926C174.016 91.3712 173.91 90.8752 173.91 90.3047C173.91 89.7436 174.016 89.2512 174.229 88.8274C174.445 88.4013 174.745 88.0698 175.131 87.8331C175.517 87.594 175.971 87.4744 176.491 87.4744C176.828 87.4744 177.145 87.5289 177.443 87.6378C177.744 87.7443 178.009 87.91 178.239 88.1349C178.471 88.3598 178.653 88.6463 178.785 88.9943C178.918 89.34 178.984 89.7519 178.984 90.2301V90.6243H174.513V89.7578H177.752C177.75 89.5116 177.696 89.2926 177.592 89.1009C177.488 88.9067 177.342 88.754 177.155 88.6428C176.971 88.5315 176.755 88.4759 176.509 88.4759C176.246 88.4759 176.016 88.5398 175.817 88.6676C175.618 88.7931 175.463 88.9588 175.351 89.1648C175.243 89.3684 175.187 89.5921 175.185 89.8359V90.5923C175.185 90.9096 175.243 91.1818 175.359 91.4091C175.475 91.634 175.637 91.8068 175.845 91.9276C176.053 92.0459 176.297 92.1051 176.577 92.1051C176.764 92.1051 176.933 92.0791 177.084 92.027C177.236 91.9725 177.367 91.8932 177.479 91.7891C177.59 91.6849 177.674 91.5559 177.731 91.402L178.931 91.5369C178.855 91.8542 178.711 92.1312 178.498 92.3679C178.287 92.6023 178.017 92.7846 177.688 92.9148C177.359 93.0426 176.983 93.1065 176.559 93.1065ZM179.772 95.0455V87.5455H181.036V88.4474H181.111C181.177 88.3149 181.27 88.174 181.391 88.0249C181.512 87.8733 181.675 87.7443 181.881 87.6378C182.087 87.5289 182.35 87.4744 182.67 87.4744C183.091 87.4744 183.471 87.5821 183.809 87.7976C184.15 88.0107 184.42 88.3267 184.619 88.7457C184.82 89.1624 184.921 89.6738 184.921 90.2798C184.921 90.8788 184.823 91.3878 184.626 91.8068C184.43 92.2259 184.162 92.5455 183.824 92.7656C183.485 92.9858 183.102 93.0959 182.673 93.0959C182.361 93.0959 182.101 93.0438 181.895 92.9396C181.689 92.8355 181.524 92.71 181.398 92.5632C181.275 92.4141 181.179 92.2732 181.111 92.1406H181.057V95.0455H179.772ZM181.032 90.2727C181.032 90.6255 181.082 90.9344 181.182 91.1996C181.283 91.4647 181.429 91.6719 181.618 91.821C181.81 91.9678 182.042 92.0412 182.314 92.0412C182.599 92.0412 182.836 91.9654 183.028 91.8139C183.22 91.66 183.364 91.4505 183.461 91.1854C183.561 90.9179 183.611 90.6136 183.611 90.2727C183.611 89.9342 183.562 89.6335 183.465 89.3707C183.368 89.108 183.224 88.902 183.032 88.7528C182.84 88.6037 182.601 88.5291 182.314 88.5291C182.04 88.5291 181.807 88.6013 181.615 88.7457C181.423 88.8902 181.278 89.0926 181.178 89.353C181.081 89.6134 181.032 89.92 181.032 90.2727ZM188.101 93.1065C187.568 93.1065 187.107 92.9893 186.716 92.755C186.326 92.5206 186.023 92.1927 185.807 91.7713C185.594 91.3499 185.487 90.8575 185.487 90.294C185.487 89.7306 185.594 89.237 185.807 88.8132C186.023 88.3894 186.326 88.0604 186.716 87.826C187.107 87.5916 187.568 87.4744 188.101 87.4744C188.634 87.4744 189.095 87.5916 189.486 87.826C189.877 88.0604 190.179 88.3894 190.392 88.8132C190.607 89.237 190.715 89.7306 190.715 90.294C190.715 90.8575 190.607 91.3499 190.392 91.7713C190.179 92.1927 189.877 92.5206 189.486 92.755C189.095 92.9893 188.634 93.1065 188.101 93.1065ZM188.108 92.0767C188.397 92.0767 188.639 91.9974 188.833 91.8388C189.027 91.6778 189.171 91.4624 189.266 91.1925C189.363 90.9226 189.411 90.6219 189.411 90.2905C189.411 89.9567 189.363 89.6548 189.266 89.3849C189.171 89.1127 189.027 88.8961 188.833 88.7351C188.639 88.5741 188.397 88.4936 188.108 88.4936C187.812 88.4936 187.566 88.5741 187.37 88.7351C187.175 88.8961 187.03 89.1127 186.933 89.3849C186.838 89.6548 186.791 89.9567 186.791 90.2905C186.791 90.6219 186.838 90.9226 186.933 91.1925C187.03 91.4624 187.175 91.6778 187.37 91.8388C187.566 91.9974 187.812 92.0767 188.108 92.0767ZM195.817 88.9872L194.645 89.1151C194.612 88.9967 194.554 88.8854 194.471 88.7812C194.391 88.6771 194.282 88.593 194.144 88.5291C194.007 88.4652 193.839 88.4332 193.64 88.4332C193.373 88.4332 193.148 88.4912 192.965 88.6072C192.785 88.7232 192.697 88.8736 192.699 89.0582C192.697 89.2169 192.755 89.3459 192.873 89.4453C192.994 89.5447 193.193 89.6264 193.47 89.6903L194.4 89.8892C194.916 90.0005 195.3 90.1768 195.551 90.4183C195.804 90.6598 195.932 90.9759 195.934 91.3665C195.932 91.7098 195.831 92.0128 195.632 92.2756C195.436 92.536 195.162 92.7396 194.812 92.8864C194.462 93.0331 194.059 93.1065 193.605 93.1065C192.937 93.1065 192.4 92.9669 191.992 92.6875C191.585 92.4058 191.342 92.014 191.264 91.5121L192.518 91.3913C192.575 91.6375 192.695 91.8234 192.88 91.9489C193.065 92.0743 193.305 92.1371 193.601 92.1371C193.906 92.1371 194.151 92.0743 194.336 91.9489C194.523 91.8234 194.617 91.6683 194.617 91.4837C194.617 91.3274 194.556 91.1984 194.436 91.0966C194.317 90.9948 194.132 90.9167 193.882 90.8622L192.951 90.6669C192.428 90.558 192.041 90.3745 191.79 90.1165C191.539 89.8561 191.415 89.527 191.417 89.1293C191.415 88.7931 191.506 88.5019 191.69 88.2557C191.878 88.0071 192.137 87.8153 192.468 87.6804C192.802 87.5431 193.187 87.4744 193.622 87.4744C194.262 87.4744 194.765 87.6106 195.132 87.8828C195.501 88.1551 195.729 88.5232 195.817 88.9872ZM196.694 93V87.5455H197.98V93H196.694ZM197.34 86.7713C197.137 86.7713 196.962 86.7038 196.815 86.5689C196.668 86.4316 196.595 86.267 196.595 86.0753C196.595 85.8812 196.668 85.7166 196.815 85.5817C196.962 85.4444 197.137 85.3757 197.34 85.3757C197.546 85.3757 197.722 85.4444 197.866 85.5817C198.013 85.7166 198.086 85.8812 198.086 86.0753C198.086 86.267 198.013 86.4316 197.866 86.5689C197.722 86.7038 197.546 86.7713 197.34 86.7713ZM201.725 87.5455V88.5398H198.59V87.5455H201.725ZM199.364 86.2386H200.649V91.3594C200.649 91.5322 200.675 91.6648 200.727 91.7571C200.782 91.8471 200.853 91.9086 200.94 91.9418C201.028 91.9749 201.125 91.9915 201.232 91.9915C201.312 91.9915 201.386 91.9856 201.452 91.9737C201.52 91.9619 201.573 91.9512 201.608 91.9418L201.825 92.9467C201.756 92.9704 201.658 92.9964 201.53 93.0249C201.404 93.0533 201.251 93.0698 201.068 93.0746C200.746 93.084 200.456 93.0355 200.198 92.929C199.94 92.8201 199.735 92.652 199.584 92.4247C199.435 92.1974 199.361 91.9134 199.364 91.5724V86.2386ZM204.857 93.1065C204.31 93.1065 203.837 92.9929 203.44 92.7656C203.044 92.536 202.74 92.2116 202.527 91.7926C202.314 91.3712 202.207 90.8752 202.207 90.3047C202.207 89.7436 202.314 89.2512 202.527 88.8274C202.742 88.4013 203.043 88.0698 203.429 87.8331C203.815 87.594 204.268 87.4744 204.789 87.4744C205.125 87.4744 205.442 87.5289 205.741 87.6378C206.041 87.7443 206.307 87.91 206.536 88.1349C206.768 88.3598 206.951 88.6463 207.083 88.9943C207.216 89.34 207.282 89.7519 207.282 90.2301V90.6243H202.811V89.7578H206.05C206.047 89.5116 205.994 89.2926 205.89 89.1009C205.786 88.9067 205.64 88.754 205.453 88.6428C205.268 88.5315 205.053 88.4759 204.807 88.4759C204.544 88.4759 204.313 88.5398 204.114 88.6676C203.915 88.7931 203.76 88.9588 203.649 89.1648C203.54 89.3684 203.485 89.5921 203.482 89.8359V90.5923C203.482 90.9096 203.54 91.1818 203.656 91.4091C203.772 91.634 203.934 91.8068 204.143 91.9276C204.351 92.0459 204.595 92.1051 204.874 92.1051C205.061 92.1051 205.231 92.0791 205.382 92.027C205.534 91.9725 205.665 91.8932 205.776 91.7891C205.888 91.6849 205.972 91.5559 206.028 91.402L207.229 91.5369C207.153 91.8542 207.009 92.1312 206.795 92.3679C206.585 92.6023 206.315 92.7846 205.986 92.9148C205.657 93.0426 205.28 93.1065 204.857 93.1065ZM210.094 93.0959C209.665 93.0959 209.282 92.9858 208.943 92.7656C208.605 92.5455 208.337 92.2259 208.141 91.8068C207.944 91.3878 207.846 90.8788 207.846 90.2798C207.846 89.6738 207.945 89.1624 208.144 88.7457C208.345 88.3267 208.616 88.0107 208.957 87.7976C209.298 87.5821 209.678 87.4744 210.097 87.4744C210.417 87.4744 210.68 87.5289 210.886 87.6378C211.092 87.7443 211.255 87.8733 211.376 88.0249C211.496 88.174 211.59 88.3149 211.656 88.4474H211.709V85.7273H212.998V93H211.734V92.1406H211.656C211.59 92.2732 211.494 92.4141 211.368 92.5632C211.243 92.71 211.077 92.8355 210.871 92.9396C210.665 93.0438 210.406 93.0959 210.094 93.0959ZM210.452 92.0412C210.725 92.0412 210.957 91.9678 211.148 91.821C211.34 91.6719 211.486 91.4647 211.585 91.1996C211.685 90.9344 211.734 90.6255 211.734 90.2727C211.734 89.92 211.685 89.6134 211.585 89.353C211.488 89.0926 211.344 88.8902 211.152 88.7457C210.962 88.6013 210.729 88.5291 210.452 88.5291C210.166 88.5291 209.927 88.6037 209.735 88.7528C209.543 88.902 209.399 89.108 209.302 89.3707C209.205 89.6335 209.156 89.9342 209.156 90.2727C209.156 90.6136 209.205 90.9179 209.302 91.1854C209.401 91.4505 209.547 91.66 209.739 91.8139C209.933 91.9654 210.171 92.0412 210.452 92.0412Z"
        fill="white" />
</svg>