<svg width="28" height="28" viewBox="0 0 28 28" fill="none" xmlns="http://www.w3.org/2000/svg">
<rect x="0.5" y="0.5" width="27" height="27" rx="4.5" fill="white" fill-opacity="0.1" stroke="white"/>
<path d="M21 14C21.0034 12.4581 20.4988 10.9579 19.564 9.73159C18.6293 8.50525 17.3166 7.62103 15.8289 7.21565C14.3412 6.81028 12.7613 6.90633 11.3337 7.48896C9.90604 8.07159 8.71012 9.10834 7.93085 10.4389C7.15158 11.7694 6.83237 13.3196 7.02259 14.8498C7.21281 16.38 7.90186 17.8049 8.98318 18.9041C10.0645 20.0034 11.4779 20.7158 13.0047 20.9311C14.5315 21.1465 16.0868 20.8528 17.43 20.0955L17.4885 20.1085L17.5005 20.053C18.5632 19.4394 19.446 18.5572 20.0602 17.4948C20.6744 16.4324 20.9985 15.2272 21 14ZM7.99999 14C8.00192 13.4936 8.06829 12.9896 8.19749 12.5H10.319L12.815 14.58L11.86 15.853C11.7165 16.0459 11.647 16.2839 11.664 16.5238C11.6811 16.7636 11.7836 16.9893 11.953 17.16L13 18.207V19.9095C11.6034 19.6724 10.3357 18.9493 9.42071 17.8679C8.50576 16.7865 8.00254 15.4165 7.99999 14ZM12.66 16.453L14.185 14.42L10.681 11.5H8.55299C8.91776 10.6998 9.45449 9.98996 10.1249 9.42092C10.7954 8.85188 11.5831 8.43768 12.4319 8.20784C13.2807 7.97799 14.1698 7.93815 15.0358 8.09115C15.9017 8.24414 16.7233 8.58622 17.442 9.093L17.1395 10H14.293L12.7715 11.5215L17.4485 15.678L16.624 19.3875C15.8076 19.7896 14.91 19.9991 14 20V17.793L12.66 16.453ZM17.8175 18.625L18.424 15.895C18.4625 15.7212 18.454 15.5403 18.3992 15.3709C18.3444 15.2015 18.2455 15.0498 18.1125 14.9315L14.2285 11.4785L14.707 11H17.1395C17.3495 11.0002 17.5542 10.9342 17.7246 10.8114C17.8949 10.6886 18.0223 10.5153 18.0885 10.316L18.265 9.786C18.8512 10.3776 19.3076 11.085 19.605 11.863C19.9024 12.641 20.0343 13.4725 19.9921 14.3043C19.95 15.1361 19.7349 15.95 19.3604 16.694C18.986 17.4379 18.4605 18.0956 17.8175 18.625Z" fill="white"/>
</svg>
