<svg width="39" height="25" viewBox="0 0 39 25" fill="none" xmlns="http://www.w3.org/2000/svg">
<path d="M38.7512 0.636612L5.03508 0.638211L5.01509 0.750198C5.01509 0.750198 24.8362 4.82144 25.2289 4.8902C29.7833 5.69409 29.6416 6.57307 29.6416 6.57307C32.833 6.55708 33.225 6.68586 33.7833 7.15139C35.4614 8.55273 32.7339 12.6831 32.7339 12.6831C32.3436 12.9711 2.85787 24.3578 2.85787 24.3578H33.7065L38.7504 0.637411L38.7512 0.636612ZM21.2305 6.12039C20.337 6.114 19.7075 6.12679 19.6355 6.12199H3.87288L0 24.3634C0 24.3634 11.8626 18.5421 13.3135 17.7966C16.2866 16.2689 20.397 14.2517 24.1955 12.9575C24.9193 12.7128 28.0204 11.7569 29.8264 11.4346C30.5263 11.3098 30.8239 11.1907 30.8151 11.0603C30.7878 10.686 30.084 10.6611 28.8922 10.7195C25.2553 10.8907 18.2878 13.6654 16.2818 14.7236L14.0174 7.70567H28.4843C28.9722 6.34117 23.9116 6.14278 21.2296 6.12199L21.2305 6.12039ZM28.901 7.81126C28.7962 7.81126 28.7058 7.88167 28.5843 8.04722C28.4731 8.18959 28.3827 8.28639 28.0947 8.43115C27.6484 8.65113 26.4799 8.77431 25.9327 8.81988C25.408 8.86385 25.2657 8.91747 25.2569 9.1198C25.2513 9.3014 25.3345 9.40459 26.088 9.40459C27.8204 9.40459 30.939 8.75112 31.8788 9.05025C32.3748 9.2086 31.9764 10.0924 31.5693 11.2546C31.4117 11.7026 31.7213 11.6713 31.9004 11.4746C32.0804 11.2762 32.8891 9.79572 32.9771 9.04225C33.1018 7.97122 32.1836 7.81046 30.9166 7.81046L28.901 7.81126Z" fill="#BE0B31"/>
</svg>
