<svg xmlns="http://www.w3.org/2000/svg" width="21" height="25" viewBox="0 0 21 25" fill="none">
  <path d="M10.4862 25C10.4862 25 4.63097 22.4473 2.82127 21.0113C0.904852 19.4159 0 17.2354 0 14.7359V2.29132C4.63097 -0.208227 10.4862 0.00450068 10.4862 0.00450068C10.4862 0.00450068 16.3414 -0.208227 20.9724 2.29132V14.6827C20.9724 17.1823 20.0675 19.3627 18.1511 20.9582C16.3414 22.4473 10.4862 25 10.4862 25ZM0.851862 14.7359C0.851862 17.0759 1.70336 18.9904 3.35373 20.32C4.84403 21.5432 9.26194 23.5109 10.4862 24.0427C11.7104 23.5109 16.1817 21.49 17.619 20.32C19.269 18.9904 20.1209 17.0227 20.1209 14.7359V2.50405C13.9463 1.91905 6.60037 2.23814 0.851862 7.55634V14.7359Z" fill="#002768"/>
  <path d="M16.3989 12.9814C17.1974 13.4601 17.5168 13.7792 17.5698 14.3642C17.5698 15.0024 17.144 15.3746 16.4522 15.3746C15.8668 15.3746 15.1746 15.0555 14.6955 14.6301V16.3319C15.281 16.651 15.9731 16.9169 16.7183 16.9169C18.528 16.9169 19.3799 15.6405 19.3799 14.4705C19.4328 13.4069 19.1135 12.556 17.5698 11.6519C16.878 11.2264 16.3455 10.9605 16.3455 10.3223C16.3455 9.68417 16.9314 9.41827 17.4101 9.41827C18.0489 9.41827 18.6877 9.79055 19.0605 10.1628V8.56734C18.7411 8.30144 18.0489 7.92917 17.0377 7.98234C15.8134 8.03555 14.5358 8.88644 14.5358 10.3755C14.5892 11.386 14.9086 12.1305 16.3989 12.9814ZM10.1179 16.8105C10.2776 16.8637 10.5437 16.9169 10.9694 16.9169C13.0455 16.9169 14.2164 15.0555 14.2164 12.3964C14.2164 9.68417 12.9922 8.03555 10.8097 8.03555C9.79852 8.03555 9.00001 8.24827 8.30822 8.67372V20.6928H10.1179V16.8105ZM10.1179 9.57782C10.2776 9.52461 10.5437 9.41827 10.7567 9.41827C11.8213 9.41827 12.247 10.2692 12.247 12.3433C12.247 14.3642 11.7146 15.3214 10.65 15.3214C10.384 15.3214 10.1709 15.2683 10.0646 15.2151V9.57782H10.1179ZM4.52874 16.9169C5.64665 16.9169 6.60486 16.651 7.29665 16.1724V8.14189H5.43359V15.1087C5.2209 15.2683 4.95449 15.3214 4.5821 15.3214C3.73024 15.3214 3.6239 14.5237 3.6239 14.0451V8.14189H1.76083V13.9387C1.76083 15.9064 2.71904 16.9169 4.52874 16.9169Z" fill="#002768"/>
</svg>