<svg width="54" height="33" viewBox="0 0 54 33" fill="none" xmlns="http://www.w3.org/2000/svg">
<path d="M5.0116 0H48.9666C51.7482 0 54 2.25175 54 5.03359V21.8119C54 24.5936 51.7482 26.8455 48.9664 26.8455H33.2037L35.3673 32.1438L25.8519 26.8455H5.03417C2.25233 26.8455 0.000158957 24.5938 0.000158957 21.8119V5.03359C-0.0217785 2.2739 2.22976 0 5.01181 0H5.0116Z" fill="#BE0B31"/>
<path d="M3.07499 4.58792C3.38232 4.1709 3.84322 3.95131 4.45789 3.90744C5.57733 3.81969 6.21394 4.3464 6.36771 5.48799C7.04819 10.0759 7.79449 13.9611 8.58466 17.1441L13.3919 7.99054C13.8311 7.15629 14.3797 6.71733 15.0383 6.67345C16.0044 6.60764 16.5971 7.2221 16.8384 8.51725C17.3871 11.4368 18.0895 13.9172 18.9237 16.0245C19.4945 10.4488 20.4604 6.43193 21.8214 3.95131C22.1506 3.33685 22.6335 3.02952 23.2701 2.98543C23.7751 2.94156 24.2362 3.09512 24.653 3.4246C25.0702 3.75366 25.2896 4.1709 25.3335 4.67567C25.3554 5.07096 25.2896 5.40002 25.1141 5.7293C24.2579 7.30985 23.5555 9.96596 22.9849 13.6536C22.436 17.2319 22.2384 20.0196 22.3702 22.0172C22.4141 22.5659 22.3264 23.0487 22.1068 23.4659C21.8433 23.949 21.4482 24.2122 20.9434 24.2561C20.3727 24.3 19.7799 24.0367 19.2093 23.444C17.1679 21.3587 15.5433 18.2417 14.3582 14.0927C12.9312 16.9024 11.8776 19.0097 11.1973 20.4145C9.90217 22.8951 8.80467 24.1683 7.88266 24.2342C7.28993 24.278 6.78495 23.773 6.34599 22.7196C5.22654 19.8437 4.01914 14.2902 2.72399 6.05857C2.63624 5.48799 2.76786 4.983 3.0752 4.58792H3.07499ZM50.2489 8.0342C49.4585 6.6513 48.2952 5.81705 46.7368 5.48778C46.3198 5.40003 45.9247 5.35615 45.5513 5.35615C43.4441 5.35615 41.7319 6.45365 40.3929 8.64887C39.2515 10.5146 38.6807 12.5782 38.6807 14.839C38.6807 16.5293 39.0319 17.9778 39.7343 19.1854C40.5247 20.5683 41.688 21.4023 43.2464 21.7318C43.6635 21.8196 44.0585 21.8634 44.4319 21.8634C46.5611 21.8634 48.2731 20.7659 49.5904 18.5707C50.7317 16.6828 51.3025 14.6194 51.3025 12.3586C51.3245 10.6464 50.9513 9.21967 50.2489 8.0342ZM47.4831 14.1147C47.1758 15.5634 46.6269 16.639 45.8146 17.3635C45.1782 17.9343 44.5855 18.1756 44.0368 18.0659C43.5099 17.9563 43.0707 17.4951 42.7417 16.6392C42.4782 15.9587 42.3466 15.2782 42.3466 14.6416C42.3466 14.0927 42.3905 13.5441 42.5001 13.0391C42.6978 12.1392 43.0709 11.2611 43.6635 10.4269C44.388 9.35129 45.1563 8.91233 45.9464 9.0659C46.4733 9.17558 46.9125 9.63669 47.2416 10.4929C47.505 11.1734 47.6367 11.8539 47.6367 12.4905C47.6367 13.061 47.5928 13.6099 47.4831 14.1147ZM36.5074 8.0342C35.717 6.6513 34.5318 5.81705 32.9953 5.48778C32.5783 5.40003 32.1832 5.35615 31.8099 5.35615C29.7026 5.35615 27.9904 6.45365 26.6514 8.64887C25.51 10.5146 24.9392 12.5782 24.9392 14.839C24.9392 16.5293 25.2904 17.9778 25.9929 19.1854C26.7832 20.5683 27.9466 21.4023 29.505 21.7318C29.922 21.8196 30.3171 21.8634 30.6904 21.8634C32.8196 21.8634 34.5316 20.7659 35.8489 18.5707C36.9903 16.6828 37.5611 14.6194 37.5611 12.3586C37.5611 10.6464 37.2098 9.21967 36.5074 8.0342ZM33.7197 14.1147C33.4123 15.5634 32.8635 16.639 32.0512 17.3635C31.4148 17.9343 30.822 18.1756 30.2734 18.0659C29.7465 17.9563 29.3073 17.4951 28.9782 16.6392C28.7148 15.9587 28.5832 15.2782 28.5832 14.6416C28.5832 14.0927 28.627 13.5441 28.7367 13.0391C28.9344 12.1392 29.3075 11.2611 29.9 10.4269C30.6246 9.35129 31.3928 8.91233 32.183 9.0659C32.7099 9.17558 33.1491 9.63669 33.4782 10.4929C33.7416 11.1734 33.8732 11.8539 33.8732 12.4905C33.8952 13.061 33.8294 13.6099 33.7197 14.1147Z" fill="white"/>
</svg>
